<ttFont>
          <CharString index="0">
            199 485 678 rmoveto
            3 2 1 4 3 22 callsubr
            -5 vhcurveto
            -5 1 callgsubr
            hhcurveto
            -2 -1 -16 callsubr
            3 -2 -3 1 -2 callgsubr
            -3 -38 callgsubr
            0 -16 callsubr
            -9 -5 -100 -50 -322 -358 -24 -138 rlinecurve
            -2 -12 -1 -10 -10 vvcurveto
            -29 8 -20 11 -14 vhcurveto
            10 -35 30 -34 48 -10 rrcurveto
            -1 5 6 -1 7 hhcurveto
            57 94 43 98 115 hvcurveto
            -11 -26 -7 -27 -20 -63 callgsubr
            -2 vvcurveto
            2 -11 0 8 12 -27 rrcurveto
            -15 6 3 -5 2 hhcurveto
            1 1 3 4 2 hvcurveto
            -33 callsubr
            1 2 1 -3 -15 callgsubr
            3 9 3 hvcurveto
            6 23 2 23 58 80 58 79 278 351 45 54 rrcurveto
            25 30 7 14 9 12 -13 -2 4 vvcurveto
            9 -11 7 -9 vhcurveto
            -4 -3 -4 -4 -2 -2 1 -3 hhcurveto
            -4 -7 -2 -12 -14 hvcurveto
            -52 -42 -179 -251 -131 -118 rrcurveto
            -91 -101 -178 -112 -82 hhcurveto
            -16 -12 4 9 -7 hvcurveto
            -1 4 0 -21 callgsubr
            30 22 35 7 13 vhcurveto
            63 121 288 323 58 62 rrcurveto
            return
          </CharString>
          <CharString index="1">
            rmoveto
            7 6 -70 callsubr
            7 -15 0 -53 callgsubr
            -33 4 -2 -4 -15 -4 -3 -75 callsubr
            -7 -4 -7 hvcurveto
            -40 -36 -91 -83 -5 -16 rrcurveto
            -1 -2 0 -74 callsubr
            -6 8 -1 9 vhcurveto
            -64 callsubr
            4 2 7 -68 callsubr
            -1 12 callgsubr
            5 hhcurveto
            18 94 87 54 66 hvcurveto
            endchar
          </CharString>
          <CharString index="2">
            -90 362 258 rmoveto
            17 25 12 34 30 vvcurveto
            25 -9 23 -21 11 vhcurveto
            14 -15 -26 6 -25 hhcurveto
            -128 -106 -111 -30 -16 hvcurveto
            -2 -10 callsubr
            vvcurveto
            -4 4 -2 5 -18 callgsubr
            4 4 -4 -15 callgsubr
            2 -34 callsubr
            105 89 107 15 29 hhcurveto
            9 9 -7 -9 8 hvcurveto
            4 -6 2 -8 -9 vvcurveto
            -19 -10 -26 -27 -31 vhcurveto
            -9 -11 -11 -11 -11 -13 rrcurveto
            6 -6 -13 4 -21 hhcurveto
            -18 -24 -2 -6 -31 hvcurveto
            -80 -15 -158 -62 -4 -117 rrcurveto
            -31 19 -29 29 -2 vhcurveto
            35 72 45 41 59 hvcurveto
            -20 -27 -5 -10 -9 vvcurveto
            -2 -12 callgsubr
            -8 1 4 -13 9 hhcurveto
            8 16 callsubr
            6 hvcurveto
            17 callgsubr
            -3 -3 -55 callgsubr
            2 vhcurveto
            1 2 -9 callgsubr
            3 3 11 10 hvcurveto
            15 16 46 51 33 34 19 20 62 68 42 62 rrcurveto
            -274 -91 rmoveto
            29 59 43 9 39 hhcurveto
            -60 -61 -161 -93 -38 hhcurveto
            -2 -39 callgsubr
            -1 hvcurveto
            4 27 38 47 82 40 rrcurveto
            return
          </CharString>
          <CharString index="3">
            -104 315 25 callgsubr
            2 14 rlineto
            4 -1 2 -2 -4 -6 -5 -9 -9 vhcurveto
            -99 -102 -90 -38 -53 hhcurveto
            -14 29 callsubr
            -8 hvcurveto
            -3 7 -1 8 9 vvcurveto
            31 18 37 34 50 vhcurveto
            -7 13 25 -6 19 hhcurveto
            75 166 72 97 30 -26 21 -31 -3 -1 29 callgsubr
            hvcurveto
            24 callsubr
            1 -7 hhcurveto
            -65 -101 -43 -98 -89 hvcurveto
            -56 -62 -20 -57 -45 vvcurveto
            -70 46 -46 32 -7 vhcurveto
            -29 callgsubr
            -69 106 rmoveto
            -40 -66 -47 -22 -33 hhcurveto
            -5 -5 0 1 -5 hvcurveto
            24 callgsubr
            4 4 5 rrcurveto
            65 52 112 65 43 hhcurveto
            7 5 -2 -4 3 hvcurveto
            -1 -17 -15 -26 -55 -33 rrcurveto
            return
          </CharString>
          <CharString index="4">
            80 382 416 rmoveto
            2 -7 10 -4 -1 -2 -2 -5 -3 vhcurveto
            -6 -4 -1 -2 -26 callgsubr
            6 -5 -6 -7 -9 -6 -3 -3 callsubr
            -2 -8 -12 hvcurveto
            -17 -12 -159 -176 -65 -68 34 74 24 114 9 31 rrcurveto
            1 6 1 5 16 vvcurveto
            9 -12 12 -8 -7 -3 -3 -2 -3 vhcurveto
            -1 -3 0 -7 -2 -38 callgsubr
            -1 hvcurveto
            1 -1 -1 29 callgsubr
            -1 -5 -3 -4 -2 6 -5 hhcurveto
            -31 callgsubr
            -6 hvcurveto
            -1 -2 -5 -1 -3 hhcurveto
            -1 0 0 -3 hvcurveto
            -2 -18 -22 -96 -39 -120 rrcurveto
            -37 -112 -11 -25 -9 vvcurveto
            -11 10 -9 11 -3 vhcurveto
            -4 3 5 -4 5 hhcurveto
            17 29 36 15 15 hvcurveto
            21 21 143 168 72 75 -15 -52 -24 -87 -11 -45 rrcurveto
            -13 -49 -6 -36 -18 vvcurveto
            -5 0 -4 23 callsubr
            -11 9 6 -6 5 hhcurveto
            -43 callsubr
            3 hvcurveto
            -28 callsubr
            1 1 hhcurveto
            3 hlineto
            3 3 0 2 6 hvcurveto
            0 1 1 1 vhcurveto
            2 -1 -30 callsubr
            -2 rrcurveto
            -4 4 2 -1 1 hhcurveto
            2 1 2 -34 callsubr
            6 5 21 31 39 42 38 42 223 242 24 21 23 21 3 15 6 7 rrcurveto
            -65 callsubr
            1 vvcurveto
            5 -10 0 -5 -6 0 2 7 -2 vhcurveto
            1 -1 -1 -45 callsubr
            -5 -14 -8 -19 -21 hvcurveto
            -51 -46 -185 -193 -55 -59 7 42 17 47 13 45 rrcurveto
            17 54 23 100 16 vvcurveto
            return
          </CharString>
          <CharString index="5">
            rmoveto
            5 10 1 6 6 vvcurveto
            10 -10 10 -21 -11 -14 -4 -4 -9 vhcurveto
            -22 -10 -34 -33 -24 vvcurveto
            -6 5 -14 17 1 vhcurveto
            -13 -17 -23 -18 -35 -18 rrcurveto
            -5 -2 0 -59 callgsubr
            -3 13 -4 17 7 9 -25 callgsubr
            vhcurveto
            27 10 16 13 20 19 22 24 18 17 15 6 callgsubr
          </CharString>
          <CharString index="6">
            196 808 636 rmoveto
            0 -3 8 6 vvcurveto
            8 -3 -3 2 -4 -3 -7 -7 -2 hhcurveto
            -1 0 1 2 4 -1 3 -3 -8 -7 0 -15 -7 hvcurveto
            -6 -15 -70 -98 -59 -81 -50 -70 -116 -161 -44 -59 4 59 -4 109 6 74 8 87 3 164 1 19 rrcurveto
            13 -4 4 -4 -3 -3 -26 callgsubr
            vhcurveto
            -6 -9 3 3 -8 -3 rrcurveto
            -3 -7 -2 -9 9 callsubr
            3 6 -2 hvcurveto
            3 -1 -4 1 28 callsubr
            -4 32 callsubr
            hvcurveto
            -2 -3 -3 -4 -3 -6 -3 -2 -2 -4 -3 -4 -9 -12 -42 -56 -109 -136 -109 -135 -143 -199 -39 -101 rrcurveto
            -7 1 2 -16 11 hhcurveto
            2 5 1 -3 2 hvcurveto
            3 -6 -2 -4 15 -3 rrcurveto
            -2 7 3 -2 2 hhcurveto
            2 1 3 7 3 hvcurveto
            12 27 33 44 32 56 27 46 139 214 44 65 87 125 rcurveline
            -5 -64 -4 -115 -6 -89 rrcurveto
            -4 -59 -3 -65 -53 vvcurveto
            -55 4 -43 9 -11 vhcurveto
            -8 6 7 -3 6 hhcurveto
            11 10 11 12 8 hvcurveto
            13 18 39 44 59 72 165 203 141 201 15 48 rrcurveto
            5 16 2 5 callgsubr
            2 0 0 callgsubr
            vhcurveto
            return
          </CharString>
          <CharString index="7">
            rmoveto
            -9 -23 -3 -19 -16 vvcurveto
            -61 48 -21 54 70 76 40 105 38 vhcurveto
            0 -42 callsubr
            vvcurveto
            4 -19 callsubr
            -20 -29 -7 -18 -8 vhcurveto
            -74 -25 -50 -14 -20 hhcurveto
            -24 -17 11 31 15 4 21 10 26 hvcurveto
            0 0 -36 callgsubr
            -4 2 -7 -8 -12 -3 -3 -9 vhcurveto
            -2 -26 callsubr
            -4 -3 -3 0 28 callsubr
            -42 callgsubr
            17 callsubr
          </CharString>
          <CharString index="8">
            105 86 158 rmoveto
            49 22 59 63 92 vhcurveto
            175 121 217 107 96 hhcurveto
            12 11 0 -9 12 hvcurveto
            1 -2 0 -3 -2 vvcurveto
            -49 -69 -46 -14 -15 vhcurveto
            -5 -5 -3 -5 -4 vvcurveto
            -5 3 -5 5 -3 vhcurveto
            4 -3 1 -20 callsubr
            -1 -1 -5 23 callsubr
            4 -7 -1 3 3 -9 rrcurveto
            -7 2 3 -5 5 hhcurveto
            2 2 0 1 2 hvcurveto
            47 21 55 55 61 vvcurveto
            30 -16 20 -16 15 vhcurveto
            -7 17 -15 12 -27 26 callsubr
            -6 -10 0 -13 hhcurveto
            -78 -194 -27 -224 -191 hvcurveto
            -58 -68 -39 -101 -87 vvcurveto
            -56 16 -50 37 -32 vhcurveto
            -32 26 47 -19 57 hhcurveto
            49 55 14 31 54 hvcurveto
            135 78 49 129 1 26 rrcurveto
            5 vlineto
            6 -1 2 32 callsubr
            -4 0 vhcurveto
            31 callgsubr
            4 vvcurveto
            3 -1 2 -18 callgsubr
            -2 -5 -4 -3 -1 4 -3 hhcurveto
            -1 -46 callgsubr
            hvcurveto
            -9 -8 -4 -8 -15 -14 -63 -60 -69 -67 -44 -22 rrcurveto
            -23 -46 -40 -13 -42 hhcurveto
            -59 -39 37 51 hvcurveto
            return
          </CharString>
          <CharString index="9">
            436 rmoveto
            3 -1 5 -5 vhcurveto
            -11 5 9 -7 -8 -7 -8 -9 21 callgsubr
            -2 hvcurveto
            -5 4 -67 callsubr
            3 rrcurveto
            2 -1 -2 2 -3 hhcurveto
            -6 callsubr
            -4 hvcurveto
            -56 -35 -172 -159 -95 -88 1 50 -1 62 -2 33 -1 16 -4 60 -2 14 rrcurveto
            14 -6 0 0 -7 -6 -1 10 -8 -6 -1 -9 -10 hhcurveto
            -11 3 -4 -5 -5 hvcurveto
            -1 -1 -1 0 13 callsubr
            -52 callsubr
            27 callsubr
            15 callsubr
            -1 0 -4 -6 vvcurveto
            -44 9 -160 1 -44 vhcurveto
            1 -22 0 -16 -1 -15 rrcurveto
            -260 -244 -78 -140 -21 vvcurveto
            -7 0 -1 1 2 2 0 -2 2 vhcurveto
            -2 -11 callgsubr
            1 3 2 4 8 hhcurveto
            11 -1 4 4 5 hvcurveto
            5 4 4 -7 28 33 35 39 157 178 158 150 rrcurveto
            157 148 233 186 12 vvcurveto
            return
          </CharString>
          <CharString index="10">
            -144 45 -106 rmoveto
            4 5 2 6 7 vvcurveto
            -8 callgsubr
            -1 3 vhcurveto
            -1 10 -5 9 -13 3 rrcurveto
            3 -15 -6 0 -7 hhcurveto
            -32 -46 -10 -31 -60 hvcurveto
            -79 -39 -37 -54 -47 vvcurveto
            -19 6 -17 11 -15 vhcurveto
            -34 10 12 -14 42 hhcurveto
            53 78 17 62 97 hvcurveto
            79 50 76 78 58 vvcurveto
            5 -1 -4 callgsubr
            vhcurveto
            -2 8 -6 9 -8 8 -8 27 -28 18 -52 5 rrcurveto
            -5 -4 1 -5 -50 -59 -25 -32 hhcurveto
            5 17 61 37 33 23 rrcurveto
            37 54 17 42 54 hvcurveto
            56 43 73 68 81 vvcurveto
            14 -3 16 -8 13 vhcurveto
            44 33 58 40 60 33 rrcurveto
            20 11 10 16 12 vvcurveto
            7 -6 9 -9 -4 -5 -1 -2 -8 vhcurveto
            -13 -3 -65 -18 -117 -105 rrcurveto
            4 -12 -15 3 -16 hhcurveto
            -57 -77 -28 -58 -53 hvcurveto
            -52 -56 -19 -48 -37 vvcurveto
            -28 11 -21 17 -18 vhcurveto
            -36 -23 -52 -38 -7 -16 rrcurveto
            -2 -6 -1 -5 callsubr
            -9 2 -9 4 -7 vhcurveto
            -19 6 17 -25 19 31 97 36 45 hhcurveto
            7 6 -1 -2 4 hvcurveto
            10 -6 7 -6 4 -7 -6 -41 -56 -65 -84 -47 rrcurveto
            -40 -73 -92 -44 -45 hhcurveto
            -7 -7 1 3 -4 hvcurveto
            -6 7 -2 8 7 vvcurveto
            29 35 33 52 32 vhcurveto
            53 32 38 19 30 5 rrcurveto
            -11 -10 -10 -8 -5 vhcurveto
            -3 -2 -73 callsubr
            -5 10 -4 11 22 22 20 13 9 vhcurveto
            177 451 rmoveto
            -7 -7 -9 -17 -8 -55 callgsubr
            2 vhcurveto
            2 2 -25 callgsubr
            2 -3 5 hhcurveto
            -64 callsubr
            7 9 hvcurveto
            21 15 -6 -33 -25 -45 -67 -51 rlinecurve
            -41 -53 -40 -15 -27 hhcurveto
            -10 -7 2 3 -7 hvcurveto
            34 18 38 41 44 vhcurveto
            56 62 61 35 42 1 -6 -7 -7 -6 -7 -7 rrcurveto
            return
          </CharString>
          <CharString index="11">
            -89 callsubr
            -17 12 -32 10 vhcurveto
            6 5 -6 -14 callsubr
            2 0 3 3 -78 callgsubr
            return
          </CharString>
          <CharString index="12">
            -90 106 -4 rmoveto
            150 55 77 110 23 vvcurveto
            11 -8 5 -8 -5 -4 -2 -3 -3 vhcurveto
            -48 -60 -97 -57 -60 -15 rrcurveto
            -2 -9 -9 -2 -8 hhcurveto
            -24 -19 11 19 -8 hvcurveto
            84 76 89 65 45 vhcurveto
            40 58 49 20 26 hhcurveto
            8 6 -2 -4 3 hvcurveto
            -7 -12 -16 -11 -10 -9 rrcurveto
            -6 -5 -2 -4 -4 -7 8 -6 -9 vvcurveto
            -13 21 2 3 -2 vhcurveto
            7 11 6 11 12 hvcurveto
            12 10 11 23 20 vvcurveto
            12 -7 18 -12 9 vhcurveto
            -3 4 -6 5 -6 5 rrcurveto
            5 -8 -13 3 -16 hhcurveto
            -45 -70 -21 -49 -66 hvcurveto
            -124 -91 -32 -92 -62 vvcurveto
            -28 6 -23 8 -13 vhcurveto
            3 -6 5 -5 4 -4 rrcurveto
            -19 15 24 -14 34 hhcurveto
            17 19 3 8 21 hvcurveto
            return
          </CharString>
          <CharString index="13">
            -136 93 vmoveto
            2 1 1 4 4 vvcurveto
            7 -2 8 -1 5 vhcurveto
            3 -2 -2 2 -5 hhcurveto
            -6 -7 -2 -3 -12 hvcurveto
            -31 -9 -45 -18 -47 vvcurveto
            -37 29 -22 33 5 7 0 1 6 vhcurveto
            68 7 178 30 49 114 rrcurveto
            2 5 1 8 8 vvcurveto
            13 -3 15 -6 10 vhcurveto
            -6 11 -11 10 -17 9 -46 22 -82 -1 -32 18 8 11 22 12 47 19 rrcurveto
            27 64 32 7 21 hhcurveto
            -3 -7 -2 -9 -8 vvcurveto
            -3 0 -3 -45 callgsubr
            -2 1 0 3 7 17 5 17 34 vhcurveto
            35 18 15 18 14 vvcurveto
            9 -8 10 -11 vhcurveto
            -7 -6 4 -12 hhcurveto
            -44 -196 -30 -75 -58 hvcurveto
            -5 -6 -2 -6 -12 vvcurveto
            -14 3 -10 6 -13 vhcurveto
            8 -17 7 -15 31 -7 57 -12 70 -3 13 -16 -30 -48 -120 -43 -76 -16 rrcurveto
            0 -4 -1 -5 -4 -5 0 3 -2 vhcurveto
            2 18 26 8 5 2 rrcurveto
            return
          </CharString>
          <CharString index="14">
            -47 callgsubr
            12 -14 8 -17 -6 -7 -1 -4 -10 vhcurveto
            -17 -8 16 callgsubr
            -18 rrcurveto
            -2 -4 -2 -5 -5 3 callsubr
            -7 5 13 callgsubr
            6 6 -22 callsubr
            9 2 4 13 hvcurveto
            20 6 23 31 9 18 rrcurveto
            return
          </CharString>
          <CharString index="15">
            rmoveto
            7 -4 16 -17 -84 -96 -1 -9 -43 vhcurveto
            -7 -1 -8 -14 -3 25 callsubr
            -1 -2 -6 -7 vvcurveto
            -9 4 -9 16 13 163 5 1 17 vhcurveto
            20 1 32 13 22 vvcurveto
            endchar
          </CharString>
          <CharString index="16">
            -229 405 639 rmoveto
            5 -3 -3 5 -6 -16 callgsubr
            -3 -6 hvcurveto
            -22 -11 -82 -95 -77 -104 rrcurveto
            -7 -64 -54 -8 -7 hhcurveto
            -1 -16 1 -15 -9 hhcurveto
            -42 callgsubr
            -5 -7 2 -9 5 -4 hvcurveto
            -9 9 10 -3 10 13 13 5 26 hhcurveto
            17 hlineto
            -84 -115 -114 -154 -14 -28 rrcurveto
            -2 -5 0 -3 -3 -22 -1 -3 -2 vvcurveto
            -14 6 -13 5 -11 vhcurveto
            -10 4 2 -3 -35 callsubr
            2 4 2 3 -3 3 hhcurveto
            3 5 4 15 8 hvcurveto
            23 46 173 263 51 65 49 6 rcurveline
            77 8 30 7 9 11 8 12 3 7 5 5 -30 callgsubr
            3 3 vvcurveto
            9 -10 6 -9 -25 -42 -3 -5 -46 vhcurveto
            113 153 rlineto
            7 10 -54 callsubr
            vvcurveto
            1 -1 0 0 vhcurveto
            -1 -5 -4 -1 hhcurveto
            7 6 6 9 vvcurveto
            2 -1 0 callgsubr
            vhcurveto
            return
          </CharString>
          <CharString index="17">
            vvcurveto
            -44 37 -21 51 54 26 8 10 36 vhcurveto
            8 2 8 7 9 6 -9 0 7 9 12 16 13 vvcurveto
            5 -3 2 -2 callgsubr
            -1 -2 vhcurveto
            -11 -25 -40 -18 -29 hhcurveto
            -24 -15 11 18 return
          </CharString>
          <CharString index="18">
            291 430 rmoveto
            67 84 67 102 26 vvcurveto
            18 -11 11 -9 -3 -4 -26 callgsubr
            vhcurveto
            -8 -13 -193 -216 -112 -144 rrcurveto
            -69 -88 -82 -112 -44 vvcurveto
            return
          </CharString>
          <CharString index="19">
            208 738 455 rmoveto
            2 11 0 10 8 vvcurveto
            33 -5 36 -11 27 vhcurveto
            -8 57 -75 41 -129 8 rrcurveto
            -8 -9 1 -8 hhcurveto
            -122 -91 -48 -10 -22 hvcurveto
            -24 -10 -9 -12 -15 -11 rrcurveto
            -3 -2 -1 -4 -5 vvcurveto
            -9 5 -13 6 vhcurveto
            -62 callgsubr
            1 hhcurveto
            51 20 43 15 38 9 -36 -38 -80 -96 -67 -83 rrcurveto
            -101 -11 -33 -19 -56 callgsubr
            11 39 3 4 44 hvcurveto
            -90 -113 -77 -115 -9 -23 rrcurveto
            -3 -7 -1 -7 -7 vvcurveto
            -14 6 -13 10 -1 vhcurveto
            -1 7 5 0 3 hhcurveto
            12 -1 5 24 31 hvcurveto
            4 -17 6 -18 8 -11 rrcurveto
            -20 10 39 -2 18 hhcurveto
            21 29 3 9 40 hvcurveto
            380 80 172 321 9 57 rrcurveto
            -331 125 rmoveto
            3 4 -42 callsubr
            5 callsubr
            0 -6 4 vhcurveto
            -9 6 -8 8 -7 6 rrcurveto
            8 38 33 2 31 hhcurveto
            18 18 -1 -1 17 hvcurveto
            101 -8 50 -17 15 -31 -6 -122 -182 -197 -188 -99 rrcurveto
            -59 -110 -69 -15 -44 hhcurveto
            -10 -8 1 1 -7 hvcurveto
            13 20 41 19 9 14 rrcurveto
            0 4 6 4 vvcurveto
            0 callgsubr
            -7 vhcurveto
            2 1 2 1 vvcurveto
            6 -8 9 -1 -4 -21 -7 -11 -24 vhcurveto
            36 52 40 60 24 28 36 45 rcurveline
            98 -77 callsubr
            8 5 -38 0 -50 -13 -11 -1 -11 hhcurveto
            64 82 72 93 6 9 rrcurveto
            endchar
          </CharString>
          <CharString index="20">
            rmoveto
            2 4 -47 callsubr
            13 -15 9 -6 1 vhcurveto
            -11 -10 -4 -10 -21 hvcurveto
            -129 -109 -553 -489 -31 -31 rrcurveto
            -5 -8 -1 -13 callgsubr
            -14 17 -7 0 vhcurveto
            -4 -4 rlineto
            -1 vlineto
            -1 0 0 3 10 25 14 0 vhcurveto
            23 24 580 512 109 88 6 6 5 6 5 7 rrcurveto
            return
          </CharString>
          <CharString index="21">
            208 738 455 rmoveto
            2 11 0 10 8 vvcurveto
            33 -5 36 -11 27 vhcurveto
            -8 57 -75 41 -129 8 rrcurveto
            -8 -9 1 -8 hhcurveto
            -122 -91 -48 -10 -22 hvcurveto
            -24 -10 -9 -12 -15 -11 rrcurveto
            -3 -2 -1 -4 -5 vvcurveto
            -9 5 -13 6 vhcurveto
            -62 callgsubr
            1 hhcurveto
            51 20 43 15 38 9 -47 -51 -125 -150 -70 -90 -84 -105 -77 -115 -9 -23 rrcurveto
            -3 -7 -1 -7 -7 vvcurveto
            -14 6 -13 10 -1 vhcurveto
            -1 7 5 0 3 hhcurveto
            12 -1 5 24 31 hvcurveto
            4 -17 6 -18 8 -11 rrcurveto
            -20 10 39 -2 18 hhcurveto
            21 29 3 9 40 hvcurveto
            380 80 172 321 9 57 rrcurveto
            -601 -325 rmoveto
            0 4 6 4 vvcurveto
            0 callgsubr
            -7 vhcurveto
            2 1 2 1 vvcurveto
            6 -8 9 -1 -4 -21 -7 -11 -24 vhcurveto
            36 52 40 60 24 28 48 57 174 224 9 13 rrcurveto
            3 4 -42 callsubr
            5 callsubr
            0 -6 4 vhcurveto
            -9 6 -8 8 -7 6 rrcurveto
            8 38 33 2 31 hhcurveto
            18 18 -1 -1 17 hvcurveto
            101 -8 50 -17 15 -31 -6 -122 -182 -197 -188 -99 rrcurveto
            -59 -110 -69 -15 -44 hhcurveto
            -10 -8 1 1 -7 hvcurveto
            13 20 41 19 9 14 rrcurveto
            return
          </CharString>
          <CharString index="22">
            rmoveto
            10 3 21 10 9 -3 36 -16 hvcurveto
            -131 -19 -94 -113 -17 -78 rrcurveto
            -3 -12 -1 -12 -12 vvcurveto
            -36 12 -34 21 -16 vhcurveto
            -28 16 23 -8 21 hhcurveto
            4 5 0 1 5 hvcurveto
            137 24 125 165 72 81 rrcurveto
            161 184 150 285 44 vvcurveto
            7 -2 33 -13 vhcurveto
            -4 -2 6 -3 hhcurveto
            -1 27 callsubr
            -1 hvcurveto
            -14 -17 -189 -285 -94 -118 rrcurveto
            -156 -123 -152 -153 -77 hhcurveto
            -2 -39 callgsubr
            -3 hvcurveto
            82 148 118 23 vhcurveto
            5 2 -7 6 hhcurveto
            return
          </CharString>
          <CharString index="23">
            -5 -12 -3 -12 callsubr
            -12 8 -6 21 5 12 1 4 9 vhcurveto
            16 7 32 33 9 17 rrcurveto
            2 4 2 4 5 vvcurveto
            6 -4 7 -9 8 vhcurveto
            13 26 24 33 35 19 rrcurveto
            5 -8 callgsubr
            3 vvcurveto
            5 -12 4 -13 -8 -9 -1 -4 -6 vhcurveto
            -25 -13 -19 -18 -20 -23 -25 -29 -19 -27 -16 -32 rrcurveto
            return
          </CharString>
          <CharString index="24">
            -101 352 332 rmoveto
            -8 12 -7 10 -7 8 56 53 rcurveline
            11 10 3 7 4 vvcurveto
            5 -4 3 -3 2 vhcurveto
            -8 3 9 -2 -7 4 rrcurveto
            1 -3 -2 1 -3 hhcurveto
            -6 -5 -1 -12 -13 hvcurveto
            -55 -53 rlineto
            0 -10 9 -15 5 vhcurveto
            4 -4 -6 2 -7 7 callgsubr
            -19 callsubr
            6 -21 vhcurveto
            -62 -58 rlineto
            -6 -5 -2 -5 -5 -8 4 -5 -5 vvcurveto
            -2 1 2 -2 5 hhcurveto
            9 8 3 8 13 hvcurveto
            51 48 rlineto
            28 callgsubr
            -12 36 hhcurveto
            10 13 33 callgsubr
            hvcurveto
            155 31 119 205 80 vvcurveto
            9 -3 7 -2 5 vhcurveto
            -61 -8 rmoveto
            -8 -32 -20 -46 -43 -56 rrcurveto
            36 callsubr
            -5 hvcurveto
            88 84 101 99 93 89 rrcurveto
            -294 -228 rmoveto
            5 1 5 2 6 36 callgsubr
            3 9 10 3 5 hhcurveto
            return
          </CharString>
          <CharString index="25">
            250 402 rmoveto
            -6 4 4 0 -6 5 rrcurveto
            3 -3 3 callgsubr
            -2 27 callsubr
            hhcurveto
            -4 -3 -5 1 -4 -1 -12 -6 -191 -194 -24 -32 -24 -32 -54 -70 -8 -77 callgsubr
            -11 2 -9 6 -1 vhcurveto
            2 -3 -13 -10 15 hvcurveto
            -1 -65 callsubr
            6 0 11 3 4 4 -6 6 hhcurveto
            6 7 4 10 10 hvcurveto
            6 5 15 31 4 9 9 19 143 206 102 -79 callsubr
            177 175 rmoveto
            4 9 14 18 17 vvcurveto
            12 -4 8 -3 6 vhcurveto
            7 -4 -19 4 -9 hhcurveto
            -20 -1 -70 -40 -14 -20 rrcurveto
            -7 -10 -1 -8 -7 -8 2 -6 -2 vvcurveto
            -22 6 -9 7 -9 vhcurveto
            -4 3 8 -1 10 hhcurveto
            10 11 2 2 5 hvcurveto
            12 7 29 24 2 2 10 10 13 10 5 9 rrcurveto
            return
          </CharString>
          <CharString index="26">
            13 rrcurveto
            3 4 7 0 5 1 -1 1 1 4 3 5 2 vvcurveto
            -62 callgsubr
            -1 vhcurveto
            -7 4 -21 25 -50 50 -22 23 -29 26 -4 7 rrcurveto
            3 9 callgsubr
            hhcurveto
            1 callgsubr
            -6 -3 hvcurveto
            -6 -14 -11 8 -2 -7 -1 -6 -1 1 -5 -9 -6 -9 4 8 -8 -12 rrcurveto
            -3 -6 -2 -3 -23 callsubr
            -1 23 callsubr
            3 -2 64 -51 21 -31 return
          </CharString>
          <CharString index="27">
            -71 callsubr
            -130 hmoveto
            -71 callgsubr
          </CharString>
          <CharString index="28">
            102 -30 callgsubr
            5 callgsubr
            -4 callgsubr
            4 callsubr
            return
          </CharString>
          <CharString index="29">
            0 0 5 -10 5 vhcurveto
            -5 19 -12 -3 0 vvcurveto
            2 -4 -26 1 -34 hhcurveto
            -13 -12 0 -1 -12 hvcurveto
            4 70 3 62 14 vvcurveto
            7 -3 3 -4 3 vhcurveto
            -4 3 -3 1 -1 -5 rrcurveto
            -2 -6 1 -5 1 vhcurveto
            -5 1 5 -7 -7 -1 rrcurveto
            -6 0 11 -5 -10 hvcurveto
            -5 -3 -9 4 1 -9 2 -9 -6 -63 -4 -82 -55 -6 -40 -8 -2 -1 -6 -1 -3 -8 -11 -4 -10 -5 -2 -3 -1 -7 rrcurveto
            0 -1 -9 20 -3 vhcurveto
            5 -12 20 0 0 vvcurveto
            83 3 rlineto
            -2 -40 -1 -43 -41 vvcurveto
            -31 vlineto
            return
          </CharString>
          <CharString index="30">
            hlineto
            22 7 4 2 1 hvcurveto
            3 2 -2 1 3 2 12 16 9 4 1 2 1 2 rcurveline
            -2 2 2 5 3 4 5 6 6 3 2 3 rrcurveto
            return
          </CharString>
          <CharString index="31">
            2 -66 callsubr
            return
          </CharString>
          <CharString index="32">
            hhcurveto
            -6 -10 return
          </CharString>
          <CharString index="33">
            -1 -1 vvcurveto
            return
          </CharString>
          <CharString index="34">
            -1 -59 callgsubr
            return
          </CharString>
          <CharString index="35">
            -84 callsubr
            endchar
          </CharString>
          <CharString index="36">
            rmoveto
            -90 callgsubr
            return
          </CharString>
          <CharString index="37">
            2 -70 callgsubr
            return
          </CharString>
          <CharString index="38">
            hhcurveto
            6 6 -1 -3 4 hvcurveto
            1 -28 callgsubr
            vvcurveto
            -64 -160 -136 -95 -53 vhcurveto
            -12 -22 -17 -3 -10 hhcurveto
            -11 -4 5 7 9 -2 1 -2 -5 -9 -6 -13 -10 hvcurveto
            -8 -10 -4 -11 -12 vvcurveto
            -36 30 -20 31 84 264 224 124 12 -3 10 -5 7 vhcurveto
            return
          </CharString>
          <CharString index="39">
            -1 3 hhcurveto
            return
          </CharString>
          <CharString index="40">
            -3 -1 -3 return
          </CharString>
          <CharString index="41">
            0 -59 callsubr
            return
          </CharString>
          <CharString index="42">
            1 -62 callgsubr
            return
          </CharString>
          <CharString index="43">
            4 5 1 return
          </CharString>
          <CharString index="44">
            -58 -74 -200 -238 -41 -57 rrcurveto
            -25 -35 -3 -7 -3 -17 3 -9 -9 vvcurveto
            -1 -2 29 callgsubr
            3 callsubr
            -9 7 -3 vhcurveto
            -4 7 -3 -24 8 hhcurveto
            -65 callsubr
            1 hvcurveto
            12 4 6 -3 8 12 8 12 151 207 80 108 return
          </CharString>
          <CharString index="45">
            rrcurveto
            3 4 2 7 7 22 callsubr
            -2 4 vhcurveto
            return
          </CharString>
          <CharString index="46">
            1 -74 callsubr
            return
          </CharString>
          <CharString index="47">
            rmoveto
            8 11 4 10 6 vvcurveto
            4 -2 2 -5 vhcurveto
            -8 -27 -4 -6 -2 -3 2 -5 hhcurveto
            -19 -71 -98 -67 -46 hvcurveto
            -26 -38 -24 -29 -13 vvcurveto
            -5 5 -2 8 12 53 12 13 10 vhcurveto
            103 140 13 18 16 20 12 18 rlinecurve
            endchar
          </CharString>
          <CharString index="48">
            2 2 vvcurveto
            return
          </CharString>
          <CharString index="49">
            -8 -1 -9 -12 -5 -9 rrcurveto
            -3 -6 -4 -12 callsubr
            -5 3 -5 8 callgsubr
            return
          </CharString>
          <CharString index="50">
            -6 rrcurveto
            -4 -6 26 callgsubr
            vvcurveto
            -48 callsubr
            2 -1 vhcurveto
            5 -3 -1 -11 2 -6 rrcurveto
            -3 1 3 -1 2 hhcurveto
            4 6 3 2 5 hvcurveto
            3 3 4 -2 4 hhcurveto
            4 7 1 3 11 hvcurveto
            6 24 return
          </CharString>
          <CharString index="51">
            hvcurveto
            -3 -4 -4 -6 -4 -55 callgsubr
            3 vhcurveto
            7 2 -15 5 hhcurveto
            11 13 8 1 8 hvcurveto
            1 return
          </CharString>
          <CharString index="52">
            1 -48 callsubr
            return
          </CharString>
          <CharString index="53">
            2 4 1 return
          </CharString>
          <CharString index="54">
            -2 -31 callgsubr
            1 -59 callgsubr
            -9 1 20 -34 10 hhcurveto
            -33 callsubr
            2 hvcurveto
            return
          </CharString>
          <CharString index="55">
            2 -51 callgsubr
            return
          </CharString>
          <CharString index="56">
            111 491 627 rmoveto
            -4 callgsubr
            9 vvcurveto
            8 0 5 -8 4 vhcurveto
            5 29 callsubr
            -21 hhcurveto
            -52 -201 -115 -142 -98 hvcurveto
            -58 -84 -47 -97 -74 vvcurveto
            return
          </CharString>
          <CharString index="57">
            vvcurveto
            -5 -6 6 -4 -1 vvcurveto
            -2 -3 -10 -5 -2 -3 rrcurveto
            -7 -7 -2 -14 6 hhcurveto
            return
          </CharString>
          <CharString index="58">
            1 1 1 1 1 return
          </CharString>
          <CharString index="59">
            -1 1 -1 return
          </CharString>
          <CharString index="60">
            1 -70 callgsubr
            return
          </CharString>
          <CharString index="61">
            -1 -45 callgsubr
            return
          </CharString>
          <CharString index="62">
            1 -2 hhcurveto
            return
          </CharString>
          <CharString index="63">
            6 callsubr
            2 -2 2 3 5 3 4 rlinecurve
            4 6 4 3 2 3 rrcurveto
            8 6 return
          </CharString>
          <CharString index="64">
            3 3 2 3 return
          </CharString>
          <CharString index="65">
            1 3 1 return
          </CharString>
          <CharString index="66">
            -2 3 hhcurveto
            6 return
          </CharString>
          <CharString index="67">
            -1 2 2 return
          </CharString>
          <CharString index="68">
            -1 -61 callsubr
            return
          </CharString>
          <CharString index="69">
            1 -23 callgsubr
            return
          </CharString>
          <CharString index="70">
            0 4 4 -6 rrcurveto
            -3 1 4 -1 4 hhcurveto
            4 -35 callsubr
            return
          </CharString>
          <CharString index="71">
            3 -68 callsubr
            return
          </CharString>
          <CharString index="72">
            3 2 2 return
          </CharString>
          <CharString index="73">
            3 3 hvcurveto
            return
          </CharString>
          <CharString index="74">
            2 -62 callgsubr
            return
          </CharString>
          <CharString index="75">
            -20 18 -2 rrcurveto
            4 hlineto
            1 8 10 callgsubr
            59 53 -1 -1 51 hvcurveto
            35 hlineto
            22 1 12 5 9 12 return
          </CharString>
          <CharString index="76">
            -1 -20 callsubr
            return
          </CharString>
          <CharString index="77">
            2 0 2 return
          </CharString>
          <CharString index="78">
            -10 -4 -9 -15 vvcurveto
            -8 4 -8 8 -4 vhcurveto
            -13 4 22 -11 11 hhcurveto
            39 60 55 22 17 hvcurveto
            endchar
          </CharString>
          <CharString index="79">
            3 3 1 return
          </CharString>
          <CharString index="80">
            -4 -5 -2 return
          </CharString>
          <CharString index="81">
            -4 -4 0 return
          </CharString>
          <CharString index="82">
            -1 -9 0 -8 -6 vvcurveto
            -19 4 -5 15 -4 vhcurveto
            -2 9 12 -4 10 hhcurveto
            8 8 3 9 4 hvcurveto
            return
          </CharString>
          <CharString index="83">
            2 -8 callgsubr
            return
          </CharString>
          <CharString index="84">
            -3 vvcurveto
            -2 2 return
          </CharString>
          <CharString index="85">
            -6 13 hhcurveto
            7 return
          </CharString>
          <CharString index="86">
            2 2 3 return
          </CharString>
          <CharString index="87">
            -2 -3 vvcurveto
            return
          </CharString>
          <CharString index="88">
            -12 2 -12 return
          </CharString>
          <CharString index="89">
            -15 -9 -5 hvcurveto
            -3 -6 -5 -9 -7 vvcurveto
            -6 3 -4 8 callgsubr
            return
          </CharString>
          <CharString index="90">
            -2 2 callgsubr
            return
          </CharString>
          <CharString index="91">
            4 callgsubr
            hvcurveto
            return
          </CharString>
          <CharString index="92">
            3 -70 callgsubr
            return
          </CharString>
          <CharString index="93">
            6 hhcurveto
            2 return
          </CharString>
          <CharString index="94">
            4 3 3 return
          </CharString>
          <CharString index="95">
            -8 -7 vvcurveto
            return
          </CharString>
          <CharString index="96">
            -31 -54 rrcurveto
            -5 -10 -3 -13 callgsubr
            -8 4 -4 6 -1 vhcurveto
            13 1 rlineto
            endchar
          </CharString>
          <CharString index="97">
            -67 callsubr
            -2 return
          </CharString>
          <CharString index="98">
            -2 1 -1 return
          </CharString>
          <CharString index="99">
            5 -2 4 return
          </CharString>
          <CharString index="100">
            vvcurveto
            -43 1 -35 5 -22 vhcurveto
            2 -10 10 6 3 -6 3 -6 11 -2 4 33 return
          </CharString>
          <CharString index="101">
            -3 -67 callsubr
            return
          </CharString>
          <CharString index="102">
            -6 -6 vvcurveto
            return
          </CharString>
          <CharString index="103">
            373 392 rmoveto
            13 -4 0 -26 8 vhcurveto
            1 -6 -8 1 -11 hhcurveto
            -16 return
          </CharString>
          <CharString index="104">
            -48 callsubr
            hhcurveto
            -1 -1 return
          </CharString>
          <CharString index="105">
            -67 callsubr
            -3 return
          </CharString>
          <CharString index="106">
            -4 hhcurveto
            -2 return
          </CharString>
          <CharString index="107">
            3 hvcurveto
            4 return
          </CharString>
          <CharString index="108">
            rmoveto
            2 -38 callsubr
            return
          </CharString>
          <CharString index="109">
            3 3 4 6 3 return
          </CharString>
          <CharString index="110">
            vvcurveto
            -7 3 return
          </CharString>
          <CharString index="111">
            -2 1 vhcurveto
            return
          </CharString>
          <CharString index="112">
            vvcurveto
            3 -4 return
          </CharString>
          <CharString index="113">
            20 6 4 2 2 hvcurveto
            2 5 11 16 5 4 1 2 rlinecurve
            1 return
          </CharString>
          <CharString index="114">
            -7 -5 -2 -3 -3 vvcurveto
            -7 18 -1 6 -2 vhcurveto
            11 callsubr
            -6 return
          </CharString>
          <CharString index="115">
            -3 -4 -7 -39 callsubr
            1 return
          </CharString>
          <CharString index="116">
            -2 hhcurveto
            -2 -1 return
          </CharString>
          <CharString index="117">
            13 callsubr
            vvcurveto
            return
          </CharString>
          <CharString index="118">
            3 -1 -2 return
          </CharString>
          <CharString index="119">
            0 1 4 return
          </CharString>
          <CharString index="120">
            -1 -4 -3 return
          </CharString>
          <CharString index="121">
            10 29 4 4 12 hvcurveto
            190 72 93 200 144 vvcurveto
            return
          </CharString>
          <CharString index="122">
            -2 hvcurveto
            -1 return
          </CharString>
          <CharString index="123">
            2 3 4 return
          </CharString>
          <CharString index="124">
            -2 hvcurveto
            endchar
          </CharString>
          <CharString index="125">
            4 vvcurveto
            3 -2 2 -3 2 vhcurveto
            return
          </CharString>
          <CharString index="126">
            12 rrcurveto
            1 1 4 10 1 vvcurveto
            return
          </CharString>
          <CharString index="127">
            1 -49 callsubr
            return
          </CharString>
          <CharString index="128">
            -34 callgsubr
            -2 -2 return
          </CharString>
          <CharString index="129">
            vvcurveto
            -8 callsubr
            return
          </CharString>
          <CharString index="130">
            2 -2 vhcurveto
            return
          </CharString>
          <CharString index="131">
            1 -6 -6 return
          </CharString>
          <CharString index="132">
            -8 rrcurveto
            -1 return
          </CharString>
          <CharString index="133">
            3 rrcurveto
            1 return
          </CharString>
          <CharString index="134">
            -2 -1 -2 return
          </CharString>
          <CharString index="135">
            -3 hhcurveto
            -5 return
          </CharString>
          <CharString index="136">
            -11 2 4 return
          </CharString>
          <CharString index="137">
            rmoveto
            82 43 -22 -21 19 hvcurveto
            1 -3 0 -20 callsubr
            return
          </CharString>
          <CharString index="138">
            3 hhcurveto
            2 return
          </CharString>
          <CharString index="139">
            -2 -2 -2 return
          </CharString>
          <CharString index="140">
            0 1 0 return
          </CharString>
          <CharString index="141">
            37 26 -2 14 hhcurveto
            4 3 2 3 2 hvcurveto
            return
          </CharString>
          <CharString index="142">
            vvcurveto
            -1 -66 callgsubr
            return
          </CharString>
          <CharString index="143">
            -105 -81 -69 -35 -44 hhcurveto
            -6 -6 0 2 return
          </CharString>
        <CharString name=".notdef">
          -253 endchar
        </CharString>
        <CharString name="A">
          -106 callgsubr
          endchar
        </CharString>
        <CharString name="AE">
          426 807 53 rmoveto
          7 -30 34 -26 -20 callgsubr
          -14 -19 2 -24 hhcurveto
          -59 -85 -11 -13 -81 hvcurveto
          -49 -7 -39 -8 -32 -8 36 60 84 121 44 63 71 1 188 13 20 4 23 3 28 9 11 7 rrcurveto
          3 1 1 5 6 vvcurveto
          15 -11 26 -26 5 vhcurveto
          3 -18 -22 2 -25 hhcurveto
          -54 -68 -7 -9 -61 hvcurveto
          48 67 73 94 42 53 121 9 158 7 18 2 20 3 11 8 4 11 3 11 -2 -3 8 8 rrcurveto
          -49 callsubr
          vvcurveto
          3 -6 0 -4 2 vhcurveto
          -1 0 2 7 6 -2 6 -17 0 callsubr
          -27 -37 2 -40 hhcurveto
          -97 -115 -7 -10 -85 hvcurveto
          -2 3 -5 2 -6 1 rrcurveto
          -3 -4 -1 -51 callgsubr
          -1 -7 -3 -10 -6 -32 -5 -24 -5 -11 -4 rrcurveto
          -13 -5 -2 -6 -4 -28 callgsubr
          vvcurveto
          -1 -1 -34 callgsubr
          vhcurveto
          -1 -1 -31 callsubr
          -3 0 -4 1 -4 vhcurveto
          -99 -70 -154 -123 -156 -154 -34 -3 -28 -4 -14 -5 -24 -9 -16 -6 -6 -6 rrcurveto
          -4 -3 -2 -20 -8 vvcurveto
          -9 10 7 3 -9 vhcurveto
          -3 1 6 -1 11 hhcurveto
          20 hlineto
          -32 -34 -32 -36 -32 -37 rrcurveto
          -6 -8 -12 -28 -13 -49 callgsubr
          3 -10 6 -10 5 -11 rrcurveto
          -8 3 1 -10 5 hhcurveto
          7 29 32 17 12 hvcurveto
          4 5 115 117 44 46 55 4 78 3 57 3 -49 -65 -38 -54 -9 -20 rrcurveto
          -2 -3 0 15 callgsubr
          -13 5 -18 9 -14 vhcurveto
          -14 1 10 -18 15 -58 callgsubr
          vhcurveto
          -240 531 rmoveto
          12 17 2 9 52 hvcurveto
          -41 -49 -70 -87 -70 -89 -34 -7 -23 -8 -5 -5 rrcurveto
          -2 -2 -73 callsubr
          -9 18 -8 3 -9 vhcurveto
          -39 callsubr
          -27 -36 rlineto
          4 -23 -29 2 -28 hhcurveto
          -30 -30 -2 -2 -26 hvcurveto
          107 112 67 60 162 131 rrcurveto
          endchar
        </CharString>
        <CharString name="AEacute">
          426 807 53 rmoveto
          7 -30 34 -26 -20 callgsubr
          -14 -19 2 -24 hhcurveto
          -59 -85 -11 -13 -81 hvcurveto
          -49 -7 -39 -8 -32 -8 36 60 84 121 44 63 71 1 188 13 20 4 23 3 28 9 11 7 rrcurveto
          3 1 1 5 6 vvcurveto
          15 -11 26 -26 5 vhcurveto
          3 -18 -22 2 -25 hhcurveto
          -54 -68 -7 -9 -61 hvcurveto
          48 67 73 94 42 53 121 9 158 7 18 2 20 3 11 8 4 11 3 11 -2 -3 8 8 rrcurveto
          -49 callsubr
          vvcurveto
          3 -6 0 -4 2 vhcurveto
          -1 0 2 7 6 -2 6 -17 0 callsubr
          -27 -37 2 -40 hhcurveto
          -97 -115 -7 -10 -85 hvcurveto
          -2 3 -5 2 -6 1 rrcurveto
          -3 -4 -1 -51 callgsubr
          -1 -7 -3 -10 -6 -32 -5 -24 -5 -11 -4 rrcurveto
          -13 -5 -2 -6 -4 -28 callgsubr
          vvcurveto
          -1 -1 -34 callgsubr
          vhcurveto
          -1 -1 -31 callsubr
          -3 0 -4 1 -4 vhcurveto
          -99 -70 -154 -123 -156 -154 -34 -3 -28 -4 -14 -5 -24 -9 -16 -6 -6 -6 rrcurveto
          -4 -3 -2 -20 -8 vvcurveto
          -9 10 7 3 -9 vhcurveto
          -3 1 6 -1 11 hhcurveto
          20 hlineto
          -32 -34 -32 -36 -32 -37 rrcurveto
          -6 -8 -12 -28 -13 -49 callgsubr
          3 -10 6 -10 5 -11 rrcurveto
          -8 3 1 -10 5 hhcurveto
          7 29 32 17 12 hvcurveto
          4 5 115 117 44 46 55 4 78 3 57 3 -49 -65 -38 -54 -9 -20 rrcurveto
          -2 -3 0 15 callgsubr
          -13 5 -18 9 -14 vhcurveto
          -14 1 10 -18 15 -58 callgsubr
          vhcurveto
          -240 531 rmoveto
          12 17 2 9 52 hvcurveto
          -41 -49 -70 -87 -70 -89 -34 -7 -23 -8 -5 -5 rrcurveto
          -2 -2 -73 callsubr
          -9 18 -8 3 -9 vhcurveto
          -39 callsubr
          -27 -36 rlineto
          4 -23 -29 2 -28 hhcurveto
          -30 -30 -2 -2 -26 hvcurveto
          107 112 67 60 162 131 rrcurveto
          410 297 -106 callsubr
        </CharString>
        <CharString name="Aacute">
          -106 callgsubr
          250 198 -106 callsubr
        </CharString>
        <CharString name="Abreve">
          -106 callgsubr
          -20 208 -100 callsubr
        </CharString>
        <CharString name="Acircumflex">
          -106 callgsubr
          103 209 -107 callgsubr
        </CharString>
        <CharString name="Adieresis">
          -106 callgsubr
          80 140 rmoveto
          -105 callgsubr
        </CharString>
        <CharString name="Agrave">
          -106 callgsubr
          -7 162 -101 callgsubr
        </CharString>
        <CharString name="Amacron">
          -106 callgsubr
          239 152 -92 callsubr
        </CharString>
        <CharString name="Aogonek">
          63 537 686 rmoveto
          -6 callsubr
          hhcurveto
          -16 -3 -210 -166 -211 -249 -21 -3 -16 -3 -10 -3 -24 -9 -16 -6 -6 -6 rrcurveto
          -4 -3 -2 -20 -8 vvcurveto
          -9 10 7 3 -9 vhcurveto
          -3 1 6 -1 16 hhcurveto
          -28 -35 -26 -35 -27 -37 rrcurveto
          -6 -8 -12 -28 -13 -49 callgsubr
          3 -10 6 -10 5 -11 rrcurveto
          -8 3 1 -10 5 hhcurveto
          5 31 32 17 12 hvcurveto
          3 6 107 120 35 44 55 5 86 4 54 5 -16 -33 -22 -47 -27 -69 rrcurveto
          -2 -6 -1 -17 -10 vvcurveto
          -12 5 -4 3 -8 vhcurveto
          -2 vlineto
          -95 -44 -64 -54 -69 -90 callsubr
          48 96 65 39 18 hvcurveto
          2 1 2 2 1 2 73 162 41 94 14 28 63 134 95 226 4 18 rrcurveto
          1 -8 callgsubr
          2 vvcurveto
          12 -9 4 -11 6 vhcurveto
          1 -3 -4 4 -6 -1 17 callgsubr
          -3 -4 1 9 callsubr
          0 -1 hvcurveto
          -3 -8 -149 -266 -53 -145 rrcurveto
          4 -21 -25 2 -26 hhcurveto
          -33 -33 -3 -2 -28 hvcurveto
          98 126 51 59 174 167 rrcurveto
          15 15 6 12 11 vvcurveto
          8 -4 7 -10 1 vhcurveto
          endchar
        </CharString>
        <CharString name="Aring">
          -106 callgsubr
          125 266 -85 callgsubr
        </CharString>
        <CharString name="Atilde">
          -106 callgsubr
          226 210 -96 callgsubr
        </CharString>
        <CharString name="B">
          126 442 385 rmoveto
          48 16 41 18 34 18 57 31 45 55 8 46 rrcurveto
          2 7 2 8 10 vvcurveto
          72 -83 19 -70 -143 -165 -62 -19 -30 vhcurveto
          -5 -4 -2 -59 callgsubr
          -3 3 -1 4 -2 vhcurveto
          2 -1 0 -1 -26 callgsubr
          -6 -5 vvcurveto
          -6 4 -12 8 23 callgsubr
          1 vhcurveto
          37 17 39 13 39 10 -57 -77 -187 -233 -32 -47 -35 -52 -48 -61 -20 -30 rrcurveto
          -10 -16 -4 -13 -10 vvcurveto
          -10 3 -8 4 -8 vhcurveto
          -8 4 6 -22 11 hhcurveto
          4 4 5 10 5 hvcurveto
          6 12 11 -1 7 13 6 9 7 10 9 10 rrcurveto
          -1 1 -59 callgsubr
          -1 -6 -1 -13 callgsubr
          -16 6 -15 13 -12 vhcurveto
          -13 14 26 -6 34 hhcurveto
          155 313 127 170 11 -3 12 -3 9 hvcurveto
          -21 54 -49 16 -55 4 rrcurveto
          -299 -252 rmoveto
          4 -3 -4 7 -9 hhcurveto
          -19 -33 -8 -14 -25 hvcurveto
          15 30 78 106 44 57 51 11 51 12 47 14 rrcurveto
          1 14 14 0 13 hhcurveto
          68 54 -11 -13 13 hvcurveto
          0 6 -6 -4 vvcurveto
          -101 -269 -152 -142 -7 -6 0 1 -10 vhcurveto
          -1 -76 callsubr
          11 14 7 43 15 vhcurveto
          8 2 4 7 6 vvcurveto
          5 -3 5 -6 2 vhcurveto
          239 450 rmoveto
          2 4 rlineto
          5 -5 9 -7 6 vhcurveto
          12 63 60 4 45 hhcurveto
          46 31 -4 -3 6 hvcurveto
          7 -4 3 -3 -6 -2 -73 callsubr
          -39 -67 -220 -92 -130 -51 52 72 81 118 6 6 rrcurveto
          endchar
        </CharString>
        <CharString name="C">
          -99 callsubr
          endchar
        </CharString>
        <CharString name="Cacute">
          -99 callsubr
          687 709 -106 callsubr
        </CharString>
        <CharString name="Ccaron">
          -99 callsubr
          528 580 rmoveto
          39 27 124 92 6 16 rrcurveto
          1 1 -1 callgsubr
          vvcurveto
          6 -9 1 -8 vhcurveto
          -4 -5 -1 -4 -2 -4 -45 callsubr
          1 -4 -14 3 -5 hhcurveto
          -17 -58 -66 -33 -51 hvcurveto
          46 -17 12 54 -24 hhcurveto
          -1 -9 -10 -1 -11 hhcurveto
          -7 -21 26 callgsubr
          hvcurveto
          -1 -2 0 -59 callgsubr
          -11 9 -15 6 -33 vhcurveto
          16 -82 -4 6 8 -11 rrcurveto
          -2 1 10 0 1 2 12 -21 callsubr
          14 -41 callsubr
          10 7 4 7 hvcurveto
          endchar
        </CharString>
        <CharString name="Ccedilla">
          105 184 70 rmoveto
          -64 -34 40 48 45 22 63 63 92 hvcurveto
          175 121 217 107 96 hhcurveto
          12 10 -2 -3 8 hvcurveto
          5 -4 rlineto
          1 -2 0 -3 -2 vvcurveto
          -49 -69 -46 -14 -15 vhcurveto
          -5 -5 -3 -5 -4 vvcurveto
          -5 3 -5 5 -3 vhcurveto
          4 -3 1 -20 callsubr
          -1 -1 -5 23 callsubr
          4 -7 -1 3 3 -9 rrcurveto
          -7 2 3 -5 5 hhcurveto
          2 2 0 1 2 hvcurveto
          47 21 55 55 61 vvcurveto
          30 -16 20 -16 15 vhcurveto
          -7 17 -15 12 -27 26 callsubr
          -6 -10 0 -13 hhcurveto
          -78 -194 -27 -224 -191 hvcurveto
          -58 -68 -39 -101 -87 vvcurveto
          -56 16 -50 37 -32 vhcurveto
          12 -16 18 -13 22 -8 -19 -30 -14 -20 -18 -31 -80 callgsubr
          19 32 rlineto
          -2 11 13 -1 13 hhcurveto
          49 55 14 31 54 hvcurveto
          135 78 49 129 1 26 rrcurveto
          5 vlineto
          6 -1 2 32 callsubr
          -4 0 vhcurveto
          31 callgsubr
          4 vvcurveto
          3 -1 2 -18 callgsubr
          -2 -5 -4 -3 -1 4 -3 hhcurveto
          -1 -46 callgsubr
          hvcurveto
          -9 -8 -4 -8 -15 -14 -63 -60 -69 -67 -44 -22 rrcurveto
          -23 -46 -44 -13 -38 hhcurveto
          endchar
        </CharString>
        <CharString name="Ccircumflex">
          -99 callsubr
          540 720 -107 callgsubr
        </CharString>
        <CharString name="Cdotaccent">
          -99 callsubr
          482 651 rmoveto
          -3 -9 -2 -12 callsubr
          -19 15 -8 27 vhcurveto
          1 3 0 1 hhcurveto
          6 6 0 5 13 hvcurveto
          17 8 34 38 7 19 rrcurveto
          1 -8 callgsubr
          3 vvcurveto
          9 -5 10 -10 6 vhcurveto
          6 -7 -9 5 -15 hhcurveto
          -8 -14 -3 -4 -14 hvcurveto
          -20 -6 -18 -32 -6 -19 rrcurveto
          endchar
        </CharString>
        <CharString name="D">
          -86 callsubr
          endchar
        </CharString>
        <CharString name="Dcaron">
          -86 callsubr
          455 613 rmoveto
          39 27 124 92 6 16 rrcurveto
          1 1 -1 callgsubr
          vvcurveto
          6 -9 1 -8 vhcurveto
          -4 -5 -1 -4 -2 -4 -45 callsubr
          1 -4 -14 3 -5 hhcurveto
          -17 -58 -66 -33 -51 hvcurveto
          46 -17 12 54 -24 hhcurveto
          -1 -9 -10 -1 -11 hhcurveto
          -7 -21 26 callgsubr
          hvcurveto
          -1 -2 0 -59 callgsubr
          -11 9 -15 6 -33 vhcurveto
          16 -82 -4 6 8 -11 rrcurveto
          -2 1 10 0 1 2 12 -21 callsubr
          14 -41 callsubr
          10 7 4 7 hvcurveto
          endchar
        </CharString>
        <CharString name="Dcroat">
          -88 callsubr
        </CharString>
        <CharString name="E">
          100 481 53 rmoveto
          7 -30 34 -26 -20 callgsubr
          -14 -19 2 -24 hhcurveto
          -59 -85 -11 -13 -81 hvcurveto
          -49 -7 -39 -8 -32 -8 36 60 84 121 44 63 71 1 188 13 20 4 23 3 28 9 11 7 rrcurveto
          3 1 1 5 6 vvcurveto
          15 -11 26 -26 5 vhcurveto
          3 -18 -22 2 -25 hhcurveto
          -54 -68 -7 -9 -61 hvcurveto
          46 64 69 89 42 54 99 13 205 9 19 3 20 3 11 8 4 11 3 11 -2 -3 8 8 rrcurveto
          -49 callsubr
          vvcurveto
          3 -6 0 -4 2 vhcurveto
          -1 0 2 7 6 -2 6 -17 0 callsubr
          -27 -37 2 -40 hhcurveto
          -131 -173 -19 -17 -35 hvcurveto
          -11 -5 -2 -6 -4 -28 callgsubr
          vvcurveto
          17 callgsubr
          -2 -1 vhcurveto
          -1 -1 -31 callsubr
          -10 4 -17 5 -1 vhcurveto
          9 -3 -4 -6 9 -2 8 -4 rcurveline
          -42 -50 -65 -81 -66 -84 -34 -7 -23 -8 -5 -5 rrcurveto
          -2 -2 -73 callsubr
          -9 18 -8 3 -9 vhcurveto
          -39 callsubr
          -85 -111 -77 -103 -14 -31 rrcurveto
          -2 -3 0 15 callgsubr
          -13 5 -18 9 -14 vhcurveto
          -14 2 10 -18 14 -58 callgsubr
          vhcurveto
          endchar
        </CharString>
        <CharString name="Eacute">
          100 481 53 rmoveto
          7 -30 34 -26 -20 callgsubr
          -14 -19 2 -24 hhcurveto
          -59 -85 -11 -13 -81 hvcurveto
          -49 -7 -39 -8 -32 -8 36 60 84 121 44 63 71 1 188 13 20 4 23 3 28 9 11 7 rrcurveto
          3 1 1 5 6 vvcurveto
          15 -11 26 -26 5 vhcurveto
          3 -18 -22 2 -25 hhcurveto
          -54 -68 -7 -9 -61 hvcurveto
          46 64 69 89 42 54 99 13 205 9 19 3 20 3 11 8 4 11 3 11 -2 -3 8 8 rrcurveto
          -49 callsubr
          vvcurveto
          3 -6 0 -4 2 vhcurveto
          -1 0 2 7 6 -2 6 -17 0 callsubr
          -27 -37 2 -40 hhcurveto
          -131 -173 -19 -17 -35 hvcurveto
          -11 -5 -2 -6 -4 -28 callgsubr
          vvcurveto
          17 callgsubr
          -2 -1 vhcurveto
          -1 -1 -31 callsubr
          -10 4 -17 5 -1 vhcurveto
          9 -3 -4 -6 9 -2 8 -4 rcurveline
          -42 -50 -65 -81 -66 -84 -34 -7 -23 -8 -5 -5 rrcurveto
          -2 -2 -73 callsubr
          -9 18 -8 3 -9 vhcurveto
          -39 callsubr
          -85 -111 -77 -103 -14 -31 rrcurveto
          -2 -3 0 15 callgsubr
          -13 5 -18 9 -14 vhcurveto
          -14 2 10 -18 14 -58 callgsubr
          vhcurveto
          285 829 -106 callsubr
        </CharString>
        <CharString name="Ebreve">
          100 481 53 rmoveto
          7 -30 34 -26 -20 callgsubr
          -14 -19 2 -24 hhcurveto
          -59 -85 -11 -13 -81 hvcurveto
          -49 -7 -39 -8 -32 -8 36 60 84 121 44 63 71 1 188 13 20 4 23 3 28 9 11 7 rrcurveto
          3 1 1 5 6 vvcurveto
          15 -11 26 -26 5 vhcurveto
          3 -18 -22 2 -25 hhcurveto
          -54 -68 -7 -9 -61 hvcurveto
          46 64 69 89 42 54 99 13 205 9 19 3 20 3 11 8 4 11 3 11 -2 -3 8 8 rrcurveto
          -49 callsubr
          vvcurveto
          3 -6 0 -4 2 vhcurveto
          -1 0 2 7 6 -2 6 -17 0 callsubr
          -27 -37 2 -40 hhcurveto
          -131 -173 -19 -17 -35 hvcurveto
          -11 -5 -2 -6 -4 -28 callgsubr
          vvcurveto
          17 callgsubr
          -2 -1 vhcurveto
          -1 -1 -31 callsubr
          -10 4 -17 5 -1 vhcurveto
          9 -3 -4 -6 9 -2 8 -4 rcurveline
          -42 -50 -65 -81 -66 -84 -34 -7 -23 -8 -5 -5 rrcurveto
          -2 -2 -73 callsubr
          -9 18 -8 3 -9 vhcurveto
          -39 callsubr
          -85 -111 -77 -103 -14 -31 rrcurveto
          -2 -3 0 15 callgsubr
          -13 5 -18 9 -14 vhcurveto
          -14 2 10 -18 14 -58 callgsubr
          vhcurveto
          15 839 -100 callsubr
        </CharString>
        <CharString name="Ecaron">
          100 481 53 rmoveto
          7 -30 34 -26 -20 callgsubr
          -14 -19 2 -24 hhcurveto
          -59 -85 -11 -13 -81 hvcurveto
          -49 -7 -39 -8 -32 -8 36 60 84 121 44 63 71 1 188 13 20 4 23 3 28 9 11 7 rrcurveto
          3 1 1 5 6 vvcurveto
          15 -11 26 -26 5 vhcurveto
          3 -18 -22 2 -25 hhcurveto
          -54 -68 -7 -9 -61 hvcurveto
          46 64 69 89 42 54 99 13 205 9 19 3 20 3 11 8 4 11 3 11 -2 -3 8 8 rrcurveto
          -49 callsubr
          vvcurveto
          3 -6 0 -4 2 vhcurveto
          -1 0 2 7 6 -2 6 -17 0 callsubr
          -27 -37 2 -40 hhcurveto
          -131 -173 -19 -17 -35 hvcurveto
          -11 -5 -2 -6 -4 -28 callgsubr
          vvcurveto
          17 callgsubr
          -2 -1 vhcurveto
          -1 -1 -31 callsubr
          -10 4 -17 5 -1 vhcurveto
          9 -3 -4 -6 9 -2 8 -4 rcurveline
          -42 -50 -65 -81 -66 -84 -34 -7 -23 -8 -5 -5 rrcurveto
          -2 -2 -73 callsubr
          -9 18 -8 3 -9 vhcurveto
          -39 callsubr
          -85 -111 -77 -103 -14 -31 rrcurveto
          -2 -3 0 15 callgsubr
          -13 5 -18 9 -14 vhcurveto
          -14 2 10 -18 14 -58 callgsubr
          vhcurveto
          126 700 rmoveto
          39 27 124 92 6 16 rrcurveto
          1 1 -1 callgsubr
          vvcurveto
          6 -9 1 -8 vhcurveto
          -4 -5 -1 -4 -2 -4 -45 callsubr
          1 -4 -14 3 -5 hhcurveto
          -17 -58 -66 -33 -51 hvcurveto
          46 -17 12 54 -24 hhcurveto
          -1 -9 -10 -1 -11 hhcurveto
          -7 -21 26 callgsubr
          hvcurveto
          -1 -2 0 -59 callgsubr
          -11 9 -15 6 -33 vhcurveto
          16 -82 -4 6 8 -11 rrcurveto
          -2 1 10 0 1 2 12 -21 callsubr
          14 -41 callsubr
          10 7 4 7 hvcurveto
          endchar
        </CharString>
        <CharString name="Ecircumflex">
          100 481 53 rmoveto
          7 -30 34 -26 -20 callgsubr
          -14 -19 2 -24 hhcurveto
          -59 -85 -11 -13 -81 hvcurveto
          -49 -7 -39 -8 -32 -8 36 60 84 121 44 63 71 1 188 13 20 4 23 3 28 9 11 7 rrcurveto
          3 1 1 5 6 vvcurveto
          15 -11 26 -26 5 vhcurveto
          3 -18 -22 2 -25 hhcurveto
          -54 -68 -7 -9 -61 hvcurveto
          46 64 69 89 42 54 99 13 205 9 19 3 20 3 11 8 4 11 3 11 -2 -3 8 8 rrcurveto
          -49 callsubr
          vvcurveto
          3 -6 0 -4 2 vhcurveto
          -1 0 2 7 6 -2 6 -17 0 callsubr
          -27 -37 2 -40 hhcurveto
          -131 -173 -19 -17 -35 hvcurveto
          -11 -5 -2 -6 -4 -28 callgsubr
          vvcurveto
          17 callgsubr
          -2 -1 vhcurveto
          -1 -1 -31 callsubr
          -10 4 -17 5 -1 vhcurveto
          9 -3 -4 -6 9 -2 8 -4 rcurveline
          -42 -50 -65 -81 -66 -84 -34 -7 -23 -8 -5 -5 rrcurveto
          -2 -2 -73 callsubr
          -9 18 -8 3 -9 vhcurveto
          -39 callsubr
          -85 -111 -77 -103 -14 -31 rrcurveto
          -2 -3 0 15 callgsubr
          -13 5 -18 9 -14 vhcurveto
          -14 2 10 -18 14 -58 callgsubr
          vhcurveto
          138 840 -107 callgsubr
        </CharString>
        <CharString name="Edieresis">
          100 481 53 rmoveto
          7 -30 34 -26 -20 callgsubr
          -14 -19 2 -24 hhcurveto
          -59 -85 -11 -13 -81 hvcurveto
          -49 -7 -39 -8 -32 -8 36 60 84 121 44 63 71 1 188 13 20 4 23 3 28 9 11 7 rrcurveto
          3 1 1 5 6 vvcurveto
          15 -11 26 -26 5 vhcurveto
          3 -18 -22 2 -25 hhcurveto
          -54 -68 -7 -9 -61 hvcurveto
          46 64 69 89 42 54 99 13 205 9 19 3 20 3 11 8 4 11 3 11 -2 -3 8 8 rrcurveto
          -49 callsubr
          vvcurveto
          3 -6 0 -4 2 vhcurveto
          -1 0 2 7 6 -2 6 -17 0 callsubr
          -27 -37 2 -40 hhcurveto
          -131 -173 -19 -17 -35 hvcurveto
          -11 -5 -2 -6 -4 -28 callgsubr
          vvcurveto
          17 callgsubr
          -2 -1 vhcurveto
          -1 -1 -31 callsubr
          -10 4 -17 5 -1 vhcurveto
          9 -3 -4 -6 9 -2 8 -4 rcurveline
          -42 -50 -65 -81 -66 -84 -34 -7 -23 -8 -5 -5 rrcurveto
          -2 -2 -73 callsubr
          -9 18 -8 3 -9 vhcurveto
          -39 callsubr
          -85 -111 -77 -103 -14 -31 rrcurveto
          -2 -3 0 15 callgsubr
          -13 5 -18 9 -14 vhcurveto
          -14 2 10 -18 14 -58 callgsubr
          vhcurveto
          115 771 rmoveto
          -105 callgsubr
        </CharString>
        <CharString name="Edotaccent">
          100 481 53 rmoveto
          7 -30 34 -26 -20 callgsubr
          -14 -19 2 -24 hhcurveto
          -59 -85 -11 -13 -81 hvcurveto
          -49 -7 -39 -8 -32 -8 36 60 84 121 44 63 71 1 188 13 20 4 23 3 28 9 11 7 rrcurveto
          3 1 1 5 6 vvcurveto
          15 -11 26 -26 5 vhcurveto
          3 -18 -22 2 -25 hhcurveto
          -54 -68 -7 -9 -61 hvcurveto
          46 64 69 89 42 54 99 13 205 9 19 3 20 3 11 8 4 11 3 11 -2 -3 8 8 rrcurveto
          -49 callsubr
          vvcurveto
          3 -6 0 -4 2 vhcurveto
          -1 0 2 7 6 -2 6 -17 0 callsubr
          -27 -37 2 -40 hhcurveto
          -131 -173 -19 -17 -35 hvcurveto
          -11 -5 -2 -6 -4 -28 callgsubr
          vvcurveto
          17 callgsubr
          -2 -1 vhcurveto
          -1 -1 -31 callsubr
          -10 4 -17 5 -1 vhcurveto
          9 -3 -4 -6 9 -2 8 -4 rcurveline
          -42 -50 -65 -81 -66 -84 -34 -7 -23 -8 -5 -5 rrcurveto
          -2 -2 -73 callsubr
          -9 18 -8 3 -9 vhcurveto
          -39 callsubr
          -85 -111 -77 -103 -14 -31 rrcurveto
          -2 -3 0 15 callgsubr
          -13 5 -18 9 -14 vhcurveto
          -14 2 10 -18 14 -58 callgsubr
          vhcurveto
          80 771 rmoveto
          -3 -9 -2 -12 callsubr
          -19 15 -8 27 vhcurveto
          1 3 0 1 hhcurveto
          6 6 0 5 13 hvcurveto
          17 8 34 38 7 19 rrcurveto
          1 -8 callgsubr
          3 vvcurveto
          9 -5 10 -10 6 vhcurveto
          6 -7 -9 5 -15 hhcurveto
          -8 -14 -3 -4 -14 hvcurveto
          -20 -6 -18 -32 -6 -19 rrcurveto
          endchar
        </CharString>
        <CharString name="Egrave">
          100 481 53 rmoveto
          7 -30 34 -26 -20 callgsubr
          -14 -19 2 -24 hhcurveto
          -59 -85 -11 -13 -81 hvcurveto
          -49 -7 -39 -8 -32 -8 36 60 84 121 44 63 71 1 188 13 20 4 23 3 28 9 11 7 rrcurveto
          3 1 1 5 6 vvcurveto
          15 -11 26 -26 5 vhcurveto
          3 -18 -22 2 -25 hhcurveto
          -54 -68 -7 -9 -61 hvcurveto
          46 64 69 89 42 54 99 13 205 9 19 3 20 3 11 8 4 11 3 11 -2 -3 8 8 rrcurveto
          -49 callsubr
          vvcurveto
          3 -6 0 -4 2 vhcurveto
          -1 0 2 7 6 -2 6 -17 0 callsubr
          -27 -37 2 -40 hhcurveto
          -131 -173 -19 -17 -35 hvcurveto
          -11 -5 -2 -6 -4 -28 callgsubr
          vvcurveto
          17 callgsubr
          -2 -1 vhcurveto
          -1 -1 -31 callsubr
          -10 4 -17 5 -1 vhcurveto
          9 -3 -4 -6 9 -2 8 -4 rcurveline
          -42 -50 -65 -81 -66 -84 -34 -7 -23 -8 -5 -5 rrcurveto
          -2 -2 -73 callsubr
          -9 18 -8 3 -9 vhcurveto
          -39 callsubr
          -85 -111 -77 -103 -14 -31 rrcurveto
          -2 -3 0 15 callgsubr
          -13 5 -18 9 -14 vhcurveto
          -14 2 10 -18 14 -58 callgsubr
          vhcurveto
          28 793 -101 callgsubr
        </CharString>
        <CharString name="Emacron">
          100 481 53 rmoveto
          7 -30 34 -26 -20 callgsubr
          -14 -19 2 -24 hhcurveto
          -59 -85 -11 -13 -81 hvcurveto
          -49 -7 -39 -8 -32 -8 36 60 84 121 44 63 71 1 188 13 20 4 23 3 28 9 11 7 rrcurveto
          3 1 1 5 6 vvcurveto
          15 -11 26 -26 5 vhcurveto
          3 -18 -22 2 -25 hhcurveto
          -54 -68 -7 -9 -61 hvcurveto
          46 64 69 89 42 54 99 13 205 9 19 3 20 3 11 8 4 11 3 11 -2 -3 8 8 rrcurveto
          -49 callsubr
          vvcurveto
          3 -6 0 -4 2 vhcurveto
          -1 0 2 7 6 -2 6 -17 0 callsubr
          -27 -37 2 -40 hhcurveto
          -131 -173 -19 -17 -35 hvcurveto
          -11 -5 -2 -6 -4 -28 callgsubr
          vvcurveto
          17 callgsubr
          -2 -1 vhcurveto
          -1 -1 -31 callsubr
          -10 4 -17 5 -1 vhcurveto
          9 -3 -4 -6 9 -2 8 -4 rcurveline
          -42 -50 -65 -81 -66 -84 -34 -7 -23 -8 -5 -5 rrcurveto
          -2 -2 -73 callsubr
          -9 18 -8 3 -9 vhcurveto
          -39 callsubr
          -85 -111 -77 -103 -14 -31 rrcurveto
          -2 -3 0 15 callgsubr
          -13 5 -18 9 -14 vhcurveto
          -14 2 10 -18 14 -58 callgsubr
          vhcurveto
          274 783 -92 callsubr
        </CharString>
        <CharString name="Eng">
          196 62 -189 rmoveto
          -3 -1 0 1 -2 hvcurveto
          4 vlineto
          45 39 60 8 vhcurveto
          5 2 -7 6 hhcurveto
          10 3 21 10 9 -3 36 -16 hvcurveto
          -73 -17 -49 -86 -52 vvcurveto
          -36 11 -34 19 -16 vhcurveto
          -25 13 14 -11 7 hhcurveto
          130 199 305 78 61 hvcurveto
          154 198 191 261 15 48 rrcurveto
          5 16 2 5 callgsubr
          2 0 0 callgsubr
          vhcurveto
          0 -3 8 6 vvcurveto
          8 -3 -3 2 -4 -3 -7 -7 -2 hhcurveto
          -1 0 1 3 3 -1 3 -3 -8 -7 0 -15 -7 hvcurveto
          -6 -15 -70 -98 -59 -81 -50 -70 -116 -161 -44 -59 4 59 -4 109 6 74 8 87 3 164 1 23 rrcurveto
          9 -4 4 -4 -3 -3 -26 callgsubr
          vhcurveto
          -6 -9 3 3 -8 -3 -7 -3 1 -2 -5 -7 rrcurveto
          -2 -1 3 6 -2 hvcurveto
          3 -1 -4 1 28 callsubr
          -4 32 callsubr
          hvcurveto
          -2 -3 -3 -4 -3 -6 -3 -2 -2 -4 -3 -4 -9 -12 -42 -56 -109 -136 -109 -135 -143 -199 -39 -101 rrcurveto
          -7 1 2 -16 11 hhcurveto
          2 5 1 -3 2 hvcurveto
          3 -6 -2 -4 15 -3 rrcurveto
          -2 7 3 -2 2 hhcurveto
          2 1 3 7 3 hvcurveto
          12 27 33 44 32 56 27 46 139 214 44 65 87 125 rcurveline
          -5 -64 -4 -115 -6 -89 rrcurveto
          -4 -59 -3 -65 -53 vvcurveto
          -23 0 -20 2 -17 vhcurveto
          -130 -94 -98 -113 -57 hhcurveto
          endchar
        </CharString>
        <CharString name="Eogonek">
          100 481 53 rmoveto
          7 -30 34 -26 -20 callgsubr
          -14 -19 2 -24 hhcurveto
          -59 -85 -11 -13 -81 hvcurveto
          -49 -7 -39 -8 -32 -8 36 60 84 121 44 63 71 1 188 13 20 4 23 3 28 9 11 7 rrcurveto
          3 1 1 5 6 vvcurveto
          15 -11 26 -26 5 vhcurveto
          3 -18 -22 2 -25 hhcurveto
          -54 -68 -7 -9 -61 hvcurveto
          46 64 69 89 42 54 99 13 205 9 19 3 20 3 11 8 4 11 3 11 -2 -3 8 8 rrcurveto
          -49 callsubr
          vvcurveto
          3 -6 0 -4 2 vhcurveto
          -1 0 2 7 6 -2 6 -17 0 callsubr
          -27 -37 2 -40 hhcurveto
          -131 -173 -19 -17 -35 hvcurveto
          -11 -5 -2 -6 -4 -28 callgsubr
          vvcurveto
          17 callgsubr
          -2 -1 vhcurveto
          -1 -1 -31 callsubr
          -10 4 -17 5 -1 vhcurveto
          9 -3 -4 -6 9 -2 8 -4 rcurveline
          -42 -50 -65 -81 -66 -84 -34 -7 -23 -8 -5 -5 rrcurveto
          -2 -2 -73 callsubr
          -9 18 -8 3 -9 vhcurveto
          -39 callsubr
          -85 -111 -77 -103 -14 -31 rrcurveto
          -2 -3 0 15 callgsubr
          -13 5 -18 9 -14 vhcurveto
          -14 2 10 -18 14 hhcurveto
          -33 callsubr
          2 hvcurveto
          13 46 226 25 104 hhcurveto
          16 20 0 -1 9 hvcurveto
          -84 -33 -89 -55 -72 -90 callsubr
          44 97 63 63 15 hvcurveto
          18 4 3 2 9 7 rrcurveto
          -79 callgsubr
          vhcurveto
          endchar
        </CharString>
        <CharString name="Eth">
          -88 callsubr
        </CharString>
        <CharString name="Euro">
          85 322 373 rmoveto
          34 callsubr
          3 5 1 7 7 vvcurveto
          16 -6 18 -9 1 vhcurveto
          1 -19 -18 0 -18 hhcurveto
          -33 -30 -1 -2 -27 hvcurveto
          154 140 139 26 25 hhcurveto
          37 19 -12 -18 -73 -140 -43 21 2 hvcurveto
          0 15 -15 7 10 113 34 74 42 vhcurveto
          9 16 5 16 16 vvcurveto
          38 -40 40 -64 -135 -177 -110 -154 -125 vhcurveto
          -76 -11 -42 -15 -4 -7 20 callgsubr
          -4 5 -1 -3 vvcurveto
          -6 -9 -5 30 callgsubr
          1 4 1 0 vhcurveto
          26 4 27 3 28 2 -11 -16 -11 -16 -10 -17 -52 -8 -38 -8 -4 -7 rrcurveto
          -3 -5 -4 -17 -8 vvcurveto
          -2 1 4 callsubr
          1 2 1 1 hhcurveto
          19 3 24 2 26 2 rrcurveto
          -29 -59 -11 -46 -35 vvcurveto
          -31 9 -23 14 -16 vhcurveto
          -26 12 30 -36 75 hhcurveto
          187 140 199 11 11 hvcurveto
          8 12 -1 callgsubr
          vvcurveto
          2 -5 4 -6 -15 -12 -12 -13 -15 vhcurveto
          -25 -27 -133 -104 -101 hhcurveto
          -80 -4 25 11 -9 hvcurveto
          -2 7 -1 8 9 vvcurveto
          31 12 44 36 63 vhcurveto
          1 vlineto
          1 32 34 0 33 32 16 -3 15 hhcurveto
          4 3 2 3 1 hvcurveto
          8 13 3 11 8 vvcurveto
          21 -11 4 -24 -35 -39 -2 -3 -38 vhcurveto
          31 44 rlineto
          2 43 41 0 34 hhcurveto
          endchar
        </CharString>
        <CharString name="F">
          52 510 379 rmoveto
          -5 1 -3 1 3 vvcurveto
          1 4 rlineto
          8 -12 -25 9 -41 hhcurveto
          -54 -57 -8 -8 -52 hvcurveto
          42 58 69 103 40 49 rrcurveto
          7 71 100 7 70 16 27 -2 13 hhcurveto
          5 33 callsubr
          4 2 0 4 2 hvcurveto
          4 1 7 2 7 vvcurveto
          2 1 2 3 3 vhcurveto
          5 4 4 12 12 vvcurveto
          10 -3 9 -6 6 vhcurveto
          5 -5 9 3 -68 hhcurveto
          -117 -82 -10 -12 -70 hvcurveto
          2 -4 -4 2 -4 hhcurveto
          -7 -7 -3 -7 -7 hvcurveto
          -42 -8 -35 -10 -16 -9 rrcurveto
          -7 -5 -8 -12 callsubr
          -8 13 -15 8 4 7 -6 -3 14 vhcurveto
          -58 -75 -87 -113 -23 -36 -32 -8 -21 -6 -5 -3 -5 -3 -2 -1 -4 -7 rrcurveto
          -3 -4 -8 -4 -6 vvcurveto
          -9 10 -15 6 -4 vhcurveto
          1 -2 4 -1 7 -1 -54 -72 -81 -106 -33 -71 rrcurveto
          -3 -5 -1 -5 callsubr
          -11 5 -11 9 -4 vhcurveto
          4 -2 3 -3 -3 vvcurveto
          -14 1 -5 4 -2 vhcurveto
          9 -6 6 6 6 -8 rrcurveto
          -4 3 1 -8 3 hhcurveto
          3 4 5 19 10 hvcurveto
          11 21 125 199 68 101 rrcurveto
          7 60 129 15 81 3 4 -68 callsubr
          8 7 2 5 4 hvcurveto
          6 8 0 -10 9 13 rrcurveto
          5 7 1 10 10 7 -1 5 callgsubr
          endchar
        </CharString>
        <CharString name="G">
          -100 callgsubr
          endchar
        </CharString>
        <CharString name="Gbreve">
          -100 callgsubr
          -46 647 -100 callsubr
        </CharString>
        <CharString name="Gcircumflex">
          -100 callgsubr
          77 648 -107 callgsubr
        </CharString>
        <CharString name="Gcommaaccent">
          -100 callgsubr
          -352 -365 -102 callsubr
        </CharString>
        <CharString name="Gdotaccent">
          -100 callgsubr
          19 579 rmoveto
          -3 -9 -2 -12 callsubr
          -19 15 -8 27 vhcurveto
          1 3 0 1 hhcurveto
          6 6 0 5 13 hvcurveto
          17 8 34 38 7 19 rrcurveto
          1 -8 callgsubr
          3 vvcurveto
          9 -5 10 -10 6 vhcurveto
          6 -7 -9 5 -15 hhcurveto
          -8 -14 -3 -4 -14 hvcurveto
          -20 -6 -18 -32 -6 -19 rrcurveto
          endchar
        </CharString>
        <CharString name="H">
          174 439 660 rmoveto
          12 -1 -10 9 -9 11 callgsubr
          hhcurveto
          -16 -5 -173 -201 -82 -113 -89 callgsubr
          37 50 97 121 15 22 rrcurveto
          -17 callgsubr
          22 -10 -3 9 -8 hhcurveto
          -3 -3 -1 -2 -4 hvcurveto
          -19 -8 -152 -193 -62 -91 -111 -6 -97 -11 -63 -7 63 79 100 135 9 16 -24 callgsubr
          endchar
        </CharString>
        <CharString name="Hbar">
          174 799 664 rmoveto
          22 -10 -3 9 -8 hhcurveto
          -3 -3 -1 -2 -4 hvcurveto
          -10 -4 -52 -61 -54 -69 -107 -2 -82 -4 -69 -5 23 30 16 23 3 6 -24 callgsubr
          12 -1 -10 9 -9 11 callgsubr
          hhcurveto
          -9 -3 -60 -65 -64 -77 rrcurveto
          -104 -14 -42 -16 -56 callgsubr
          14 40 3 4 51 hvcurveto
          -32 -39 -29 -37 -23 -32 -89 callgsubr
          16 22 29 37 28 36 rrcurveto
          52 -77 callsubr
          7 4 -33 1 -44 hhcurveto
          24 32 rlineto
          -17 callgsubr
          -231 -171 rmoveto
          34 hlineto
          -26 -35 -24 -33 -17 -25 -111 -6 -97 -11 -63 -7 24 30 29 37 27 37 rrcurveto
          7 83 86 6 55 hhcurveto
          endchar
        </CharString>
        <CharString name="Hcircumflex">
          174 439 660 rmoveto
          12 -1 -10 9 -9 11 callgsubr
          hhcurveto
          -16 -5 -173 -201 -82 -113 -89 callgsubr
          37 50 97 121 15 22 rrcurveto
          -17 callgsubr
          22 -10 -3 9 -8 hhcurveto
          -3 -3 -1 -2 -4 hvcurveto
          -19 -8 -152 -193 -62 -91 -111 -6 -97 -11 -63 -7 63 79 100 135 9 16 -24 callgsubr
          210 221 -107 callgsubr
        </CharString>
        <CharString name="I">
          -204 -96 callsubr
          endchar
        </CharString>
        <CharString name="IJ">
          303 -96 callsubr
          113 -278 -85 callsubr
          endchar
        </CharString>
        <CharString name="Iacute">
          -204 -96 callsubr
          332 426 -106 callsubr
        </CharString>
        <CharString name="Ibreve">
          -204 -96 callsubr
          62 436 -100 callsubr
        </CharString>
        <CharString name="Icircumflex">
          -204 -96 callsubr
          185 437 -107 callgsubr
        </CharString>
        <CharString name="Idieresis">
          -204 -96 callsubr
          162 368 rmoveto
          -105 callgsubr
        </CharString>
        <CharString name="Idotaccent">
          -204 -96 callsubr
          127 368 rmoveto
          -3 -9 -2 -12 callsubr
          -19 15 -8 27 vhcurveto
          1 3 0 1 hhcurveto
          6 6 0 5 13 hvcurveto
          17 8 34 38 7 19 rrcurveto
          1 -8 callgsubr
          3 vvcurveto
          9 -5 10 -10 6 vhcurveto
          6 -7 -9 5 -15 hhcurveto
          -8 -14 -3 -4 -14 hvcurveto
          -20 -6 -18 -32 -6 -19 rrcurveto
          endchar
        </CharString>
        <CharString name="Igrave">
          -204 -96 callsubr
          75 390 -101 callgsubr
        </CharString>
        <CharString name="Imacron">
          -204 -96 callsubr
          321 380 -92 callsubr
        </CharString>
        <CharString name="Iogonek">
          -204 -89 callsubr
          -8 4 -13 3 -10 vhcurveto
          -75 -33 -75 -49 -66 -90 callsubr
          48 69 34 41 16 hvcurveto
          2 2 1 2 2 -78 callgsubr
          endchar
        </CharString>
        <CharString name="Itilde">
          -204 -96 callsubr
          308 438 -96 callgsubr
        </CharString>
        <CharString name="J">
          4 105 152 -85 callsubr
          endchar
        </CharString>
        <CharString name="Jcircumflex">
          4 105 152 -85 callsubr
          544 734 -107 callgsubr
        </CharString>
        <CharString name="K">
          -83 callgsubr
          endchar
        </CharString>
        <CharString name="Kcommaaccent">
          -83 callgsubr
          -230 -733 -102 callsubr
        </CharString>
        <CharString name="L">
          -97 callgsubr
          endchar
        </CharString>
        <CharString name="Lacute">
          -97 callgsubr
          188 794 -106 callsubr
        </CharString>
        <CharString name="Lcaron">
          -97 callgsubr
          213 543 -102 callsubr
        </CharString>
        <CharString name="Lcommaaccent">
          -97 callgsubr
          -314 -204 -102 callsubr
        </CharString>
        <CharString name="Ldot">
          -97 callgsubr
          -7 231 rmoveto
          -93 callsubr
          endchar
        </CharString>
        <CharString name="Lslash">
          47 451 691 rmoveto
          -10 -2 0 4 -6 hvcurveto
          2 -5 -4 0 -3 -6 -5 4 -7 hhcurveto
          -6 -11 -2 -8 -18 hvcurveto
          -13 -11 -70 -88 -65 -95 -28 -41 -51 -71 -50 -72 rrcurveto
          -103 -44 -59 -32 0 vvcurveto
          0 0 -1 0 vhcurveto
          -8 15 0 -2 vvcurveto
          -1 -5 -13 -8 -2 -6 rrcurveto
          -1 -2 0 -3 -4 vvcurveto
          -7 2 -9 10 vhcurveto
          0 -62 callgsubr
          vhcurveto
          7 2 37 16 42 17 -36 -56 -28 -45 -2 -15 rrcurveto
          -1 -4 0 -3 -3 vvcurveto
          -6 1 -5 1 -4 vhcurveto
          -35 -7 rlineto
          -11 -2 -2 -9 -11 -9 1 -8 -14 vvcurveto
          -12 1 -15 12 -7 vhcurveto
          -1 2 6 -1 8 hhcurveto
          24 44 5 11 43 hvcurveto
          15 56 281 47 15 hhcurveto
          13 2 5 3 23 hvcurveto
          15 -54 callsubr
          3 vvcurveto
          1 -2 2 -2 3 vhcurveto
          -2 0 callgsubr
          1 vvcurveto
          4 4 2 6 4 vhcurveto
          2 -38 callsubr
          7 -10 13 -8 6 vhcurveto
          -9 9 -7 3 -39 26 callsubr
          -8 -8 0 -9 hhcurveto
          -82 -143 -26 -21 -103 hvcurveto
          14 40 38 62 49 70 63 24 56 20 69 26 21 12 2 5 1 3 rrcurveto
          5 vlineto
          3 20 8 7 1 2 -65 callsubr
          -1 1 rrcurveto
          -2 2 0 0 3 10 4 5 callgsubr
          6 -124 -51 -32 -12 vhcurveto
          86 114 95 118 53 67 rrcurveto
          9 11 3 7 5 vvcurveto
          6 -6 2 -4 vhcurveto
          endchar
        </CharString>
        <CharString name="M">
          350 444 646 rmoveto
          1 10 rlineto
          8 -5 -3 -2 3 vhcurveto
          2 -3 -4 6 -3 hhcurveto
          -1 27 callsubr
          -1 hvcurveto
          -4 -8 -10 3 -9 vvcurveto
          -3 -3 16 -6 hhcurveto
          -4 -3 -4 -5 -3 hvcurveto
          1 -2 -2 -45 callsubr
          -4 -5 -3 -9 -8 hvcurveto
          -45 -46 -155 -189 -66 -92 -66 -91 -93 -114 -18 -67 rrcurveto
          -3 -9 0 -3 -2 -3 1 -1 -8 -14 10 -3 -17 vvcurveto
          -6 4 -3 5 5 7 3 5 4 vhcurveto
          8 10 10 13 50 81 44 72 202 295 68 93 rrcurveto
          -62 -163 -66 -303 -26 vvcurveto
          -20 0 -19 8 -5 vhcurveto
          -19 3 3 -4 -28 callsubr
          5 3 hhcurveto
          4 -2 rlineto
          -4 1 3 -3 4 27 callgsubr
          1 hhcurveto
          1 2 -21 callsubr
          hvcurveto
          16 13 129 122 389 452 87 53 rlinecurve
          -55 callsubr
          -2 vvcurveto
          -36 -166 -198 -50 -84 vhcurveto
          -58 -96 -109 -128 -13 -28 rrcurveto
          -6 -13 -3 -6 -5 vvcurveto
          -6 5 -3 7 -7 vhcurveto
          -11 10 1 -20 20 hhcurveto
          11 11 3 5 5 hvcurveto
          56 61 126 207 22 32 84 123 145 225 8 13 rrcurveto
          2 3 -15 callsubr
          3 -1 2 -4 2 vhcurveto
          1 -3 -2 1 -2 -4 -3 -2 -3 -5 -2 7 -5 -4 -2 -5 -5 hhcurveto
          -4 -4 2 4 -5 hvcurveto
          4 -6 -4 3 -5 hhcurveto
          -4 -3 -2 -3 -4 hvcurveto
          -12 -6 -2 2 -6 -1 rrcurveto
          -5 22 callgsubr
          -4 -3 -1 1 -10 -6 -28 -16 -367 -352 -157 -162 32 132 97 353 5 19 rrcurveto
          endchar
        </CharString>
        <CharString name="N">
          -101 callsubr
          endchar
        </CharString>
        <CharString name="Nacute">
          -101 callsubr
          -10 221 -106 callsubr
        </CharString>
        <CharString name="Ncaron">
          -101 callsubr
          -169 92 rmoveto
          39 27 124 92 6 16 rrcurveto
          1 1 -1 callgsubr
          vvcurveto
          6 -9 1 -8 vhcurveto
          -4 -5 -1 -4 -2 -4 -45 callsubr
          1 -4 -14 3 -5 hhcurveto
          -17 -58 -66 -33 -51 hvcurveto
          46 -17 12 54 -24 hhcurveto
          -1 -9 -10 -1 -11 hhcurveto
          -7 -21 26 callgsubr
          hvcurveto
          -1 -2 0 -59 callgsubr
          -11 9 -15 6 -33 vhcurveto
          16 -82 -4 6 8 -11 rrcurveto
          -2 1 10 0 1 2 12 -21 callsubr
          14 -41 callsubr
          10 7 4 7 hvcurveto
          endchar
        </CharString>
        <CharString name="Ncommaaccent">
          -101 callsubr
          -629 -747 -102 callsubr
        </CharString>
        <CharString name="Ntilde">
          -101 callsubr
          -34 233 -96 callgsubr
        </CharString>
        <CharString name="O">
          -104 callgsubr
          endchar
        </CharString>
        <CharString name="OE">
          490 491 627 rmoveto
          -4 callgsubr
          9 vvcurveto
          8 0 5 -8 4 vhcurveto
          5 29 callsubr
          -21 hhcurveto
          -52 -201 -115 -142 -98 hvcurveto
          -58 -84 -47 -97 -74 vvcurveto
          -27 6 -23 14 -19 vhcurveto
          -51 21 47 -52 54 hhcurveto
          28 58 2 58 87 hvcurveto
          2 -11 4 -13 7 -10 rrcurveto
          -14 1 10 -18 15 -58 callgsubr
          7 -30 34 -26 -20 callgsubr
          -14 -19 2 -24 hhcurveto
          -59 -85 -11 -13 -81 hvcurveto
          -49 -7 -39 -8 -32 -8 36 60 84 121 44 63 rrcurveto
          14 hlineto
          62 184 14 4 19 hvcurveto
          23 3 28 9 11 7 rrcurveto
          3 1 1 5 6 vvcurveto
          15 -11 26 -26 5 vhcurveto
          3 -18 -22 2 -25 hhcurveto
          -55 -70 -9 -11 -61 hvcurveto
          47 64 70 92 43 55 99 13 205 9 19 3 20 3 11 8 4 11 3 11 -2 -3 8 8 rrcurveto
          -49 callsubr
          vvcurveto
          3 -6 0 -4 2 vhcurveto
          -1 0 2 7 6 -2 6 -17 0 callsubr
          -27 -37 2 -40 hhcurveto
          -131 -173 -19 -17 -35 hvcurveto
          -11 -5 -2 -6 -4 -28 callgsubr
          vvcurveto
          17 callgsubr
          -2 -1 vhcurveto
          -1 -1 -31 callsubr
          -10 4 -17 5 -1 vhcurveto
          9 -3 -4 -6 9 -2 8 -4 rcurveline
          -23 -28 -31 -38 -34 -43 rrcurveto
          1 10 1 10 10 vvcurveto
          46 -9 38 -14 25 vhcurveto
          42 -24 -27 8 -10 -10 2 -8 -5 hhcurveto
          0 32 callgsubr
          vvcurveto
          -2 5 -5 4 -2 vhcurveto
          2 -10 callgsubr
          -1 -2 -2 35 callsubr
          5 -5 8 -3 7 -6 rrcurveto
          10 -10 8 -22 -31 vvcurveto
          -63 -30 -101 -98 -121 vhcurveto
          -118 -96 -123 -79 -83 hhcurveto
          -30 -25 10 23 -16 hvcurveto
          -7 14 -4 18 21 vvcurveto
          54 27 74 73 81 vhcurveto
          148 164 116 53 38 11 rrcurveto
          14 4 20 13 11 vvcurveto
          endchar
        </CharString>
        <CharString name="Oacute">
          -104 callgsubr
          209 230 -106 callsubr
        </CharString>
        <CharString name="Obreve">
          -104 callgsubr
          -61 240 -100 callsubr
        </CharString>
        <CharString name="Ocircumflex">
          -104 callgsubr
          62 241 -107 callgsubr
        </CharString>
        <CharString name="Odieresis">
          -104 callgsubr
          39 172 rmoveto
          -105 callgsubr
        </CharString>
        <CharString name="Ograve">
          -104 callgsubr
          -48 194 -101 callgsubr
        </CharString>
        <CharString name="Ohungarumlaut">
          -104 callgsubr
          105 230 rmoveto
          -94 callgsubr
          127 hmoveto
          -94 callgsubr
          endchar
        </CharString>
        <CharString name="Omacron">
          -104 callgsubr
          198 184 -92 callsubr
        </CharString>
        <CharString name="Oslash">
          -51 callsubr
          -24 5 -22 11 -18 vhcurveto
          -101 -99 rlineto
          -6 -5 -2 -5 -5 -8 4 -5 -5 vvcurveto
          -2 1 9 -2 5 hhcurveto
          9 8 3 8 13 hvcurveto
          85 81 rlineto
          -35 25 36 -29 40 -6 callgsubr
          38 -6 32 -10 25 vhcurveto
          98 100 rlineto
          11 10 3 7 4 vvcurveto
          5 -4 3 -3 2 vhcurveto
          -8 11 callsubr
          -7 4 rrcurveto
          1 -3 -2 1 -3 -75 callsubr
          -1 -12 -13 hvcurveto
          -82 -81 rlineto
          16 -17 -14 4 -7 -10 2 -8 -5 hhcurveto
          0 32 callgsubr
          vvcurveto
          -2 5 -5 4 -2 vhcurveto
          2 -10 callgsubr
          -1 -2 -2 35 callsubr
          5 -5 7 -3 7 -5 -175 -172 -159 -156 -158 -154 rrcurveto
          -1 7 -1 7 8 vvcurveto
          54 28 74 73 81 vhcurveto
          148 164 116 53 38 11 rrcurveto
          14 4 20 13 11 vvcurveto
          76 -61 rmoveto
          -71 -30 -101 -98 -121 vhcurveto
          -118 -96 -123 -79 -83 hhcurveto
          -22 -20 6 12 -15 hvcurveto
          153 146 181 174 153 152 rrcurveto
          endchar
        </CharString>
        <CharString name="Oslashacute">
          -51 callsubr
          -24 5 -22 11 -18 vhcurveto
          -101 -99 rlineto
          -6 -5 -2 -5 -5 -8 4 -5 -5 vvcurveto
          -2 1 9 -2 5 hhcurveto
          9 8 3 8 13 hvcurveto
          85 81 rlineto
          -35 25 36 -29 40 -6 callgsubr
          38 -6 32 -10 25 vhcurveto
          98 100 rlineto
          11 10 3 7 4 vvcurveto
          5 -4 3 -3 2 vhcurveto
          -8 11 callsubr
          -7 4 rrcurveto
          1 -3 -2 1 -3 -75 callsubr
          -1 -12 -13 hvcurveto
          -82 -81 rlineto
          16 -17 -14 4 -7 -10 2 -8 -5 hhcurveto
          0 32 callgsubr
          vvcurveto
          -2 5 -5 4 -2 vhcurveto
          2 -10 callgsubr
          -1 -2 -2 35 callsubr
          5 -5 7 -3 7 -5 -175 -172 -159 -156 -158 -154 rrcurveto
          -1 7 -1 7 8 vvcurveto
          54 28 74 73 81 vhcurveto
          148 164 116 53 38 11 rrcurveto
          14 4 20 13 11 vvcurveto
          76 -61 rmoveto
          -71 -30 -101 -98 -121 vhcurveto
          -118 -96 -123 -79 -83 hhcurveto
          -22 -20 6 12 -15 hvcurveto
          153 146 181 174 153 152 rrcurveto
          136 291 -106 callsubr
        </CharString>
        <CharString name="Otilde">
          -104 callgsubr
          185 242 -96 callgsubr
        </CharString>
        <CharString name="P">
          92 448 675 rmoveto
          -124 -136 -58 -23 -33 hvcurveto
          7 callsubr
          4 -7 rrcurveto
          -7 callgsubr
          12 5 77 27 72 16 rlinecurve
          -54 -64 -98 -115 -50 -61 -65 -80 -134 -176 -3 -52 rrcurveto
          -25 callsubr
          26 56 94 135 52 77 1 -12 4 -11 6 -7 rrcurveto
          -12 9 23 -6 32 hhcurveto
          69 108 28 64 91 hvcurveto
          124 88 27 72 49 vvcurveto
          24 -6 17 -5 12 vhcurveto
          79 -16 -112 24 -78 hhcurveto
          12 -70 30 callsubr
          -52 -57 -59 -66 -42 vhcurveto
          -76 -116 -107 -27 -30 hhcurveto
          -14 -11 1 9 -6 hvcurveto
          54 76 127 164 41 56 rrcurveto
          1 14 13 0 13 hhcurveto
          endchar
        </CharString>
        <CharString name="Q">
          162 519 698 rmoveto
          2 1 1 2 3 vvcurveto
          7 -6 10 -6 vhcurveto
          -1 hlineto
          -9 -2 -219 -55 -151 -188 rrcurveto
          -92 -115 -36 -117 -86 vvcurveto
          -24 2 -21 5 -19 vhcurveto
          -19 -17 -15 -15 -6 -9 rrcurveto
          -2 -2 callsubr
          vvcurveto
          -5 5 -4 5 -28 callsubr
          3 3 vhcurveto
          33 31 9 -19 10 -14 21 -14 rlinecurve
          6 -8 9 -8 11 -8 rrcurveto
          -15 19 29 -8 36 hhcurveto
          37 45 10 21 49 hvcurveto
          -26 vlineto
          -51 33 -47 14 -18 vhcurveto
          -8 6 16 -9 25 hhcurveto
          26 38 12 38 48 hvcurveto
          71 58 21 27 12 vvcurveto
          1 -1 4 -3 -13 -64 -52 -17 -44 vhcurveto
          -10 -28 -28 -9 -20 hhcurveto
          -24 -16 13 39 -2 hvcurveto
          27 6 25 6 26 vhcurveto
          69 44 73 67 69 99 rrcurveto
          107 153 28 104 67 vvcurveto
          54 -18 31 -10 17 vhcurveto
          -6 9 -12 6 -13 4 -7 4 -9 3 -10 3 rrcurveto
          2 -8 -8 1 -8 hhcurveto
          -75 -83 -80 -13 -9 hvcurveto
          -17 callsubr
          -4 4 -2 5 3 5 2 2 2 vhcurveto
          56 54 57 22 41 hhcurveto
          9 8 -1 -2 7 hvcurveto
          13 -15 8 -24 -31 vvcurveto
          -70 -39 -111 -108 -140 vhcurveto
          -43 -55 -46 -47 -47 -37 rrcurveto
          54 -20 -39 19 -42 hhcurveto
          -57 -75 -40 -43 -61 hvcurveto
          64 24 76 71 101 vhcurveto
          139 200 145 80 68 34 rrcurveto
          -365 -644 rmoveto
          -22 -19 5 11 -15 hvcurveto
          -9 11 -8 15 -5 17 rrcurveto
          47 71 73 29 47 hhcurveto
          11 9 -2 -2 7 hvcurveto
          8 -12 3 -19 -46 vvcurveto
          -35 -56 -53 -19 -42 hhcurveto
          endchar
        </CharString>
        <CharString name="R">
          215 661 176 1 callsubr
          2 -2 2 -4 -3 -3 -1 -2 -3 vhcurveto
          -67 -87 -80 -31 -54 hhcurveto
          -49 -9 112 67 -33 hvcurveto
          -15 30 -25 20 -27 12 64 4 96 16 125 50 rrcurveto
          163 65 20 79 40 vvcurveto
          28 -11 27 -22 20 vhcurveto
          -14 27 -32 24 -63 2 rrcurveto
          -9 hlineto
          -158 -174 -74 -12 -22 hvcurveto
          -8 -3 2 2 -8 -7 rrcurveto
          -2 7 -1 -3 vvcurveto
          -2 -1 -1 -2 -2 vhcurveto
          -12 -8 7 2 -6 -6 rrcurveto
          -4 -4 -2 -59 callgsubr
          -74 callgsubr
          2 -53 callgsubr
          4 1 -5 5 hhcurveto
          3 31 callgsubr
          4 hvcurveto
          29 12 47 12 53 11 -56 -61 -152 -160 -101 -134 rrcurveto
          -109 -144 -17 -37 -25 vvcurveto
          -3 0 3 callgsubr
          vhcurveto
          4 -27 -1 11 6 -14 7 -15 13 -8 13 -4 rrcurveto
          -1 2 -30 callsubr
          hhcurveto
          8 4 8 18 8 hvcurveto
          9 18 126 190 69 96 rrcurveto
          1 4 4 0 5 hhcurveto
          27 28 -8 -42 10 hvcurveto
          -99 17 4 -174 108 hhcurveto
          136 84 128 12 14 hvcurveto
          15 13 -54 callsubr
          13 1 14 0 -1 6 4 rrcurveto
          -82 465 rmoveto
          1 15 13 0 12 hhcurveto
          28 20 -3 -11 12 hvcurveto
          3 -7 1 -5 callsubr
          -56 -84 -38 -72 -36 vhcurveto
          -77 -39 -88 -23 -102 -17 51 68 83 110 37 46 55 9 54 6 39 2 rrcurveto
          endchar
        </CharString>
        <CharString name="Racute">
          215 661 176 1 callsubr
          2 -2 2 -4 -3 -3 -1 -2 -3 vhcurveto
          -67 -87 -80 -31 -54 hhcurveto
          -49 -9 112 67 -33 hvcurveto
          -15 30 -25 20 -27 12 64 4 96 16 125 50 rrcurveto
          163 65 20 79 40 vvcurveto
          28 -11 27 -22 20 vhcurveto
          -14 27 -32 24 -63 2 rrcurveto
          -9 hlineto
          -158 -174 -74 -12 -22 hvcurveto
          -8 -3 2 2 -8 -7 rrcurveto
          -2 7 -1 -3 vvcurveto
          -2 -1 -1 -2 -2 vhcurveto
          -12 -8 7 2 -6 -6 rrcurveto
          -4 -4 -2 -59 callgsubr
          -74 callgsubr
          2 -53 callgsubr
          4 1 -5 5 hhcurveto
          3 31 callgsubr
          4 hvcurveto
          29 12 47 12 53 11 -56 -61 -152 -160 -101 -134 rrcurveto
          -109 -144 -17 -37 -25 vvcurveto
          -3 0 3 callgsubr
          vhcurveto
          4 -27 -1 11 6 -14 7 -15 13 -8 13 -4 rrcurveto
          -1 2 -30 callsubr
          hhcurveto
          8 4 8 18 8 hvcurveto
          9 18 126 190 69 96 rrcurveto
          1 4 4 0 5 hhcurveto
          27 28 -8 -42 10 hvcurveto
          -99 17 4 -174 108 hhcurveto
          136 84 128 12 14 hvcurveto
          15 13 -54 callsubr
          13 1 14 0 -1 6 4 rrcurveto
          -82 465 rmoveto
          1 15 13 0 12 hhcurveto
          28 20 -3 -11 12 hvcurveto
          3 -7 1 -5 callsubr
          -56 -84 -38 -72 -36 vhcurveto
          -77 -39 -88 -23 -102 -17 51 68 83 110 37 46 55 9 54 6 39 2 rrcurveto
          177 251 -106 callsubr
        </CharString>
        <CharString name="Rcaron">
          215 661 176 1 callsubr
          2 -2 2 -4 -3 -3 -1 -2 -3 vhcurveto
          -67 -87 -80 -31 -54 hhcurveto
          -49 -9 112 67 -33 hvcurveto
          -15 30 -25 20 -27 12 64 4 96 16 125 50 rrcurveto
          163 65 20 79 40 vvcurveto
          28 -11 27 -22 20 vhcurveto
          -14 27 -32 24 -63 2 rrcurveto
          -9 hlineto
          -158 -174 -74 -12 -22 hvcurveto
          -8 -3 2 2 -8 -7 rrcurveto
          -2 7 -1 -3 vvcurveto
          -2 -1 -1 -2 -2 vhcurveto
          -12 -8 7 2 -6 -6 rrcurveto
          -4 -4 -2 -59 callgsubr
          -74 callgsubr
          2 -53 callgsubr
          4 1 -5 5 hhcurveto
          3 31 callgsubr
          4 hvcurveto
          29 12 47 12 53 11 -56 -61 -152 -160 -101 -134 rrcurveto
          -109 -144 -17 -37 -25 vvcurveto
          -3 0 3 callgsubr
          vhcurveto
          4 -27 -1 11 6 -14 7 -15 13 -8 13 -4 rrcurveto
          -1 2 -30 callsubr
          hhcurveto
          8 4 8 18 8 hvcurveto
          9 18 126 190 69 96 rrcurveto
          1 4 4 0 5 hhcurveto
          27 28 -8 -42 10 hvcurveto
          -99 17 4 -174 108 hhcurveto
          136 84 128 12 14 hvcurveto
          15 13 -54 callsubr
          13 1 14 0 -1 6 4 rrcurveto
          -82 465 rmoveto
          1 15 13 0 12 hhcurveto
          28 20 -3 -11 12 hvcurveto
          3 -7 1 -5 callsubr
          -56 -84 -38 -72 -36 vhcurveto
          -77 -39 -88 -23 -102 -17 51 68 83 110 37 46 55 9 54 6 39 2 rrcurveto
          18 122 rmoveto
          39 27 124 92 6 16 rrcurveto
          1 1 -1 callgsubr
          vvcurveto
          6 -9 1 -8 vhcurveto
          -4 -5 -1 -4 -2 -4 -45 callsubr
          1 -4 -14 3 -5 hhcurveto
          -17 -58 -66 -33 -51 hvcurveto
          46 -17 12 54 -24 hhcurveto
          -1 -9 -10 -1 -11 hhcurveto
          -7 -21 26 callgsubr
          hvcurveto
          -1 -2 0 -59 callgsubr
          -11 9 -15 6 -33 vhcurveto
          16 -82 -4 6 8 -11 rrcurveto
          -2 1 10 0 1 2 12 -21 callsubr
          14 -41 callsubr
          10 7 4 7 hvcurveto
          endchar
        </CharString>
        <CharString name="Rcommaaccent">
          215 661 176 1 callsubr
          2 -2 2 -4 -3 -3 -1 -2 -3 vhcurveto
          -67 -87 -80 -31 -54 hhcurveto
          -49 -9 112 67 -33 hvcurveto
          -15 30 -25 20 -27 12 64 4 96 16 125 50 rrcurveto
          163 65 20 79 40 vvcurveto
          28 -11 27 -22 20 vhcurveto
          -14 27 -32 24 -63 2 rrcurveto
          -9 hlineto
          -158 -174 -74 -12 -22 hvcurveto
          -8 -3 2 2 -8 -7 rrcurveto
          -2 7 -1 -3 vvcurveto
          -2 -1 -1 -2 -2 vhcurveto
          -12 -8 7 2 -6 -6 rrcurveto
          -4 -4 -2 -59 callgsubr
          -74 callgsubr
          2 -53 callgsubr
          4 1 -5 5 hhcurveto
          3 31 callgsubr
          4 hvcurveto
          29 12 47 12 53 11 -56 -61 -152 -160 -101 -134 rrcurveto
          -109 -144 -17 -37 -25 vvcurveto
          -3 0 3 callgsubr
          vhcurveto
          4 -27 -1 11 6 -14 7 -15 13 -8 13 -4 rrcurveto
          -1 2 -30 callsubr
          hhcurveto
          8 4 8 18 8 hvcurveto
          9 18 126 190 69 96 rrcurveto
          1 4 4 0 5 hhcurveto
          27 28 -8 -42 10 hvcurveto
          -99 17 4 -174 108 hhcurveto
          136 84 128 12 14 hvcurveto
          15 13 -54 callsubr
          13 1 14 0 -1 6 4 rrcurveto
          -82 465 rmoveto
          1 15 13 0 12 hhcurveto
          28 20 -3 -11 12 hvcurveto
          3 -7 1 -5 callsubr
          -56 -84 -38 -72 -36 vhcurveto
          -77 -39 -88 -23 -102 -17 51 68 83 110 37 46 55 9 54 6 39 2 rrcurveto
          -404 -752 -102 callsubr
        </CharString>
        <CharString name="S">
          -95 callgsubr
          endchar
        </CharString>
        <CharString name="Sacute">
          -95 callgsubr
          535 666 -106 callsubr
        </CharString>
        <CharString name="Scaron">
          -95 callgsubr
          376 537 rmoveto
          39 27 124 92 6 16 rrcurveto
          1 1 -1 callgsubr
          vvcurveto
          6 -9 1 -8 vhcurveto
          -4 -5 -1 -4 -2 -4 -45 callsubr
          1 -4 -14 3 -5 hhcurveto
          -17 -58 -66 -33 -51 hvcurveto
          46 -17 12 54 -24 hhcurveto
          -1 -9 -10 -1 -11 hhcurveto
          -7 -21 26 callgsubr
          hvcurveto
          -1 -2 0 -59 callgsubr
          -11 9 -15 6 -33 vhcurveto
          16 -82 -4 6 8 -11 rrcurveto
          -2 1 10 0 1 2 12 -21 callsubr
          14 -41 callsubr
          10 7 4 7 hvcurveto
          endchar
        </CharString>
        <CharString name="Scedilla">
          100 192 221 rmoveto
          3 -5 3 -4 vhcurveto
          -7 -7 4 -9 hhcurveto
          -26 callsubr
          -1 -4 hvcurveto
          -158 -40 -47 -72 -2 -45 rrcurveto
          -67 callsubr
          -4 vvcurveto
          -35 26 -47 86 -3 vhcurveto
          -15 -24 -13 -18 -15 -27 -80 callgsubr
          4 8 8 12 7 13 44 5 55 15 69 26 rrcurveto
          203 80 67 99 71 vvcurveto
          30 -12 26 -21 19 vhcurveto
          -25 28 -44 24 -73 10 -92 11 -82 -3 -19 19 rrcurveto
          59 19 270 139 117 hhcurveto
          7 7 0 -1 6 hvcurveto
          -5 -14 -18 -10 -26 -6 rrcurveto
          -22 -6 -13 -11 -6 vvcurveto
          -3 3 -2 7 17 17 0 4 17 vhcurveto
          8 2 76 31 3 17 rrcurveto
          1 6 1 8 13 vvcurveto
          24 -16 14 -32 -204 -241 -96 -104 -53 vhcurveto
          -5 -9 -2 -11 -11 vvcurveto
          -19 6 -19 14 -13 vhcurveto
          12 -29 26 -25 59 -10 rrcurveto
          152 -27 91 11 -49 -3 -1 15 callgsubr
          -22 -45 -72 -49 -150 -56 rrcurveto
          -37 -97 -52 -12 -27 hhcurveto
          -14 -8 3 4 -4 hvcurveto
          -2 4 -1 4 5 vvcurveto
          48 127 52 13 6 vhcurveto
          16 7 16 4 7 vvcurveto
          endchar
        </CharString>
        <CharString name="Scircumflex">
          -95 callgsubr
          388 677 -107 callgsubr
        </CharString>
        <CharString name="T">
          -91 callgsubr
          endchar
        </CharString>
        <CharString name="Tbar">
          -25 757 646 rmoveto
          -2 9 0 5 -5 6 -4 30 -17 -1 -45 18 rrcurveto
          3 -7 -23 1 -33 hhcurveto
          -79 -143 -9 -16 -110 hvcurveto
          -10 -71 -37 -5 -21 hhcurveto
          -23 -1 6 10 -5 hvcurveto
          5 -3 -3 3 9 callsubr
          -1 -3 hvcurveto
          -7 3 -8 -8 vvcurveto
          -1 -2 1 5 -3 hvcurveto
          2 -1 0 1 -1 hhcurveto
          -2 -1 -3 -4 -14 12 -36 39 -22 hvcurveto
          -7 12 21 -2 29 hhcurveto
          71 71 12 11 73 hvcurveto
          -35 -40 -62 -65 -64 -69 rrcurveto
          -131 -9 -40 -24 -56 callgsubr
          13 55 5 4 53 hvcurveto
          -62 -67 -57 -64 -31 -38 rrcurveto
          -90 -111 -6 -16 -27 vvcurveto
          -27 7 16 4 -23 vhcurveto
          4 -22 -4 6 15 -11 rrcurveto
          -8 11 -2 -4 2 -42 callsubr
          1 hhcurveto
          2 0 0 -1 hvcurveto
          -2 -1 -3 -2 vvcurveto
          -74 callgsubr
          2 10 44 78 35 22 vhcurveto
          44 73 86 115 86 108 rrcurveto
          134 -77 callsubr
          8 5 -58 0 -81 hhcurveto
          -20 hlineto
          65 80 61 69 33 33 rrcurveto
          4 33 33 3 35 62 52 -7 10 hhcurveto
          6 8 2 9 2 0 0 callgsubr
          hvcurveto
          endchar
        </CharString>
        <CharString name="Tcaron">
          -91 callgsubr
          -165 125 rmoveto
          39 27 124 92 6 16 rrcurveto
          1 1 -1 callgsubr
          vvcurveto
          6 -9 1 -8 vhcurveto
          -4 -5 -1 -4 -2 -4 -45 callsubr
          1 -4 -14 3 -5 hhcurveto
          -17 -58 -66 -33 -51 hvcurveto
          46 -17 12 54 -24 hhcurveto
          -1 -9 -10 -1 -11 hhcurveto
          -7 -21 26 callgsubr
          hvcurveto
          -1 -2 0 -59 callgsubr
          -11 9 -15 6 -33 vhcurveto
          16 -82 -4 6 8 -11 rrcurveto
          -2 1 10 0 1 2 12 -21 callsubr
          14 -41 callsubr
          10 7 4 7 hvcurveto
          endchar
        </CharString>
        <CharString name="Tcommaaccent">
          -91 callgsubr
          -738 -767 -102 callsubr
        </CharString>
        <CharString name="Thorn">
          69 473 661 rmoveto
          2 3 -47 callsubr
          12 -14 7 -16 -16 -16 -6 -10 -9 vhcurveto
          -13 -15 -40 -46 -47 -56 -106 -13 -103 -45 -28 -19 rrcurveto
          7 callsubr
          2 -2 2 -5 rcurveline
          -7 callgsubr
          11 4 69 26 69 16 rlinecurve
          -103 -124 -65 -80 -134 -176 -3 -52 rlinecurve
          -25 callsubr
          15 33 39 59 39 60 rrcurveto
          -15 12 23 -6 32 hhcurveto
          69 108 26 58 91 hvcurveto
          124 81 27 66 45 vvcurveto
          24 -6 17 -5 12 vhcurveto
          -14 68 -85 27 -73 6 40 51 31 40 7 11 rrcurveto
          -100 -170 30 callsubr
          -47 -57 -53 -66 -38 vhcurveto
          -69 -116 -107 -24 -30 hhcurveto
          -11 hlineto
          54 79 27 39 67 84 62 79 rlinecurve
          1 11 11 0 10 hhcurveto
          endchar
        </CharString>
        <CharString name="U">
          -107 callsubr
          endchar
        </CharString>
        <CharString name="Uacute">
          -107 callsubr
          356 202 -106 callsubr
        </CharString>
        <CharString name="Ubreve">
          -107 callsubr
          86 212 -100 callsubr
        </CharString>
        <CharString name="Ucircumflex">
          -107 callsubr
          209 213 -107 callgsubr
        </CharString>
        <CharString name="Udieresis">
          -107 callsubr
          186 144 rmoveto
          -105 callgsubr
        </CharString>
        <CharString name="Ugrave">
          -107 callsubr
          99 166 -101 callgsubr
        </CharString>
        <CharString name="Uhungarumlaut">
          -107 callsubr
          272 202 rmoveto
          -94 callgsubr
          127 hmoveto
          -94 callgsubr
          endchar
        </CharString>
        <CharString name="Umacron">
          -107 callsubr
          345 156 -92 callsubr
        </CharString>
        <CharString name="Uogonek">
          199 485 678 rmoveto
          3 2 1 4 3 22 callsubr
          -5 vhcurveto
          -5 1 callgsubr
          hhcurveto
          -2 -1 -16 callsubr
          3 -2 -3 1 -2 callgsubr
          -3 -38 callgsubr
          0 -16 callsubr
          -9 -5 -100 -50 -322 -358 -24 -138 rlinecurve
          -2 -12 -1 -10 -10 vvcurveto
          -29 8 -20 11 -14 vhcurveto
          10 -35 30 -34 48 -10 rrcurveto
          -1 5 6 -1 7 hhcurveto
          57 94 43 98 115 hvcurveto
          -11 -26 -7 -27 -20 -63 callgsubr
          -2 vvcurveto
          1 -8 1 1 4 -6 rrcurveto
          -94 -40 -84 -55 -71 -90 callsubr
          48 97 50 39 17 hvcurveto
          7 3 -1 1 1 3 6 23 2 23 58 80 58 79 278 351 45 54 rrcurveto
          25 30 7 14 9 12 -13 -2 4 vvcurveto
          2 vlineto
          7 -11 7 -9 vhcurveto
          -4 -3 -4 -4 -2 -2 1 -3 hhcurveto
          -4 -7 -2 -12 -14 hvcurveto
          -52 -42 -179 -251 -131 -118 rrcurveto
          -91 -101 -178 -112 -82 hhcurveto
          -16 -12 4 9 -7 hvcurveto
          -1 4 0 -21 callgsubr
          30 22 35 7 13 vhcurveto
          63 121 288 323 58 62 rrcurveto
          endchar
        </CharString>
        <CharString name="Uring">
          -107 callsubr
          211 270 -85 callgsubr
        </CharString>
        <CharString name="Utilde">
          -107 callsubr
          332 214 -96 callgsubr
        </CharString>
        <CharString name="V">
          82 849 701 rmoveto
          -7 2 -1 5 -8 1 rrcurveto
          -3 0 2 6 3 -1 2 -6 -12 -9 -2 -8 -10 hvcurveto
          -11 -7 -289 -204 -399 -403 66 147 140 320 9 110 rrcurveto
          5 -6 2 -7 vhcurveto
          -3 -6 -1 -1 -2 -1 5 -2 -3 13 callsubr
          -4 2 7 -1 callsubr
          -3 -3 -1 -1 hvcurveto
          -3 -2 27 callsubr
          -6 -5 11 -7 hhcurveto
          -10 1 -11 -2 -9 hvcurveto
          -15 -3 4 -3 -3 -17 -13 -65 -108 -285 -67 -160 -16 -38 -16 -60 -12 -24 rrcurveto
          -2 -3 10 callsubr
          -6 2 -6 3 -7 vhcurveto
          -3 1 0 -1 1 2 2 4 -15 callgsubr
          -1 -3 2 hvcurveto
          -11 7 13 -5 9 hhcurveto
          4 3 1 1 2 hvcurveto
          4 7 31 callgsubr
          3 5 -3 2 hhcurveto
          12 103 123 169 190 hvcurveto
          191 171 150 133 151 108 rrcurveto
          6 4 -70 callsubr
          4 -3 2 -3 1 vhcurveto
          endchar
        </CharString>
        <CharString name="W">
          -103 callgsubr
          endchar
        </CharString>
        <CharString name="Wacute">
          -103 callgsubr
          160 194 -106 callsubr
        </CharString>
        <CharString name="Wcircumflex">
          -103 callgsubr
          13 205 -107 callgsubr
        </CharString>
        <CharString name="Wdieresis">
          -103 callgsubr
          -10 136 rmoveto
          -105 callgsubr
        </CharString>
        <CharString name="Wgrave">
          -103 callgsubr
          -97 158 -101 callgsubr
        </CharString>
        <CharString name="X">
          0 361 -21 rmoveto
          -21 callsubr
          6 14 -11 36 -3 26 hvcurveto
          -4 24 -22 163 -11 87 94 87 rcurveline
          72 69 135 127 74 66 -30 callgsubr
          2 3 vvcurveto
          5 -4 6 -5 5 vhcurveto
          2 -2 -2 0 -1 -6 -5 -6 -3 hhcurveto
          -1 0 1 2 7 -2 9 -6 hvcurveto
          -5 -2 -9 -6 -25 -19 -40 -32 rlinecurve
          -43 -34 -139 -129 -93 -86 -38 262 rcurveline
          -2 20 -26 callgsubr
          4 rrcurveto
          4 -3 -1 23 -6 -6 3 -17 -7 -6 0 -11 -2 hhcurveto
          0 -74 callgsubr
          2 vhcurveto
          7 -4 -8 4 -6 -8 0 -8 -9 hhcurveto
          -3 -1 -1 -2 hvcurveto
          -2 1 -2 -1 vvcurveto
          -1 0 0 -1 vhcurveto
          -7 -7 9 -8 hhcurveto
          -3 -1 -1 -3 hvcurveto
          2 -16 37 -235 20 -107 -2 -2 rcurveline
          -45 -42 -286 -252 -15 -41 rrcurveto
          -3 -8 10 callsubr
          -4 3 0 5 -5 vhcurveto
          -1 -65 callsubr
          7 8 12 5 6 1 -10 8 hhcurveto
          7 6 6 3 6 hvcurveto
          1 2 2 0 5 hhcurveto
          -64 callsubr
          11 11 hvcurveto
          18 17 41 39 62 66 30 32 59 53 61 55 13 -93 22 -176 2 -12 1 -15 9 -1 6 -7 rrcurveto
          -1 -62 callgsubr
          vhcurveto
          5 7 18 5 hhcurveto
          2 1 0 -2 1 hvcurveto
          -3 2 3 -2 2 11 14 24 6 4 2 -18 6 hhcurveto
          endchar
        </CharString>
        <CharString name="Y">
          -99 callgsubr
          endchar
        </CharString>
        <CharString name="Yacute">
          -99 callgsubr
          -73 231 -106 callsubr
        </CharString>
        <CharString name="Ycircumflex">
          -99 callgsubr
          -220 242 -107 callgsubr
        </CharString>
        <CharString name="Ydieresis">
          -99 callgsubr
          -243 173 rmoveto
          -105 callgsubr
        </CharString>
        <CharString name="Ygrave">
          -99 callgsubr
          -330 195 -101 callgsubr
        </CharString>
        <CharString name="Z">
          65 483 45 rmoveto
          5 hlineto
          4 2 7 10 9 -3 12 -4 6 hvcurveto
          -10 11 -48 15 -69 2 rrcurveto
          -3 hlineto
          -71 -210 -26 -25 -34 hvcurveto
          61 84 216 168 82 70 79 69 159 127 38 55 28 4 -6 14 5 8 rrcurveto
          4 6 6 2 6 vvcurveto
          22 -35 15 -20 -43 -140 -8 -8 -66 vhcurveto
          -8 -55 -70 -13 -50 hhcurveto
          -5 -2 0 2 5 17 10 7 0 callsubr
          1 2 3 3 vvcurveto
          5 -5 6 -9 -18 -51 -38 -16 -3 vhcurveto
          -3 -1 -5 callsubr
          -23 12 -39 80 66 198 30 15 97 vhcurveto
          -104 -76 -354 -262 -75 -72 -21 -19 -141 -102 -5 -46 rrcurveto
          -7 -1 -5 -5 vvcurveto
          -2 -4 -1 -4 -4 14 callgsubr
          -19 20 -10 vhcurveto
          -3 4 7 -1 10 58 149 36 205 hhcurveto
          27 29 -1 -1 30 hvcurveto
          7 hlineto
          9 4 1 5 1 0 3 -3 5 hvcurveto
          -6 callsubr
          hhcurveto
          -3 -6 1 0 hvcurveto
          2 15 1 6 3 -3 3 3 vvcurveto
          -65 callsubr
          vhcurveto
          endchar
        </CharString>
        <CharString name="Zacute">
          65 483 45 rmoveto
          5 hlineto
          4 2 7 10 9 -3 12 -4 6 hvcurveto
          -10 11 -48 15 -69 2 rrcurveto
          -3 hlineto
          -71 -210 -26 -25 -34 hvcurveto
          61 84 216 168 82 70 79 69 159 127 38 55 28 4 -6 14 5 8 rrcurveto
          4 6 6 2 6 vvcurveto
          22 -35 15 -20 -43 -140 -8 -8 -66 vhcurveto
          -8 -55 -70 -13 -50 hhcurveto
          -5 -2 0 2 5 17 10 7 0 callsubr
          1 2 3 3 vvcurveto
          5 -5 6 -9 -18 -51 -38 -16 -3 vhcurveto
          -3 -1 -5 callsubr
          -23 12 -39 80 66 198 30 15 97 vhcurveto
          -104 -76 -354 -262 -75 -72 -21 -19 -141 -102 -5 -46 rrcurveto
          -7 -1 -5 -5 vvcurveto
          -2 -4 -1 -4 -4 14 callgsubr
          -19 20 -10 vhcurveto
          -3 4 7 -1 10 58 149 36 205 hhcurveto
          27 29 -1 -1 30 hvcurveto
          7 hlineto
          9 4 1 5 1 0 3 -3 5 hvcurveto
          -6 callsubr
          hhcurveto
          -3 -6 1 0 hvcurveto
          2 15 1 6 3 -3 3 3 vvcurveto
          -65 callsubr
          vhcurveto
          182 845 -106 callsubr
        </CharString>
        <CharString name="Zcaron">
          65 483 45 rmoveto
          5 hlineto
          4 2 7 10 9 -3 12 -4 6 hvcurveto
          -10 11 -48 15 -69 2 rrcurveto
          -3 hlineto
          -71 -210 -26 -25 -34 hvcurveto
          61 84 216 168 82 70 79 69 159 127 38 55 28 4 -6 14 5 8 rrcurveto
          4 6 6 2 6 vvcurveto
          22 -35 15 -20 -43 -140 -8 -8 -66 vhcurveto
          -8 -55 -70 -13 -50 hhcurveto
          -5 -2 0 2 5 17 10 7 0 callsubr
          1 2 3 3 vvcurveto
          5 -5 6 -9 -18 -51 -38 -16 -3 vhcurveto
          -3 -1 -5 callsubr
          -23 12 -39 80 66 198 30 15 97 vhcurveto
          -104 -76 -354 -262 -75 -72 -21 -19 -141 -102 -5 -46 rrcurveto
          -7 -1 -5 -5 vvcurveto
          -2 -4 -1 -4 -4 14 callgsubr
          -19 20 -10 vhcurveto
          -3 4 7 -1 10 58 149 36 205 hhcurveto
          27 29 -1 -1 30 hvcurveto
          7 hlineto
          9 4 1 5 1 0 3 -3 5 hvcurveto
          -6 callsubr
          hhcurveto
          -3 -6 1 0 hvcurveto
          2 15 1 6 3 -3 3 3 vvcurveto
          -65 callsubr
          vhcurveto
          23 716 rmoveto
          39 27 124 92 6 16 rrcurveto
          1 1 -1 callgsubr
          vvcurveto
          6 -9 1 -8 vhcurveto
          -4 -5 -1 -4 -2 -4 -45 callsubr
          1 -4 -14 3 -5 hhcurveto
          -17 -58 -66 -33 -51 hvcurveto
          46 -17 12 54 -24 hhcurveto
          -1 -9 -10 -1 -11 hhcurveto
          -7 -21 26 callgsubr
          hvcurveto
          -1 -2 0 -59 callgsubr
          -11 9 -15 6 -33 vhcurveto
          16 -82 -4 6 8 -11 rrcurveto
          -2 1 10 0 1 2 12 -21 callsubr
          14 -41 callsubr
          10 7 4 7 hvcurveto
          endchar
        </CharString>
        <CharString name="Zdotaccent">
          65 483 45 rmoveto
          5 hlineto
          4 2 7 10 9 -3 12 -4 6 hvcurveto
          -10 11 -48 15 -69 2 rrcurveto
          -3 hlineto
          -71 -210 -26 -25 -34 hvcurveto
          61 84 216 168 82 70 79 69 159 127 38 55 28 4 -6 14 5 8 rrcurveto
          4 6 6 2 6 vvcurveto
          22 -35 15 -20 -43 -140 -8 -8 -66 vhcurveto
          -8 -55 -70 -13 -50 hhcurveto
          -5 -2 0 2 5 17 10 7 0 callsubr
          1 2 3 3 vvcurveto
          5 -5 6 -9 -18 -51 -38 -16 -3 vhcurveto
          -3 -1 -5 callsubr
          -23 12 -39 80 66 198 30 15 97 vhcurveto
          -104 -76 -354 -262 -75 -72 -21 -19 -141 -102 -5 -46 rrcurveto
          -7 -1 -5 -5 vvcurveto
          -2 -4 -1 -4 -4 14 callgsubr
          -19 20 -10 vhcurveto
          -3 4 7 -1 10 58 149 36 205 hhcurveto
          27 29 -1 -1 30 hvcurveto
          7 hlineto
          9 4 1 5 1 0 3 -3 5 hvcurveto
          -6 callsubr
          hhcurveto
          -3 -6 1 0 hvcurveto
          2 15 1 6 3 -3 3 3 vvcurveto
          -65 callsubr
          vhcurveto
          -23 787 rmoveto
          -3 -9 -2 -12 callsubr
          -19 15 -8 27 vhcurveto
          1 3 0 1 hhcurveto
          6 6 0 5 13 hvcurveto
          17 8 34 38 7 19 rrcurveto
          1 -8 callgsubr
          3 vvcurveto
          9 -5 10 -10 6 vhcurveto
          6 -7 -9 5 -15 hhcurveto
          -8 -14 -3 -4 -14 hvcurveto
          -20 -6 -18 -32 -6 -19 rrcurveto
          endchar
        </CharString>
        <CharString name="a">
          -105 callsubr
          endchar
        </CharString>
        <CharString name="aacute">
          -105 callsubr
          451 454 -106 callsubr
        </CharString>
        <CharString name="abreve">
          -105 callsubr
          191 464 -100 callsubr
        </CharString>
        <CharString name="acircumflex">
          -105 callsubr
          304 465 -107 callgsubr
        </CharString>
        <CharString name="acute">
          -53 431 595 -106 callsubr
        </CharString>
        <CharString name="adieresis">
          -105 callsubr
          281 396 rmoveto
          -105 callgsubr
        </CharString>
        <CharString name="ae">
          152 571 25 callgsubr
          2 14 rlineto
          4 -1 2 -2 -4 -6 -5 -9 -9 vhcurveto
          -99 -102 -90 -38 -53 hhcurveto
          -14 29 callsubr
          -8 hvcurveto
          -3 7 -1 8 9 vvcurveto
          31 18 37 34 50 vhcurveto
          -7 13 25 -6 19 hhcurveto
          75 166 72 97 30 -26 21 -31 -3 -1 29 callgsubr
          hvcurveto
          24 callsubr
          1 -7 hhcurveto
          -43 -56 -18 -40 -58 hvcurveto
          -3 19 -9 18 -17 9 rrcurveto
          14 -15 -26 6 -25 hhcurveto
          -128 -96 -111 -30 -16 hvcurveto
          -2 -10 callsubr
          vvcurveto
          -4 4 -2 5 -18 callgsubr
          4 4 -4 -15 callgsubr
          2 -34 callsubr
          105 89 97 15 29 hhcurveto
          9 9 -7 -9 8 hvcurveto
          4 -6 2 -8 -9 vvcurveto
          -19 -10 -26 -27 -31 vhcurveto
          -9 -11 -11 -11 -11 -13 rrcurveto
          6 -6 -13 4 -21 hhcurveto
          -18 -14 -2 -6 -31 hvcurveto
          -80 -15 -162 -62 -117 vvcurveto
          -31 19 -31 29 80 113 82 46 62 vhcurveto
          1 -69 45 -45 32 -7 -32 callgsubr
          -483 -26 rmoveto
          29 59 47 9 39 hhcurveto
          -71 -64 -146 -82 -54 hhcurveto
          -2 -39 callgsubr
          -1 hvcurveto
          4 27 38 47 82 40 rrcurveto
          414 132 -44 callgsubr
          endchar
        </CharString>
        <CharString name="aeacute">
          152 571 25 callgsubr
          2 14 rlineto
          4 -1 2 -2 -4 -6 -5 -9 -9 vhcurveto
          -99 -102 -90 -38 -53 hhcurveto
          -14 29 callsubr
          -8 hvcurveto
          -3 7 -1 8 9 vvcurveto
          31 18 37 34 50 vhcurveto
          -7 13 25 -6 19 hhcurveto
          75 166 72 97 30 -26 21 -31 -3 -1 29 callgsubr
          hvcurveto
          24 callsubr
          1 -7 hhcurveto
          -43 -56 -18 -40 -58 hvcurveto
          -3 19 -9 18 -17 9 rrcurveto
          14 -15 -26 6 -25 hhcurveto
          -128 -96 -111 -30 -16 hvcurveto
          -2 -10 callsubr
          vvcurveto
          -4 4 -2 5 -18 callgsubr
          4 4 -4 -15 callgsubr
          2 -34 callsubr
          105 89 97 15 29 hhcurveto
          9 9 -7 -9 8 hvcurveto
          4 -6 2 -8 -9 vvcurveto
          -19 -10 -26 -27 -31 vhcurveto
          -9 -11 -11 -11 -11 -13 rrcurveto
          6 -6 -13 4 -21 hhcurveto
          -18 -14 -2 -6 -31 hvcurveto
          -80 -15 -162 -62 -117 vvcurveto
          -31 19 -31 29 80 113 82 46 62 vhcurveto
          1 -69 45 -45 32 -7 -32 callgsubr
          -483 -26 rmoveto
          29 59 47 9 39 hhcurveto
          -71 -64 -146 -82 -54 hhcurveto
          -2 -39 callgsubr
          -1 hvcurveto
          4 27 38 47 82 40 rrcurveto
          414 132 -44 callgsubr
          118 320 -106 callsubr
        </CharString>
        <CharString name="agrave">
          -105 callsubr
          194 418 -101 callgsubr
        </CharString>
        <CharString name="amacron">
          -105 callsubr
          440 408 -92 callsubr
        </CharString>
        <CharString name="ampersand">
          140 651 622 rmoveto
          7 4 7 10 vvcurveto
          15 -13 19 -64 -46 -162 -24 -127 -69 vhcurveto
          -27 -49 -11 -55 -55 vvcurveto
          -172 -94 -87 -52 -41 -73 rrcurveto
          -12 -20 1 -28 -17 vvcurveto
          -58 62 -34 92 49 56 9 22 62 vhcurveto
          25 9 28 12 27 14 10 -18 10 -16 9 -13 rrcurveto
          -5 5 15 -12 16 hhcurveto
          -64 callsubr
          3 4 hvcurveto
          5 9 6 3 5 hhcurveto
          5 5 -1 -3 5 hvcurveto
          -1 4 -36 callsubr
          17 13 14 5 10 hvcurveto
          6 3 2 -21 callgsubr
          5 -7 6 -7 3 vhcurveto
          -21 10 -26 25 -26 33 36 28 29 31 13 32 rrcurveto
          1 2 -23 callgsubr
          5 -7 1 -9 11 vhcurveto
          4 -4 -6 2 -6 hhcurveto
          -9 -9 -4 -3 -1 hvcurveto
          -12 -19 -18 -22 -33 -23 -34 56 -30 68 -11 67 68 36 78 43 85 54 rrcurveto
          62 46 31 43 37 3 -1 -70 callgsubr
          -329 -501 rmoveto
          -20 -8 -22 -8 -26 -7 rrcurveto
          -8 -30 -41 -6 -38 hhcurveto
          -57 -45 13 38 6 2 7 4 8 hvcurveto
          34 61 76 45 106 57 8 -71 23 -69 26 -58 rrcurveto
          2 283 rmoveto
          45 9 41 22 35 vhcurveto
          25 39 49 26 55 11 rrcurveto
          5 26 21 2 15 hhcurveto
          35 10 -10 -14 -37 -144 -76 -66 -36 hvcurveto
          -57 -31 rlineto
          endchar
        </CharString>
        <CharString name="aogonek">
          -90 362 258 rmoveto
          17 25 12 34 30 vvcurveto
          25 -9 23 -21 11 vhcurveto
          14 -15 -26 6 -25 hhcurveto
          -128 -106 -111 -30 -16 hvcurveto
          -2 -10 callsubr
          vvcurveto
          -4 4 -2 5 -18 callgsubr
          4 4 -4 -15 callgsubr
          2 -34 callsubr
          105 89 107 15 29 hhcurveto
          9 9 -7 -9 8 hvcurveto
          4 -6 2 -8 -9 vvcurveto
          -19 -10 -26 -27 -31 vhcurveto
          -9 -11 -11 -11 -11 -13 rrcurveto
          6 -6 -13 4 -21 hhcurveto
          -18 -24 -2 -6 -31 hvcurveto
          -80 -15 -158 -62 -4 -117 rrcurveto
          -31 19 -29 29 -2 vhcurveto
          35 72 45 41 59 hvcurveto
          -20 -27 -5 -10 -9 vvcurveto
          -2 -12 callgsubr
          -3 1 3 callgsubr
          vhcurveto
          -74 -40 -84 -53 -75 -90 callsubr
          47 73 61 46 19 hvcurveto
          4 2 4 3 10 9 82 77 72 83 61 91 rrcurveto
          -274 -91 rmoveto
          29 59 43 9 39 hhcurveto
          -60 -61 -161 -93 -38 hhcurveto
          -2 -39 callgsubr
          -1 hvcurveto
          4 27 38 47 82 40 rrcurveto
          endchar
        </CharString>
        <CharString name="approxequal">
          -43 354 298 19 callgsubr
          -23 -28 -19 -20 -59 16 68 -60 hhcurveto
          -56 -71 -62 -36 -20 -56 callsubr
          15 42 62 35 25 7 -72 67 hhcurveto
          71 56 71 33 19 -43 callgsubr
          62 150 19 callgsubr
          -23 -23 -19 -29 -45 2 68 -56 hhcurveto
          -56 -71 -62 -36 -20 -56 callsubr
          15 38 62 35 33 8 -72 70 hhcurveto
          57 62 71 33 19 -43 callgsubr
          endchar
        </CharString>
        <CharString name="aring">
          -105 callsubr
          316 522 -85 callgsubr
        </CharString>
        <CharString name="asciicircum">
          -123 278 688 rmoveto
          -32 -37 -101 -139 -6 vvcurveto
          -6 30 -3 9 -4 vhcurveto
          -2 3 19 -3 3 hhcurveto
          1 58 93 47 43 hvcurveto
          -65 36 11 -77 25 hhcurveto
          1 10 9 2 12 hhcurveto
          7 22 2 6 16 -18 18 -23 52 hvcurveto
          -50 110 -3 -4 -14 11 rrcurveto
          2 -2 -1 29 callgsubr
          -22 callgsubr
          3 callgsubr
          hhcurveto
          -6 -26 -7 -5 -5 hvcurveto
          endchar
        </CharString>
        <CharString name="asciitilde">
          -43 393 362 19 callgsubr
          -24 -30 -19 -21 -63 17 68 -63 hhcurveto
          -59 -75 -62 -36 -22 -56 callsubr
          16 44 62 37 27 7 -72 71 hhcurveto
          75 59 71 33 20 -43 callgsubr
          endchar
        </CharString>
        <CharString name="asterisk">
          -171 402 437 rmoveto
          2 -2 rlineto
          8 24 23 15 9 hvcurveto
          4 7 1 5 4 vvcurveto
          7 -6 3 -5 6 vhcurveto
          -15 16 -19 20 -14 11 46 23 40 21 42 18 rrcurveto
          31 callgsubr
          3 3 vvcurveto
          8 -11 8 -10 4 vhcurveto
          5 -11 -4 1 -4 hhcurveto
          -6 -7 -1 -2 -5 hvcurveto
          -54 -27 9 14 9 17 8 13 rlinecurve
          5 9 3 7 7 vvcurveto
          8 -8 5 -10 vhcurveto
          -13 -8 -2 -51 callgsubr
          33 callsubr
          hvcurveto
          -12 -33 -47 -53 -32 hvcurveto
          -40 20 -34 4 -9 1 rrcurveto
          -3 -7 -4 -7 -11 hvcurveto
          -5 -3 -5 -3 -2 -5 rrcurveto
          -5 -10 -2 -3 -3 vvcurveto
          -8 9 2 5 -3 vhcurveto
          53 -26 -68 -36 -38 -22 -7 -12 rlinecurve
          -4 -9 -2 -6 -4 -12 16 5 -5 0 -4 -7 -3 vvcurveto
          -3 1 -1 -35 callsubr
          1 3 5 vhcurveto
          29 17 28 18 32 17 rrcurveto
          -23 -38 -20 -30 -12 vvcurveto
          -6 5 -3 12 12 30 3 21 16 vhcurveto
          46 77 22 -17 27 -26 12 -21 rlinecurve
          endchar
        </CharString>
        <CharString name="at">
          316 622 450 rmoveto
          50 -45 22 -43 -117 -107 -101 -28 -14 vhcurveto
          -17 callsubr
          -4 13 4 callgsubr
          vhcurveto
          -2 4 6 -7 7 hhcurveto
          2 2 2 -34 callsubr
          96 81 81 6 16 hhcurveto
          26 12 -20 -15 -18 -3 -13 -53 -61 hvcurveto
          2 -4 -14 4 -22 hhcurveto
          -16 -12 -1 -6 -29 hvcurveto
          -73 -14 -144 -56 -4 -102 rrcurveto
          -34 17 -28 43 71 56 40 31 45 vhcurveto
          -54 -8 41 -15 29 hhcurveto
          175 196 218 184 15 callsubr
          121 -111 51 -106 -1 rrcurveto
          -292 -3 -332 -281 -271 vvcurveto
          -112 80 -89 125 198 109 131 9 6 vhcurveto
          1 3 3 3 9 vhcurveto
          -62 callgsubr
          -53 callgsubr
          -3 -5 -4 -3 -2 1 -51 callgsubr
          -5 -2 -9 -15 hvcurveto
          -15 -22 -118 -83 -117 hhcurveto
          -101 -56 57 84 -1 hvcurveto
          -2 278 346 221 189 -1 rrcurveto
          117 -1 54 -47 -79 vvcurveto
          -207 -211 -128 -61 6 vhcurveto
          -17 2 -12 6 15 79 154 93 94 vvcurveto
          -277 -165 rmoveto
          27 54 30 3 36 hhcurveto
          -55 -56 -99 -86 -55 hhcurveto
          -49 68 77 34 71 hvcurveto
          endchar
        </CharString>
        <CharString name="atilde">
          -105 callsubr
          427 466 -96 callgsubr
        </CharString>
        <CharString name="b">
          -50 422 328 rmoveto
          42 -50 31 -41 -9 -9 -1 -2 -9 vhcurveto
          -19 -4 -57 -26 -51 -33 79 92 153 171 29 48 rrcurveto
          13 22 8 17 12 vvcurveto
          5 -7 19 -5 -1 -1 0 -2 -53 callgsubr
          -1 0 29 callgsubr
          -2 5 -5 hhcurveto
          21 callsubr
          hvcurveto
          -21 -22 -221 -239 -84 -114 -84 -113 -91 -139 -12 -35 rrcurveto
          -2 -5 0 -4 -5 vvcurveto
          -16 8 -16 6 -6 vhcurveto
          -5 4 1 -3 2 hhcurveto
          1 2 1 3 0 callsubr
          2 rlineto
          3 1 -3 3 hhcurveto
          -42 callsubr
          6 4 hvcurveto
          25 40 rlineto
          -2 1 -3 -45 callgsubr
          -28 10 24 -22 35 hhcurveto
          6 6 1 1 7 hvcurveto
          231 47 118 219 70 vvcurveto
          -386 -195 rmoveto
          16 17 25 35 12 15 rrcurveto
          92 77 115 67 36 hhcurveto
          11 8 -9 -13 -37 -45 -79 -65 -61 hvcurveto
          -83 -89 -64 -27 -36 hhcurveto
          -19 -10 10 7 -13 hvcurveto
          12 20 14 23 15 23 rrcurveto
          endchar
        </CharString>
        <CharString name="backslash">
          -107 312 10 rmoveto
          2 7 1 8 -1 6 -27 123 -66 511 4 17 rrcurveto
          0 1 19 -8 vhcurveto
          -5 -7 -1 -6 hhcurveto
          -11 -4 2 0 hvcurveto
          -17 -17 -30 -1 hvcurveto
          -10 -31 73 -530 29 -98 rrcurveto
          -17 5 2 -5 15 5 15 5 13 hhcurveto
          6 4 4 11 4 hvcurveto
          endchar
        </CharString>
        <CharString name="bar">
          -153 247 705 rmoveto
          9 -8 6 -4 vhcurveto
          -33 callgsubr
          -74 callgsubr
          -3 -29 -14 -396 -150 -37 1 -36 -36 -45 -1 -44 -37 vvcurveto
          -61 -13 -31 32 vhcurveto
          10 20 6 2 1 5 -4 10 hhcurveto
          6 6 4 12 hvcurveto
          14 -4 140 103 43 7 536 49 vvcurveto
          endchar
        </CharString>
        <CharString name="braceleft">
          -132 363 567 rmoveto
          39 23 29 46 52 23 14 -9 31 hhcurveto
          7 5 5 7 4 hvcurveto
          8 14 3 11 8 vvcurveto
          16 -13 7 -4 vhcurveto
          -6 -43 -4 -6 hhcurveto
          -110 -60 -64 -75 -42 hvcurveto
          -22 -38 -17 -43 -22 -38 rrcurveto
          -38 -22 -29 -43 -60 hhcurveto
          -15 -31 -4 -13 -5 hvcurveto
          -4 -10 -12 -7 -5 -8 rrcurveto
          -3 -4 -1 15 callgsubr
          -6 6 -4 20 34 16 -9 -22 -15 -8 -21 -17 -29 vhcurveto
          -26 -45 -56 -68 -22 -37 rrcurveto
          -13 -22 -9 -19 -23 vvcurveto
          -28 23 -29 45 89 18 17 12 7 vhcurveto
          5 9 2 5 4 5 -3 -59 callsubr
          -62 callgsubr
          1 1 vhcurveto
          3 5 9 5 4 vvcurveto
          2 -2 1 -3 vhcurveto
          -12 -40 -16 -19 hhcurveto
          -17 -8 7 14 13 7 18 14 25 hvcurveto
          38 67 35 30 31 53 rrcurveto
          16 28 6 22 16 vvcurveto
          27 -16 13 -9 1 vhcurveto
          43 18 42 21 34 59 24 41 21 54 24 43 rrcurveto
          endchar
        </CharString>
        <CharString name="braceright">
          -132 41 81 rmoveto
          -39 -23 -30 -43 -52 -17 -12 6 -31 hhcurveto
          -7 -5 -5 -7 -4 hvcurveto
          -8 -14 -3 -11 -8 vvcurveto
          -17 13 -6 4 vhcurveto
          6 43 4 6 hhcurveto
          24 68 13 43 53 hvcurveto
          27 22 21 29 18 32 22 38 23 53 22 38 22 38 33 38 55 5 15 1 32 3 5 13 4 10 12 7 5 8 rrcurveto
          2 4 -70 callsubr
          7 -7 4 -20 -34 -16 9 21 15 9 22 17 29 vhcurveto
          26 45 50 58 22 37 rrcurveto
          12 22 10 26 23 vvcurveto
          28 -19 22 -43 -97 -14 -17 -12 -7 vhcurveto
          -6 -9 -2 -5 -4 -5 3 11 callgsubr
          -74 callsubr
          -2 -5 -8 -4 -2 -3 20 callgsubr
          vvcurveto
          -1 2 -1 3 vhcurveto
          12 40 16 19 hhcurveto
          16 9 -7 -14 -13 -7 -18 -14 -25 hvcurveto
          -38 -67 -31 -16 -30 -53 rrcurveto
          -17 -28 -5 -22 -17 vvcurveto
          -27 16 -12 9 -1 vhcurveto
          -43 -18 -48 -35 -34 -59 -23 -41 -26 -54 -25 -43 rrcurveto
          endchar
        </CharString>
        <CharString name="bracketleft">
          -150 505 661 rmoveto
          3 hlineto
          12 -1 20 15 1 hvcurveto
          7 2 6 4 vvcurveto
          3 -2 3 -4 vhcurveto
          -10 -8 1 -8 hhcurveto
          -99 -60 -31 -6 -13 hvcurveto
          -6 -3 -3 -20 callsubr
          -4 -7 -26 -41 -221 -324 -139 -265 rlinecurve
          -24 -43 -19 -35 -8 -22 -1 -4 rcurveline
          -6 10 5 -5 vvcurveto
          -1 2 -2 2 vhcurveto
          0 -62 callgsubr
          vhcurveto
          -1 1 0 2 vhcurveto
          -1 14 13 0 13 hhcurveto
          86 46 14 4 12 hvcurveto
          4 2 11 16 2 4 rrcurveto
          -65 callsubr
          1 4 -5 2 3 vvcurveto
          -62 callgsubr
          2 1 vhcurveto
          7 6 4 -70 callgsubr
          1 -2 2 -3 -4 -14 -6 -2 -25 vhcurveto
          -21 -2 -24 -3 -22 -1 25 44 73 129 51 88 15 26 13 23 12 19 50 83 128 200 38 63 rrcurveto
          4 22 45 3 30 hhcurveto
          10 8 0 -1 4 hvcurveto
          endchar
        </CharString>
        <CharString name="bracketright">
          -150 -137 -19 rmoveto
          -13 -1 -1 -12 -12 -4 0 -3 -3 vvcurveto
          -1 -8 -2 -5 -4 vvcurveto
          -4 2 -2 5 vhcurveto
          -1 12 12 0 11 hhcurveto
          90 64 21 6 13 hvcurveto
          3 2 4 7 5 9 24 41 125 192 86 149 rrcurveto
          168 291 32 58 9 6 -11 -5 7 vvcurveto
          1 -46 callsubr
          -1 0 0 -1 hhcurveto
          1 -2 0 -1 -114 -55 -8 -4 -12 vhcurveto
          -4 -2 -16 -21 -2 -4 20 callgsubr
          -4 5 -1 -3 vvcurveto
          -1 0 -2 -2 -1 vhcurveto
          -7 -6 -3 -5 -2 vvcurveto
          -2 2 -40 callsubr
          7 2 1 4 vhcurveto
          22 6 36 3 39 2 -25 -45 -71 -129 -50 -87 -15 -26 -14 -23 -12 -19 -51 -84 -125 -199 -39 -63 -29 -5 -71 0 -21 -1 rrcurveto
          endchar
        </CharString>
        <CharString name="breve">
          -53 190 605 -100 callsubr
        </CharString>
        <CharString name="brokenbar">
          -153 164 -105 rmoveto
          -11 9 -2 12 vhcurveto
          8 8 1 5 4 5 -68 callsubr
          13 8 5 17 hvcurveto
          81 3 78 60 vvcurveto
          45 -2 34 -26 vhcurveto
          -24 9 -9 -25 hhcurveto
          -6 -5 -19 -12 hvcurveto
          -14 2 -120 -103 vvcurveto
          -1 400 rmoveto
          -11 33 3 13 vhcurveto
          11 2 -10 8 hhcurveto
          14 1 294 4 9 -8 6 -4 hvcurveto
          -33 callgsubr
          -5 vlineto
          -16 -7 -127 -7 -136 vhcurveto
          endchar
        </CharString>
        <CharString name="bullet">
          -203 253 329 rmoveto
          68 -2 -33 27 -57 hhcurveto
          -11 -13 3 -12 -20 hvcurveto
          -44 -26 -17 -60 -37 vvcurveto
          -23 19 -27 27 -5 vhcurveto
          -12 4 20 -17 31 hhcurveto
          14 19 4 8 21 hvcurveto
          32 11 12 61 -2 37 rrcurveto
          endchar
        </CharString>
        <CharString name="c">
          -95 callsubr
          endchar
        </CharString>
        <CharString name="cacute">
          -95 callsubr
          384 611 -106 callsubr
        </CharString>
        <CharString name="caron">
          -53 294 466 rmoveto
          39 27 124 92 6 16 rrcurveto
          1 1 -1 callgsubr
          vvcurveto
          6 -9 1 -8 vhcurveto
          -4 -5 -1 -4 -2 -4 -45 callsubr
          1 -4 -14 3 -5 hhcurveto
          -17 -58 -66 -33 -51 hvcurveto
          46 -17 12 54 -24 hhcurveto
          -1 -9 -10 -1 -11 hhcurveto
          -7 -21 26 callgsubr
          hvcurveto
          -1 -2 0 -59 callgsubr
          -11 9 -15 6 -33 vhcurveto
          16 -82 -4 6 8 -11 rrcurveto
          -2 1 10 0 1 2 12 -21 callsubr
          14 -41 callsubr
          10 7 4 7 hvcurveto
          endchar
        </CharString>
        <CharString name="ccaron">
          -95 callsubr
          225 482 rmoveto
          39 27 124 92 6 16 rrcurveto
          1 1 -1 callgsubr
          vvcurveto
          6 -9 1 -8 vhcurveto
          -4 -5 -1 -4 -2 -4 -45 callsubr
          1 -4 -14 3 -5 hhcurveto
          -17 -58 -66 -33 -51 hvcurveto
          46 -17 12 54 -24 hhcurveto
          -1 -9 -10 -1 -11 hhcurveto
          -7 -21 26 callgsubr
          hvcurveto
          -1 -2 0 -59 callgsubr
          -11 9 -15 6 -33 vhcurveto
          16 -82 -4 6 8 -11 rrcurveto
          -2 1 10 0 1 2 12 -21 callsubr
          14 -41 callsubr
          10 7 4 7 hvcurveto
          endchar
        </CharString>
        <CharString name="ccedilla">
          -90 333 184 rmoveto
          11 -8 5 -8 -5 -4 -2 -3 -3 vhcurveto
          -48 -60 -97 -57 -60 -15 rrcurveto
          -2 -9 -9 -2 -8 hhcurveto
          -24 -19 11 19 -8 hvcurveto
          84 76 89 65 45 vhcurveto
          40 58 49 20 26 hhcurveto
          8 6 -2 -4 3 hvcurveto
          -7 -12 -16 -11 -10 -9 rrcurveto
          -6 -5 -2 -4 -4 -7 8 -6 -9 vvcurveto
          -13 21 2 3 -2 vhcurveto
          7 11 6 11 12 hvcurveto
          12 10 11 23 20 vvcurveto
          12 -7 18 -12 9 vhcurveto
          -3 4 -6 5 -6 5 rrcurveto
          5 -8 -13 3 -16 hhcurveto
          -45 -70 -21 -49 -66 hvcurveto
          -124 -91 -32 -92 -62 vvcurveto
          -28 6 -23 8 -13 vhcurveto
          7 -14 15 -14 14 -8 -51 -83 rcurveline
          -17 callsubr
          -8 14 0 9 26 47 -4 -34 -39 -37 -5 -37 vhcurveto
          -33 -36 25 -4 hhcurveto
          -9 -38 -55 -5 -3 hvcurveto
          -1 -74 callgsubr
          0 vvcurveto
          -9 49 -16 32 111 65 55 80 33 -23 27 -56 2 vhcurveto
          20 33 rlineto
          151 -1 140 179 21 vvcurveto
          endchar
        </CharString>
        <CharString name="ccircumflex">
          -95 callsubr
          237 622 -107 callgsubr
        </CharString>
        <CharString name="cdotaccent">
          -95 callsubr
          179 553 rmoveto
          -3 -9 -2 -12 callsubr
          -19 15 -8 27 vhcurveto
          1 3 0 1 hhcurveto
          6 6 0 5 13 hvcurveto
          17 8 34 38 7 19 rrcurveto
          1 -8 callgsubr
          3 vvcurveto
          9 -5 10 -10 6 vhcurveto
          6 -7 -9 5 -15 hhcurveto
          -8 -14 -3 -4 -14 hvcurveto
          -20 -6 -18 -32 -6 -19 rrcurveto
          endchar
        </CharString>
        <CharString name="cedilla">
          -53 123 20 rmoveto
          -26 -42 -15 -22 -22 -37 -80 callgsubr
          8 13 17 29 12 21 rrcurveto
          endchar
        </CharString>
        <CharString name="cent">
          -120 413 593 rmoveto
          13 20 -3 1 -9 -1 -9 -1 2 -2 -8 1 -6 1 -14 -1 -12 -18 -67 -97 rcurveline
          -38 -2 -58 -18 -54 -40 rrcurveto
          -106 -78 -27 -78 -53 vvcurveto
          -24 5 -20 7 -11 vhcurveto
          7 -11 10 -11 10 -7 -82 -117 rcurveline
          -9 -14 6 -7 14 -3 6 -3 8 6 9 13 80 114 rcurveline
          -1 4 5 0 5 hhcurveto
          14 16 3 7 18 hvcurveto
          128 54 63 91 20 vvcurveto
          9 -6 5 -8 -6 -4 -4 -3 -4 vhcurveto
          -34 -46 -86 -65 -58 -3 73 104 rcurveline
          27 37 42 61 40 56 12 -3 -1 -7 3 -3 -6 -10 -15 -9 -8 -8 rrcurveto
          -5 -4 -2 -4 -3 -6 8 -5 -8 vvcurveto
          -11 20 2 23 callsubr
          7 11 5 9 11 hvcurveto
          11 9 11 20 17 vvcurveto
          10 -6 17 -10 10 vhcurveto
          -3 4 -6 9 -10 4 38 53 30 44 4 6 rrcurveto
          -324 -366 rmoveto
          1 80 96 115 82 29 -17 -25 -18 -25 -25 -38 -25 -37 -41 -58 -40 -59 -6 5 -4 6 -3 7 rrcurveto
          endchar
        </CharString>
        <CharString name="circumflex">
          -53 308 606 -107 callgsubr
        </CharString>
        <CharString name="colon">
          -319 146 -69 callgsubr
          -146 -233 rmoveto
          -93 callsubr
          endchar
        </CharString>
        <CharString name="comma">
          -339 -21 49 -75 callgsubr
        </CharString>
        <CharString name="commaaccent">
          -53 255 -111 -102 callsubr
        </CharString>
        <CharString name="copyright">
          347 797 352 rmoveto
          205 -146 131 -184 -242 -172 -187 -228 -223 159 -114 184 121 82 35 54 38 vhcurveto
          51 17 109 68 242 vvcurveto
          -404 -366 rmoveto
          -144 -128 97 180 267 191 95 164 159 103 -134 -141 -130 -32 -104 -102 -41 hvcurveto
          -16 -7 -8 -4 -9 vvcurveto
          -8 0 -2 2 -4 vhcurveto
          -31 -37 -79 -24 -73 hhcurveto
          79 559 rmoveto
          -136 -119 -113 -143 -95 42 -53 46 -27 hvcurveto
          -17 22 42 -25 62 hhcurveto
          154 24 144 9 hvcurveto
          1 1 4 2 vvcurveto
          3 -1 4 -7 vhcurveto
          -3 -2 -4 -2 hhcurveto
          -4 -2 -2 -10 -11 hvcurveto
          -17 -12 -68 -70 -87 hhcurveto
          -66 -19 15 6 -11 hvcurveto
          -23 21 -16 31 53 vvcurveto
          196 173 25 26 40 16 -11 -12 9 vhcurveto
          -51 -42 -11 -6 vvcurveto
          0 9 -11 14 7 68 31 51 8 -2 8 -3 8 vhcurveto
          -5 8 -6 7 -5 3 rrcurveto
          33 -18 -53 7 -32 hhcurveto
          endchar
        </CharString>
        <CharString name="currency">
          47 221 59 278 59 hstem
          114 58 271 60 vstem
          463 218 rmoveto
          21 -8 10 7 4 7 rrcurveto
          2 2 0 -34 callsubr
          6 6 4 9 -16 13 -61 54 rcurveline
          19 27 11 33 32 vvcurveto
          36 -13 31 -19 27 vhcurveto
          46 48 16 16 -15 16 -7 4 rlinecurve
          -30 callsubr
          -3 3 vhcurveto
          -7 6 -8 4 -13 -15 -12 -14 -20 -23 -14 -14 rrcurveto
          19 -26 -30 11 -34 hhcurveto
          -34 -33 -13 -19 -26 hvcurveto
          -58 58 -12 9 -9 -8 -7 -5 rlinecurve
          -2 -1 -18 -2 -1 -17 11 -15 rlinecurve
          60 -56 rlineto
          -19 -27 -10 -29 -34 vvcurveto
          -34 12 -33 19 -25 vhcurveto
          -67 -68 -9 -12 8 -9 5 -7 rlinecurve
          1 -2 2 -18 17 -1 15 11 rlinecurve
          48 51 5 6 8 7 4 4 rlinecurve
          -19 27 29 -9 34 hhcurveto
          34 34 11 20 25 hvcurveto
          21 -18 18 -21 22 -17 rrcurveto
          -262 183 rmoveto
          60 49 49 59 60 49 -49 -60 -59 -49 -49 -60 -59 -49 49 59 vhcurveto
          endchar
        </CharString>
        <CharString name="d">
          -49 -82 callgsubr
          endchar
        </CharString>
        <CharString name="dagger">
          -141 372 478 rmoveto
          -78 callsubr
          1 -26 0 -26 -26 -45 -1 -44 -37 -7 callsubr
          rrcurveto
          22 7 -1 151 110 vvcurveto
          -54 callgsubr
          endchar
        </CharString>
        <CharString name="daggerdbl">
          -141 367 208 rmoveto
          0 -2 9 -10 5 vhcurveto
          -5 9 -10 3 0 vvcurveto
          2 -4 -26 -2 -34 hhcurveto
          -41 -2 rlineto
          29 vlineto
          -54 callgsubr
          -78 callsubr
          -18 1 -17 -18 vvcurveto
          -51 -2 -51 -4 -4 -1 rrcurveto
          -6 -25 -26 -12 32 hvcurveto
          -10 -18 29 -2 0 vvcurveto
          3 38 2 1 45 hvcurveto
          -1 -32 0 -30 -27 -7 callsubr
          16 5 4 84 1 87 rrcurveto
          2 38 32 1 7 hhcurveto
          29 6 5 3 4 hvcurveto
          15 2 14 14 -1 hvcurveto
          endchar
        </CharString>
        <CharString name="dcaron">
          71 -82 callgsubr
          749 401 -102 callsubr
        </CharString>
        <CharString name="dcroat">
          -49 702 662 rmoveto
          10 -8 -3 7 -5 hhcurveto
          -27 callsubr
          -6 -7 hvcurveto
          -14 -10 -45 -47 -55 -60 rrcurveto
          -161 -6 12 -18 0 -50 callsubr
          19 40 2 2 48 hvcurveto
          -131 -150 -6 8 -3 7 -9 10 rlinecurve
          5 -5 -21 16 -41 hhcurveto
          -43 -65 -16 -58 -87 hvcurveto
          -118 -78 -27 -93 -54 vvcurveto
          -22 4 -19 11 -14 vhcurveto
          3 -7 6 -6 6 -5 rrcurveto
          -8 10 12 -2 11 hhcurveto
          59 65 36 50 61 hvcurveto
          -6 -11 -5 -9 -3 -7 rrcurveto
          -8 -19 -6 -13 -12 vvcurveto
          -8 2 -7 5 -8 vhcurveto
          -6 2 4 -2 4 hhcurveto
          4 4 2 4 2 hvcurveto
          4 5 4 -9 13 24 11 22 88 130 89 105 52 62 76 87 63 71 61 -2 rcurveline
          -44 callsubr
          -30 0 -26 hhcurveto
          -16 hlineto
          27 30 20 21 5 5 rrcurveto
          9 8 4 9 9 vvcurveto
          8 -3 8 -6 8 vhcurveto
          -593 -419 rmoveto
          67 83 60 18 41 hhcurveto
          24 17 -7 -6 11 hvcurveto
          -19 -23 rlineto
          -86 -80 -146 -135 -94 hhcurveto
          -9 -8 1 4 -6 hvcurveto
          4 37 27 52 95 78 rrcurveto
          endchar
        </CharString>
        <CharString name="degree">
          -234 276 680 rmoveto
          -30 -2 -70 -36 -1 -82 rrcurveto
          -72 61 -20 34 56 48 44 69 79 -59 18 -13 vhcurveto
          -7 -6 2 -13 hhcurveto
          -44 -114 rmoveto
          33 22 27 19 9 vhcurveto
          27 callgsubr
          1 hhcurveto
          -2 3 0 0 -14 callsubr
          32 -13 -44 -43 -23 -21 -24 -26 -14 21 34 hvcurveto
          endchar
        </CharString>
        <CharString name="dieresis">
          -53 276 537 rmoveto
          -105 callgsubr
        </CharString>
        <CharString name="divide">
          -43 400 313 rmoveto
          20 21 -49 4 -57 hhcurveto
          -25 hlineto
          -80 -84 -3 -5 -24 hvcurveto
          -8 -1 -9 -12 -5 -9 -6 -10 -8 -32 callsubr
          1 1 3 10 1 1 rrcurveto
          -176 -110 rmoveto
          30 17 -12 11 -24 hhcurveto
          -5 -8 1 -5 -12 hvcurveto
          -15 -6 -33 -31 -8 -15 -6 -10 2 -11 7 -6 rrcurveto
          -5 4 9 -4 10 hhcurveto
          6 13 2 3 11 hvcurveto
          17 5 20 26 7 15 rrcurveto
          135 233 rmoveto
          30 16 -11 11 -24 hhcurveto
          -5 -9 1 -5 -12 hvcurveto
          -14 -6 -33 -31 -9 -15 -5 -10 1 -11 8 -6 rrcurveto
          -5 4 9 -4 10 hhcurveto
          6 13 2 3 10 hvcurveto
          17 5 20 26 8 15 rrcurveto
          endchar
        </CharString>
        <CharString name="dollar">
          -18 159 317 rmoveto
          6 -10 13 5 -21 hhcurveto
          -20 -77 -27 -28 -25 hvcurveto
          -20 -23 -9 -23 -20 vvcurveto
          -8 2 -7 6 -21 vhcurveto
          5 -14 24 -10 36 -2 -36 -48 -27 -37 -2 -6 rrcurveto
          -3 -5 -1 -3 -2 vvcurveto
          -3 4 1 5 -1 vhcurveto
          -1 7 -1 -9 6 2 4 2 -42 callsubr
          -3 31 callsubr
          4 3 12 9 hvcurveto
          73 102 50 6 63 16 72 33 rlinecurve
          128 58 20 42 24 vvcurveto
          8 -2 6 -1 4 vhcurveto
          -3 7 -3 7 -5 6 -3 15 -10 15 -20 11 -21 11 -26 7 -28 7 20 27 27 37 25 36 rrcurveto
          1 11 11 1 9 hhcurveto
          12 9 -1 -3 4 hvcurveto
          -8 13 8 -4 6 hhcurveto
          6 2 5 7 3 hvcurveto
          3 9 2 9 9 vvcurveto
          5 -1 4 -1 4 vhcurveto
          -17 14 -5 0 0 vvcurveto
          -41 -3 15 22 13 18 7 8 rlinecurve
          25 30 -5 7 10 14 rrcurveto
          4 5 2 5 3 vvcurveto
          5 -4 3 -5 -4 -6 -3 -6 -4 vhcurveto
          -88 -115 -72 -8 -100 -16 -54 -29 rlinecurve
          -23 -13 -24 -18 -16 vvcurveto
          -63 callgsubr
          -45 callgsubr
          -16 3 -7 1 -12 vhcurveto
          2 -16 12 -8 65 -14 13 -3 14 -3 13 -2 -122 -161 rcurveline
          -1 -9 -9 0 -8 hhcurveto
          -18 -15 2 5 -11 hvcurveto
          -1 2 0 3 3 vvcurveto
          33 71 30 11 3 vhcurveto
          13 2 13 -21 callgsubr
          -62 callgsubr
          4 callsubr
          222 31 rmoveto
          -2 -73 callsubr
          -22 -39 -92 -45 -84 -22 42 59 41 56 23 29 rrcurveto
          52 -7 41 -6 -19 vvcurveto
          -28 175 rmoveto
          -67 -85 -49 9 -47 6 -23 10 rlinecurve
          37 26 82 22 67 12 rrcurveto
          endchar
        </CharString>
        <CharString name="dotaccent">
          -53 243 537 rmoveto
          -3 -9 -2 -12 callsubr
          -19 15 -8 27 vhcurveto
          1 3 0 1 hhcurveto
          6 6 0 5 13 hvcurveto
          17 8 34 38 7 19 rrcurveto
          1 -8 callgsubr
          3 vvcurveto
          9 -5 10 -10 6 vhcurveto
          6 -7 -9 5 -15 hhcurveto
          -8 -14 -3 -4 -14 hvcurveto
          -20 -6 -18 -32 -6 -19 rrcurveto
          endchar
        </CharString>
        <CharString name="dotlessi">
          -98 callgsubr
          endchar
        </CharString>
        <CharString name="dotlessj">
          -285 -296 -94 -60 callgsubr
          2 hlineto
          -1 3 4 0 3 hhcurveto
          37 58 36 33 42 hvcurveto
          151 118 180 231 35 55 35 56 54 102 2 1 1 1 rcurveline
          2 -4 3 -3 vhcurveto
          -46 callgsubr
          hhcurveto
          -1 -19 callgsubr
          -3 -1 2 3 -1 hvcurveto
          3 -2 -11 9 -3 -2 17 callgsubr
          hhcurveto
          3 -4 -1 4 9 callsubr
          rlineto
          17 callgsubr
          -5 callgsubr
          -3 callsubr
          -48 callgsubr
          hvcurveto
          -3 -3 -7 -3 -1 hhcurveto
          -2 22 callgsubr
          -108 -168 -56 -65 -63 -85 -103 -136 -116 -120 -65 -22 rrcurveto
          -2 5 -2 5 6 vvcurveto
          11 4 15 13 20 vhcurveto
          20 32 13 -2 3 4 rrcurveto
          endchar
        </CharString>
        <CharString name="e">
          -104 callsubr
          endchar
        </CharString>
        <CharString name="eacute">
          -104 callsubr
          236 314 -106 callsubr
        </CharString>
        <CharString name="ebreve">
          -104 callsubr
          -34 324 -100 callsubr
        </CharString>
        <CharString name="ecaron">
          -104 callsubr
          77 185 rmoveto
          39 27 124 92 6 16 rrcurveto
          1 1 -1 callgsubr
          vvcurveto
          6 -9 1 -8 vhcurveto
          -4 -5 -1 -4 -2 -4 -45 callsubr
          1 -4 -14 3 -5 hhcurveto
          -17 -58 -66 -33 -51 hvcurveto
          46 -17 12 54 -24 hhcurveto
          -1 -9 -10 -1 -11 hhcurveto
          -7 -21 26 callgsubr
          hvcurveto
          -1 -2 0 -59 callgsubr
          -11 9 -15 6 -33 vhcurveto
          16 -82 -4 6 8 -11 rrcurveto
          -2 1 10 0 1 2 12 -21 callsubr
          14 -41 callsubr
          10 7 4 7 hvcurveto
          endchar
        </CharString>
        <CharString name="ecircumflex">
          -104 callsubr
          89 325 -107 callgsubr
        </CharString>
        <CharString name="edieresis">
          -104 callsubr
          66 256 rmoveto
          -105 callgsubr
        </CharString>
        <CharString name="edotaccent">
          -104 callsubr
          31 256 rmoveto
          -3 -9 -2 -12 callsubr
          -19 15 -8 27 vhcurveto
          1 3 0 1 hhcurveto
          6 6 0 5 13 hvcurveto
          17 8 34 38 7 19 rrcurveto
          1 -8 callgsubr
          3 vvcurveto
          9 -5 10 -10 6 vhcurveto
          6 -7 -9 5 -15 hhcurveto
          -8 -14 -3 -4 -14 hvcurveto
          -20 -6 -18 -32 -6 -19 rrcurveto
          endchar
        </CharString>
        <CharString name="egrave">
          -104 callsubr
          -21 278 -101 callgsubr
        </CharString>
        <CharString name="eight">
          -51 568 643 rmoveto
          4 -6 -3 4 -6 -16 callgsubr
          -4 -6 hvcurveto
          -9 -6 rlineto
          30 -16 -45 32 -63 hhcurveto
          -21 -23 -3 -9 -25 hvcurveto
          -79 -29 -56 -62 -85 vvcurveto
          -30 6 -32 14 -34 vhcurveto
          -56 -44 -101 -76 -52 -46 rrcurveto
          -57 -50 -22 -55 -47 vvcurveto
          -15 2 -15 4 -13 vhcurveto
          -54 17 47 -39 93 hhcurveto
          121 135 112 137 17 -2 16 -3 18 hvcurveto
          -9 46 -25 51 -18 50 92 74 64 45 108 81 rrcurveto
          4 3 7 8 12 vvcurveto
          4 -1 3 -3 2 vhcurveto
          -310 -381 rmoveto
          -56 -16 -62 -55 -43 vhcurveto
          -36 -46 -45 -15 -36 hhcurveto
          -42 -28 21 35 15 5 17 11 19 hvcurveto
          52 89 123 78 61 44 rrcurveto
          7 -27 9 -38 -41 vvcurveto
          23 203 rmoveto
          -3 16 -2 16 15 vvcurveto
          35 11 34 31 30 vhcurveto
          36 37 37 14 33 hhcurveto
          36 30 -17 -21 14 hvcurveto
          -51 -33 -96 -64 -77 -61 rrcurveto
          endchar
        </CharString>
        <CharString name="ellipsis">
          -11 -20 48 rmoveto
          -93 callsubr
          164 hmoveto
          -93 callsubr
          164 hmoveto
          -93 callsubr
          endchar
        </CharString>
        <CharString name="emacron">
          -104 callsubr
          225 268 -92 callsubr
        </CharString>
        <CharString name="emdash">
          497 959 230 rmoveto
          7 -4 10 -13 -299 -520 -1 -8 -146 vhcurveto
          -15 -5 -13 -20 -14 3 callsubr
          -6 14 50 817 4 1 67 vhcurveto
          22 1 37 13 25 vvcurveto
          endchar
        </CharString>
        <CharString name="endash">
          -3 437 230 rmoveto
          7 -4 10 -13 -131 -228 -1 -8 -66 vhcurveto
          -15 -5 -13 -20 -14 3 callsubr
          -6 14 21 345 4 1 28 vhcurveto
          22 1 37 13 25 vvcurveto
          endchar
        </CharString>
        <CharString name="eng">
          -46 403 264 rmoveto
          24 31 16 28 24 vvcurveto
          12 -1 41 -22 vhcurveto
          5 -5 -8 3 -9 hhcurveto
          -68 -129 -98 -60 -78 hvcurveto
          33 42 33 38 37 33 rrcurveto
          10 9 1 8 8 7 -3 1 5 vvcurveto
          1 -1 callgsubr
          2 vhcurveto
          23 callgsubr
          0 5 callsubr
          -3 -4 4 vhcurveto
          4 -5 2 4 -7 hhcurveto
          0 -2 2 -2 -10 callgsubr
          vhcurveto
          -8 -5 -87 -81 -44 -50 -45 -51 -114 -150 -13 -27 rrcurveto
          -2 -4 10 callsubr
          3 callgsubr
          -45 callgsubr
          -11 0 -2 23 callsubr
          5 -5 -4 -5 5 -4 rrcurveto
          1 -1 0 0 -5 -37 callgsubr
          -10 4 2 callsubr
          vhcurveto
          7 10 13 20 11 14 32 37 119 123 59 41 rrcurveto
          81 118 54 22 25 hhcurveto
          5 4 -1 -2 3 hvcurveto
          -57 -86 -100 -129 -67 -82 -108 -132 -114 -121 -65 -22 rrcurveto
          -2 5 -2 5 6 vvcurveto
          11 4 15 13 20 vhcurveto
          20 32 13 -2 3 4 rrcurveto
          -84 callgsubr
          2 hlineto
          -1 3 4 0 3 hhcurveto
          37 58 36 33 42 hvcurveto
          153 120 149 199 109 159 rrcurveto
          endchar
        </CharString>
        <CharString name="eogonek">
          -104 315 25 callgsubr
          2 14 rlineto
          4 -1 2 -2 -4 -6 -5 -9 -9 vhcurveto
          -99 -102 -90 -38 -53 hhcurveto
          -14 29 callsubr
          -8 hvcurveto
          -3 7 -1 8 9 vvcurveto
          31 18 37 34 50 vhcurveto
          -7 13 25 -6 19 hhcurveto
          75 166 72 97 30 -26 21 -31 -3 -1 29 callgsubr
          hvcurveto
          24 callsubr
          1 -7 hhcurveto
          -65 -101 -43 -98 -89 hvcurveto
          -56 -62 -20 -57 -45 vvcurveto
          -70 46 -46 43 -11 vhcurveto
          -61 -33 -57 -46 -57 -90 callsubr
          40 81 57 54 24 hvcurveto
          18 8 19 9 15 11 41 30 -9 6 42 35 43 35 12 40 5 22 rrcurveto
          -69 106 rmoveto
          -40 -66 -47 -22 -33 hhcurveto
          -5 -5 0 1 -5 hvcurveto
          51 34 111 92 72 hhcurveto
          7 5 -2 -4 3 hvcurveto
          -1 -17 -15 -26 -55 -33 rrcurveto
          endchar
        </CharString>
        <CharString name="equal">
          -43 449 381 rmoveto
          2 3 0 2 3 vvcurveto
          15 -35 3 -49 vhcurveto
          -45 hlineto
          -80 -72 -6 -29 hhcurveto
          -7 -17 -18 callsubr
          59 73 -1 -1 86 hvcurveto
          22 1 5 -1 9 12 rrcurveto
          1 13 18 1 vvcurveto
          -84 -127 rmoveto
          2 3 -66 callsubr
          11 -19 1 -31 vhcurveto
          -11 -11 0 -57 hhcurveto
          -80 -75 -3 -5 -24 hvcurveto
          -6 -1 -16 -13 -6 vvcurveto
          -74 callgsubr
          1 vhcurveto
          1 -2 1 -3 -2 -8 -6 -9 -5 vvcurveto
          -3 2 -1 5 35 callgsubr
          59 63 -1 -1 86 hvcurveto
          22 1 12 1 9 12 rrcurveto
          4 5 -47 callsubr
          2 -1 0 callgsubr
          vhcurveto
          endchar
        </CharString>
        <CharString name="eth">
          -94 26 50 rmoveto
          -6 -6 0 2 -6 hvcurveto
          -8 7 -4 12 15 vvcurveto
          8 1 8 3 10 vhcurveto
          26 78 101 93 144 44 rrcurveto
          12 6 13 -6 11 3 -40 callsubr
          9 2 4 5 vvcurveto
          2 0 0 callgsubr
          vhcurveto
          6 -3 -7 2 -8 hhcurveto
          -118 -215 -130 -147 -29 9 -32 20 -18 hvcurveto
          28 callgsubr
          -14 38 hhcurveto
          14 callsubr
          44 -10 40 -15 35 vhcurveto
          34 14 34 15 30 13 rrcurveto
          14 6 4 4 4 vvcurveto
          6 -9 7 -1 vhcurveto
          2 4 17 callgsubr
          6 rrcurveto
          8 4 -2 11 -9 hhcurveto
          -12 -21 -9 -3 -7 hvcurveto
          -85 -36 -21 30 -23 24 -22 14 rlinecurve
          -15 9 1 -14 -4 -8 -9 -3 -6 35 callsubr
          17 -18 15 -19 11 -20 -52 -22 -50 -21 -12 -8 rrcurveto
          -6 -4 0 -11 -2 vvcurveto
          -6 6 1 4 -4 vhcurveto
          -1 7 -4 17 callgsubr
          -8 -1 vvcurveto
          0 0 -3 4 12 52 20 25 59 vhcurveto
          10 -31 5 -33 -34 vvcurveto
          -119 -184 -247 -114 vhcurveto
          endchar
        </CharString>
        <CharString name="exclam">
          -319 342 682 rmoveto
          2 -2 3 -5 vhcurveto
          -3 -5 -1 -1 callsubr
          -3 0 2 -2 hvcurveto
          2 -2 -3 1 -4 hhcurveto
          -6 -9 -3 -5 -15 hvcurveto
          -24 -9 3 0 -5 -7 -40 -59 -54 -120 -38 -70 -40 -72 -90 -183 -7 -14 rrcurveto
          -2 -4 0 -3 -3 vvcurveto
          -1 0 -3 3 vhcurveto
          8 -2 -4 3 2 1 0 9 hhcurveto
          2 1 0 -1 17 callgsubr
          0 hvcurveto
          -9 callsubr
          2 4 8 5 12 12 vhcurveto
          12 11 74 138 11 22 65 131 88 149 44 60 rrcurveto
          11 15 4 9 5 vvcurveto
          -342 -634 rmoveto
          -93 callsubr
          endchar
        </CharString>
        <CharString name="exclamdown">
          -319 -174 -90 rmoveto
          -2 2 -3 5 vhcurveto
          3 5 1 4 hhcurveto
          2 3 0 -2 2 hvcurveto
          -2 2 3 -1 4 hhcurveto
          6 9 3 5 15 hvcurveto
          24 9 -3 0 5 7 40 59 54 120 38 70 40 72 90 183 7 14 rrcurveto
          2 4 0 3 3 vvcurveto
          1 0 3 -3 vhcurveto
          -8 2 4 -3 -2 -1 0 -9 hhcurveto
          -2 -1 0 1 1 1 1 0 hvcurveto
          2 -1 1 -2 -4 -8 -5 -12 -12 vhcurveto
          -12 -11 -74 -138 -11 -22 -65 -131 -88 -149 -44 -60 rrcurveto
          -11 -15 -4 -9 -5 vvcurveto
          342 634 rmoveto
          -6 -13 -3 -9 -7 vvcurveto
          -12 14 -8 17 6 7 1 4 10 vhcurveto
          17 8 38 36 10 18 rrcurveto
          2 4 2 5 5 vvcurveto
          7 -3 7 -5 4 vhcurveto
          5 -6 -6 6 -13 hhcurveto
          -7 -9 -2 -4 -13 hvcurveto
          -20 -6 -23 -31 -9 -18 rrcurveto
          endchar
        </CharString>
        <CharString name="f">
          -202 -4 callsubr
          -22 -2 -2 -25 hvcurveto
          87 64 128 152 71 hhcurveto
          4 -4 2 -6 -6 -57 callgsubr
          -8 7 vhcurveto
          20 -8 -22 12 -29 hhcurveto
          -101 -172 -214 -69 -53 hvcurveto
          -1 -7 -8 -1 -7 -72 callgsubr
          21 33 123 190 67 101 34 callgsubr
        </CharString>
        <CharString name="fi">
          -30 496 402 rmoveto
          -6 4 4 0 -6 5 rrcurveto
          3 -3 3 callgsubr
          -2 27 callsubr
          hhcurveto
          -2 -3 27 callsubr
          hhcurveto
          7 -16 -18 3 -17 hhcurveto
          -38 -52 -2 -4 -64 hvcurveto
          91 72 139 144 81 hhcurveto
          7 7 -2 -1 4 hvcurveto
          2 -4 2 -4 -5 -57 callgsubr
          -7 7 vhcurveto
          -7 6 -6 4 -5 3 rrcurveto
          12 -11 -19 7 -27 hhcurveto
          -127 -173 -206 -73 -57 hvcurveto
          -1 -26 callsubr
          -4 hhcurveto
          -117 -10 -1 -19 -8 -1 rrcurveto
          -14 -1 -5 -20 callsubr
          -3 5 -4 5 -3 vhcurveto
          -6 7 1 -10 31 hhcurveto
          9 12 1 2 16 hvcurveto
          28 3 -53 -74 -119 -169 -9 -46 rlinecurve
          -76 callgsubr
          22 34 125 195 64 94 74 4 80 4 42 1 -59 -60 -97 -105 -16 -23 -23 -32 -52 -70 -7 -77 callgsubr
          -11 2 -9 6 -1 vhcurveto
          2 -3 -13 -10 15 hvcurveto
          -1 -65 callsubr
          6 0 11 3 4 4 -6 6 hhcurveto
          6 7 4 10 10 hvcurveto
          6 5 15 31 4 9 8 19 135 206 96 -79 callsubr
          endchar
        </CharString>
        <CharString name="five">
          57 119 206 rmoveto
          7 -5 3 -6 -16 -83 -15 -30 -40 vhcurveto
          -37 -28 -12 -29 -27 vvcurveto
          -51 45 -45 96 53 68 14 35 84 vhcurveto
          203 86 40 134 61 vvcurveto
          11 -1 8 -2 6 vhcurveto
          -5 15 -5 9 -8 8 -10 33 -24 25 -53 17 rrcurveto
          6 -22 -27 3 -28 hhcurveto
          -40 -42 -6 -8 -32 hvcurveto
          32 38 45 56 27 31 118 12 96 12 24 3 24 3 -4 2 5 14 rrcurveto
          7 3 2 2 31 callgsubr
          -68 callsubr
          8 2 1 3 3 vvcurveto
          4 -3 6 -2 7 vhcurveto
          -2 10 -12 13 -32 5 rrcurveto
          -3 -5 1 -5 hhcurveto
          -50 -140 -18 -2 -32 hvcurveto
          -1 -1 1 -1 -1 17 callgsubr
          hhcurveto
          -2 -4 -7 -9 -3 hvcurveto
          -25 -38 -146 -194 -18 -21 rrcurveto
          -5 -6 -6 15 callgsubr
          -74 callgsubr
          2 -1 vhcurveto
          -4 5 2 -5 5 hhcurveto
          2 3 1 3 4 hvcurveto
          2 14 49 26 135 hhcurveto
          83 40 -11 -26 18 hvcurveto
          -58 -89 -96 -124 -57 vhcurveto
          -61 -132 -73 -20 -41 hhcurveto
          -18 -12 3 6 -8 hvcurveto
          65 123 41 18 7 vhcurveto
          10 4 4 5 callgsubr
          endchar
        </CharString>
        <CharString name="fl">
          -30 -4 callsubr
          -20 -1 -2 -24 hvcurveto
          91 71 141 147 82 hhcurveto
          7 7 -1 -1 2 hvcurveto
          11 -13 1 -25 1 -22 -90 -111 -139 -165 -116 -145 -67 -84 -12 -50 -2 -7 rrcurveto
          -5 4 -2 -8 vvcurveto
          -5 7 -3 5 -3 vhcurveto
          -2 8 -3 -11 9 hhcurveto
          9 19 6 7 1 hvcurveto
          1 hlineto
          -35 callsubr
          7 4 hvcurveto
          5 7 117 163 52 68 52 67 214 286 12 25 -62 callsubr
          -6 9 4 0 -7 6 rrcurveto
          3 -3 -4 2 -4 hhcurveto
          -4 -2 callsubr
          hvcurveto
          -31 -39 -3 9 -4 8 -5 5 rlinecurve
          -7 7 -6 4 -6 3 rrcurveto
          11 -11 -18 7 -27 hhcurveto
          -129 -178 -214 -69 -53 hvcurveto
          -1 -8 -7 -1 -8 -72 callgsubr
          22 34 126 196 63 94 34 callgsubr
        </CharString>
        <CharString name="florin">
          -103 56 165 rmoveto
          -199 -89 -72 -68 -42 hhcurveto
          -15 -9 8 12 24 20 19 8 15 hvcurveto
          4 -2 -2 22 -15 hhcurveto
          -18 -57 -42 -51 -24 16 -28 56 66 128 60 248 115 hvcurveto
          3 7 30 65 53 108 rrcurveto
          19 hlineto
          26 35 -1 -4 22 hvcurveto
          4 2 0 3 1 hvcurveto
          2 5 1 7 8 vvcurveto
          16 -4 18 -8 1 vhcurveto
          2 -23 -29 1 -20 hhcurveto
          171 87 60 63 39 hhcurveto
          24 3 -11 -17 -25 -20 -14 -8 -20 hvcurveto
          1 2 2 -27 15 -1 rrcurveto
          39 8 39 55 38 vvcurveto
          24 -16 30 -48 -67 -128 -56 -227 -112 vhcurveto
          -62 -11 -36 -20 -7 -5 7 -2 -4 vvcurveto
          -1 -7 -7 -3 -3 vhcurveto
          -1 -4 rlineto
          -3 -8 callgsubr
          10 24 5 5 35 vhcurveto
          -9 -19 -52 -99 -24 -54 rrcurveto
          endchar
        </CharString>
        <CharString name="four">
          99 694 650 rmoveto
          7 -4 -9 11 -8 hhcurveto
          -1 -46 callgsubr
          hvcurveto
          -18 -12 -202 -225 -82 -92 -52 -1 -62 -5 -70 -9 49 28 140 108 103 91 rrcurveto
          58 65 20 48 5 hhcurveto
          8 4 12 9 6 hvcurveto
          -65 callsubr
          2 vvcurveto
          3 -3 2 -6 -4 -6 -2 -4 -5 vhcurveto
          -9 -9 -1 7 -18 -16 -19 -17 -241 -218 -232 -106 rrcurveto
          -14 -6 1 callgsubr
          -49 callgsubr
          0 29 callgsubr
          -1 vhcurveto
          -5 -2 -8 -1 -8 -17 8 -16 -11 vvcurveto
          -48 callsubr
          4 7 192 25 -3 86 vhcurveto
          -55 -70 -88 -119 -11 -25 rrcurveto
          -3 -7 -3 -12 -12 vvcurveto
          -10 2 -9 6 -5 vhcurveto
          13 -10 12 1 9 -7 rrcurveto
          -2 2 0 callgsubr
          hhcurveto
          7 8 12 24 12 hvcurveto
          13 24 109 141 69 92 rrcurveto
          39 21 -2 -4 21 hvcurveto
          5 9 13 16 15 hvcurveto
          10 11 13 10 6 vvcurveto
          0 callgsubr
          -4 1 vhcurveto
          -14 3 -26 4 -38 2 61 74 154 176 13 20 rrcurveto
          6 10 4 4 7 vvcurveto
          5 -3 6 -5 11 vhcurveto
          endchar
        </CharString>
        <CharString name="fraction">
          -243 534 649 -87 callsubr
          endchar
        </CharString>
        <CharString name="g">
          -97 callsubr
          endchar
        </CharString>
        <CharString name="gbreve">
          -88 callgsubr
          -77 247 -100 callsubr
        </CharString>
        <CharString name="gcircumflex">
          -88 callgsubr
          46 248 -107 callgsubr
        </CharString>
        <CharString name="gcommaaccent">
          -97 callsubr
          2 176 rmoveto
          -72 callsubr
        </CharString>
        <CharString name="gdotaccent">
          -97 callsubr
          9 199 rmoveto
          -3 -9 -2 -12 callsubr
          -19 15 -8 27 vhcurveto
          1 3 0 1 hhcurveto
          6 6 0 5 13 hvcurveto
          17 8 34 38 7 19 rrcurveto
          1 -8 callgsubr
          3 vvcurveto
          9 -5 10 -10 6 vhcurveto
          6 -7 -9 5 -15 hhcurveto
          -8 -14 -3 -4 -14 hvcurveto
          -20 -6 -18 -32 -6 -19 rrcurveto
          endchar
        </CharString>
        <CharString name="germandbls">
          7 130 103 rmoveto
          2 1 1 4 4 vvcurveto
          7 -2 8 -1 5 vhcurveto
          3 -2 -2 2 -5 hhcurveto
          -6 -8 1 -6 -11 hvcurveto
          -31 -19 -35 -31 -34 vvcurveto
          -14 9 -15 11 -14 vhcurveto
          -16 13 11 0 5 hhcurveto
          6 13 0 1 8 hvcurveto
          130 18 205 136 146 vvcurveto
          94 -82 -20 -39 25 vhcurveto
          44 32 228 54 132 vvcurveto
          26 -30 19 -11 -7 13 -47 -40 -40 vhcurveto
          -64 -64 -116 -19 -57 -61 rrcurveto
          -5 -5 -4 -13 -12 vvcurveto
          -14 8 -10 6 -13 vhcurveto
          7 -17 3 -9 25 -7 47 -12 8 -3 11 -16 -36 -102 -143 -91 -91 -34 rrcurveto
          0 -4 -1 -5 -4 -6 0 3 18 28 18 5 2 vhcurveto
          439 535 rmoveto
          30 -21 19 -47 -150 -216 -290 -14 -10 vhcurveto
          -22 -29 -172 -236 -11 -56 rrcurveto
          -76 callgsubr
          24 37 142 221 58 84 rrcurveto
          81 56 171 192 93 hhcurveto
          10 hlineto
          11 -2 8 -6 2 -13 rrcurveto
          -6 3 -3 3 4 4 5 13 vhcurveto
          endchar
        </CharString>
        <CharString name="grave">
          -53 241 559 -101 callgsubr
        </CharString>
        <CharString name="greater">
          -43 166 452 rmoveto
          -10 -8 -6 -2 -9 vvcurveto
          -14 19 -13 28 -19 vhcurveto
          63 -41 24 -18 20 -13 -63 -25 -76 -32 -112 -45 rrcurveto
          -20 -8 -11 -3 -7 -23 -12 -21 -4 vvcurveto
          -7 10 0 4 18 37 17 17 41 vhcurveto
          145 61 48 17 35 20 7 2 21 10 3 6 3 -4 callgsubr
          2 4 rrcurveto
          6 11 9 3 6 vvcurveto
          9 -113 76 -55 38 vhcurveto
          20 -29 -2 5 -12 hhcurveto
          -11 -10 -9 -11 hvcurveto
          endchar
        </CharString>
        <CharString name="greaterequal">
          -43 286 85 rmoveto
          13 11 -67 callgsubr
          -108 358 rmoveto
          -10 -8 -9 -6 -9 vvcurveto
          -14 19 -13 29 -19 vhcurveto
          45 -30 24 -16 14 -6 20 -12 rlinecurve
          -65 -26 -78 -27 -62 -25 -40 -16 rcurveline
          -20 -8 -11 -4 -6 vvcurveto
          -1 -19 -5 -14 -3 vvcurveto
          -9 1 15 -4 6 hhcurveto
          18 36 15 16 42 hvcurveto
          64 25 70 28 35 14 38 18 rlinecurve
          2 27 10 7 4 hvcurveto
          1 2 1 1 1 vvcurveto
          4 10 11 1 6 vhcurveto
          6 8 0 0 1 vvcurveto
          9 -113 74 -54 38 vhcurveto
          -21 16 -8 6 -9 2 -5 1 rlinecurve
          -9 -1 -4 -7 -4 hvcurveto
          -2 -3 0 -3 -1 -2 rrcurveto
          endchar
        </CharString>
        <CharString name="guillemotleft">
          22 244 396 rmoveto
          -11 -6 -143 -97 -56 -35 -22 -11 -2 -6 -9 -81 callgsubr
          26 19 142 100 17 9 rrcurveto
          5 -52 callgsubr
          220 hmoveto
          -12 -6 -155 -97 -60 -35 -24 -11 -2 -6 -10 -81 callgsubr
          29 19 157 100 18 9 rrcurveto
          6 -52 callgsubr
          endchar
        </CharString>
        <CharString name="guillemotright">
          22 212 64 rmoveto
          11 6 143 97 56 35 22 11 2 6 9 -81 callsubr
          -26 -19 -142 -100 -17 -9 rrcurveto
          -5 -53 callsubr
          -220 hmoveto
          12 6 155 97 60 35 24 11 2 6 10 -81 callsubr
          -29 -19 -157 -100 -18 -9 rrcurveto
          -6 -53 callsubr
          endchar
        </CharString>
        <CharString name="guilsinglleft">
          -178 264 396 rmoveto
          -12 -6 -155 -97 -60 -35 -24 -11 -2 -6 -10 -81 callgsubr
          29 19 157 100 18 9 rrcurveto
          6 -52 callgsubr
          endchar
        </CharString>
        <CharString name="guilsinglright">
          -178 -8 64 rmoveto
          12 6 155 97 60 35 24 11 2 6 10 -81 callsubr
          -29 -19 -157 -100 -18 -9 rrcurveto
          -6 -53 callsubr
          endchar
        </CharString>
        <CharString name="h">
          -62 421 334 rmoveto
          10 -1 11 -3 10 vhcurveto
          0 1 1 1 vvcurveto
          7 -9 14 -10 8 vhcurveto
          6 -9 -12 3 -14 hhcurveto
          -59 -95 -55 -74 -86 hvcurveto
          53 74 109 120 29 38 35 46 67 80 10 14 rrcurveto
          4 5 -42 callsubr
          vvcurveto
          -62 callgsubr
          -53 callgsubr
          -4 -2 9 callsubr
          0 2 hvcurveto
          0 1 20 callsubr
          vvcurveto
          -66 callgsubr
          -3 -8 -5 -5 hhcurveto
          0 -1 0 1 -38 callsubr
          2 -1 1 -6 vhcurveto
          -8 7 11 -8 hhcurveto
          -5 -6 -2 -5 -5 hvcurveto
          -8 -10 -135 -177 -78 -91 -79 -91 -139 -198 -12 -20 rrcurveto
          -11 -21 -2 -22 -8 -7 -6 -2 -5 vvcurveto
          -3 1 -4 4 -5 vhcurveto
          -9 5 5 -5 6 hhcurveto
          6 7 6 12 10 hvcurveto
          18 24 22 40 172 173 rrcurveto
          49 50 105 80 55 hhcurveto
          6 5 -1 -2 5 hvcurveto
          -3 -19 -43 -40 -77 -81 rrcurveto
          -89 -91 -42 -69 -37 vvcurveto
          -4 1 3 callgsubr
          vhcurveto
          4 -11 -4 -8 6 -7 rrcurveto
          -3 -11 callgsubr
          4 6 9 4 5 hhcurveto
          4 -1 -6 -5 -2 0 -1 1 1 1 2 4 3 hvcurveto
          11 17 34 71 67 67 rrcurveto
          66 66 68 83 35 vvcurveto
          endchar
        </CharString>
        <CharString name="hbar">
          -62 427 648 rmoveto
          4 5 -42 callsubr
          vvcurveto
          -62 callgsubr
          -53 callgsubr
          -4 -2 9 callsubr
          0 2 hvcurveto
          0 1 20 callsubr
          vvcurveto
          -66 callgsubr
          -3 -8 -5 -5 hhcurveto
          0 -1 0 1 1 1 2 2 -3 callgsubr
          -4 hlineto
          -8 7 11 -8 hhcurveto
          -5 -6 -2 -5 -5 hvcurveto
          -86 -111 rlineto
          -118 -7 2 -13 -3 -50 callsubr
          16 29 1 2 37 hvcurveto
          -30 -38 -31 -38 -24 -28 -79 -91 -139 -198 -12 -20 rrcurveto
          -11 -21 -2 -22 -8 -7 -6 -2 -5 vvcurveto
          -3 1 -4 4 -5 vhcurveto
          -9 5 5 -5 6 hhcurveto
          6 7 6 12 10 hvcurveto
          18 24 22 40 172 173 rrcurveto
          49 50 105 80 55 hhcurveto
          6 5 -1 -2 5 hvcurveto
          -3 -19 -43 -40 -77 -81 rrcurveto
          -89 -91 -42 -69 -37 vvcurveto
          -4 1 3 callgsubr
          vhcurveto
          4 -11 -4 -8 6 -7 rrcurveto
          -3 -11 callgsubr
          4 6 9 4 5 hhcurveto
          4 -1 -6 -5 -2 0 -1 1 1 1 2 4 3 hvcurveto
          11 17 34 71 67 67 rrcurveto
          66 66 68 83 35 vvcurveto
          10 -1 11 -3 10 vhcurveto
          0 1 1 1 vvcurveto
          7 -9 14 -10 8 vhcurveto
          6 -9 -12 3 -14 hhcurveto
          -59 -95 -55 -74 -86 hvcurveto
          50 70 102 113 34 43 rrcurveto
          27 hlineto
          33 27 -2 16 hhcurveto
          6 callsubr
          1 33 callsubr
          vvcurveto
          -2 2 3 5 3 4 4 6 4 3 2 3 rrcurveto
          8 6 -30 0 -26 hhcurveto
          -25 -19 0 -1 -21 hvcurveto
          endchar
        </CharString>
        <CharString name="hcircumflex">
          -62 421 334 rmoveto
          10 -1 11 -3 10 vhcurveto
          0 1 1 1 vvcurveto
          7 -9 14 -10 8 vhcurveto
          6 -9 -12 3 -14 hhcurveto
          -59 -95 -55 -74 -86 hvcurveto
          53 74 109 120 29 38 35 46 67 80 10 14 rrcurveto
          4 5 -42 callsubr
          vvcurveto
          -62 callgsubr
          -53 callgsubr
          -4 -2 9 callsubr
          0 2 hvcurveto
          0 1 20 callsubr
          vvcurveto
          -66 callgsubr
          -3 -8 -5 -5 hhcurveto
          0 -1 0 1 -38 callsubr
          2 -1 1 -6 vhcurveto
          -8 7 11 -8 hhcurveto
          -5 -6 -2 -5 -5 hvcurveto
          -8 -10 -135 -177 -78 -91 -79 -91 -139 -198 -12 -20 rrcurveto
          -11 -21 -2 -22 -8 -7 -6 -2 -5 vvcurveto
          -3 1 -4 4 -5 vhcurveto
          -9 5 5 -5 6 hhcurveto
          6 7 6 12 10 hvcurveto
          18 24 22 40 172 173 rrcurveto
          49 50 105 80 55 hhcurveto
          6 5 -1 -2 5 hvcurveto
          -3 -19 -43 -40 -77 -81 rrcurveto
          -89 -91 -42 -69 -37 vvcurveto
          -4 1 3 callgsubr
          vhcurveto
          4 -11 -4 -8 6 -7 rrcurveto
          -3 -11 callgsubr
          4 6 9 4 5 hhcurveto
          4 -1 -6 -5 -2 0 -1 1 1 1 2 4 3 hvcurveto
          11 17 34 71 67 67 rrcurveto
          66 66 68 83 35 vvcurveto
          53 543 -107 callgsubr
        </CharString>
        <CharString name="hungarumlaut">
          -53 336 595 rmoveto
          -94 callgsubr
          127 hmoveto
          -94 callgsubr
          endchar
        </CharString>
        <CharString name="hyphen">
          -68 callgsubr
        </CharString>
        <CharString name="i">
          -82 callsubr
          endchar
        </CharString>
        <CharString name="iacute">
          -98 callgsubr
          218 208 -106 callsubr
        </CharString>
        <CharString name="ibreve">
          -98 callgsubr
          -52 218 -100 callsubr
        </CharString>
        <CharString name="icircumflex">
          -98 callgsubr
          71 219 -107 callgsubr
        </CharString>
        <CharString name="idieresis">
          -98 callgsubr
          48 150 rmoveto
          -105 callgsubr
        </CharString>
        <CharString name="igrave">
          -98 callgsubr
          -39 172 -101 callgsubr
        </CharString>
        <CharString name="ij">
          -64 -82 callsubr
          -502 -671 -60 callgsubr
          -1 5 4 0 3 hhcurveto
          37 58 36 33 42 hvcurveto
          151 118 180 231 35 55 35 56 54 102 2 1 1 1 rcurveline
          2 -4 3 -3 vhcurveto
          -46 callgsubr
          hhcurveto
          -1 -19 callgsubr
          -3 -1 2 3 -1 hvcurveto
          -2 3 -3 3 -11 6 rrcurveto
          -2 17 callgsubr
          hhcurveto
          -2 1 rlineto
          2 -2 -1 4 9 callsubr
          rlineto
          17 callgsubr
          -5 callgsubr
          -3 callsubr
          -48 callgsubr
          hvcurveto
          -3 -3 -7 -3 -1 hhcurveto
          -2 22 callgsubr
          -108 -168 -56 -65 -63 -85 -103 -136 -116 -120 -65 -22 rrcurveto
          -2 5 -2 5 6 vvcurveto
          11 4 15 13 20 vhcurveto
          20 32 13 -2 3 4 rrcurveto
          690 714 rmoveto
          12 -7 9 -4 11 vhcurveto
          6 -3 -3 2 -3 -34 callgsubr
          -1 hhcurveto
          -3 0 3 1 -6 hvcurveto
          -1 hlineto
          -5 -4 -3 -2 -4 hvcurveto
          -4 -3 -1 3 -5 -4 -4 -4 -42 -32 -7 -8 -8 -8 -1 -8 -5 -11 rrcurveto
          -2 -5 -1 -3 -4 -63 callgsubr
          -2 vvcurveto
          -2 vlineto
          -1 -3 rlineto
          -40 callsubr
          -4 vvcurveto
          -6 vlineto
          -7 3 -7 3 -3 vhcurveto
          -1 -46 callgsubr
          vvcurveto
          -6 7 -11 3 -18 callgsubr
          7 7 -3 6 hhcurveto
          24 33 38 25 19 hvcurveto
          13 19 2 15 10 vvcurveto
          endchar
        </CharString>
        <CharString name="imacron">
          -98 callgsubr
          207 162 -92 callsubr
        </CharString>
        <CharString name="iogonek">
          250 402 rmoveto
          -6 4 4 0 -6 5 rrcurveto
          3 -3 3 callgsubr
          -2 27 callsubr
          -35 callgsubr
          -3 -65 callgsubr
          hlineto
          -12 -6 -191 -194 -24 -32 -24 -32 -54 -70 -8 -77 callgsubr
          -7 1 -5 2 -4 vhcurveto
          -75 -32 -71 -48 -65 -90 callsubr
          48 63 28 55 19 hvcurveto
          6 2 7 2 10 10 6 5 15 31 4 9 9 19 143 206 102 -79 callsubr
          177 175 rmoveto
          4 9 14 18 17 vvcurveto
          12 -4 8 -3 6 vhcurveto
          7 -4 -19 4 -9 hhcurveto
          -20 -1 -70 -40 -14 -20 rrcurveto
          -7 -10 -1 -8 -7 -8 2 -6 -2 vvcurveto
          -22 6 -9 7 -9 vhcurveto
          -4 3 8 -1 10 hhcurveto
          10 11 2 2 5 hvcurveto
          12 7 29 24 2 2 10 10 13 10 5 9 rrcurveto
          endchar
        </CharString>
        <CharString name="itilde">
          -98 callgsubr
          194 220 -96 callgsubr
        </CharString>
        <CharString name="j">
          -285 -296 -94 -60 callgsubr
          -1 5 4 0 3 hhcurveto
          37 58 36 33 42 hvcurveto
          151 118 180 231 35 55 35 56 54 102 2 1 1 1 rcurveline
          2 -4 3 -3 vhcurveto
          -46 callgsubr
          hhcurveto
          -1 -19 callgsubr
          -3 -1 2 3 -1 hvcurveto
          -2 3 -3 3 -11 6 rrcurveto
          -2 17 callgsubr
          hhcurveto
          -2 1 rlineto
          2 -2 -1 4 9 callsubr
          rlineto
          17 callgsubr
          -5 callgsubr
          -3 callsubr
          -48 callgsubr
          hvcurveto
          -3 -3 -7 -3 -1 hhcurveto
          -2 22 callgsubr
          -108 -168 -56 -65 -63 -85 -103 -136 -116 -120 -65 -22 rrcurveto
          -2 5 -2 5 6 vvcurveto
          11 4 15 13 20 vhcurveto
          20 32 13 -2 3 4 rrcurveto
          690 714 rmoveto
          12 -7 9 -4 11 vhcurveto
          6 -3 -3 2 -3 -34 callgsubr
          -1 hhcurveto
          -3 0 3 1 -6 hvcurveto
          -1 hlineto
          -5 -4 -3 -2 -4 hvcurveto
          -4 -3 -1 3 -5 -4 -4 -4 -42 -32 -7 -8 -8 -8 -1 -8 -5 -11 rrcurveto
          -2 -5 -1 -3 -4 -63 callgsubr
          -2 vvcurveto
          -2 vlineto
          -1 -3 rlineto
          -40 callsubr
          -4 vvcurveto
          -6 vlineto
          -7 3 -7 3 -3 vhcurveto
          -1 -46 callgsubr
          vvcurveto
          -6 7 -11 3 -18 callgsubr
          7 7 -3 6 hhcurveto
          24 33 38 25 19 hvcurveto
          13 19 2 15 10 vvcurveto
          endchar
        </CharString>
        <CharString name="jcircumflex">
          -285 -296 -94 -60 callgsubr
          2 hlineto
          -1 3 4 0 3 hhcurveto
          37 58 36 33 42 hvcurveto
          151 118 180 231 35 55 35 56 54 102 2 1 1 1 rcurveline
          2 -4 3 -3 vhcurveto
          -46 callgsubr
          hhcurveto
          -1 -19 callgsubr
          -3 -1 2 3 -1 hvcurveto
          3 -2 -11 9 -3 -2 17 callgsubr
          hhcurveto
          3 -4 -1 4 9 callsubr
          rlineto
          17 callgsubr
          -5 callgsubr
          -3 callsubr
          -48 callgsubr
          hvcurveto
          -3 -3 -7 -3 -1 hhcurveto
          -2 22 callgsubr
          -108 -168 -56 -65 -63 -85 -103 -136 -116 -120 -65 -22 rrcurveto
          -2 5 -2 5 6 vvcurveto
          11 4 15 13 20 vhcurveto
          20 32 13 -2 3 4 rrcurveto
          557 716 -107 callgsubr
        </CharString>
        <CharString name="k">
          -4 438 152 rmoveto
          1 -4 -2 3 -5 hhcurveto
          -5 -8 -3 -7 -16 hvcurveto
          -14 -32 -72 -54 -58 hhcurveto
          -57 -21 80 56 -7 hvcurveto
          56 17 39 22 0 vvcurveto
          83 46 78 71 2 7 3 7 3 5 8 8 rrcurveto
          5 4 1 1 6 6 2 3 2 vvcurveto
          1 -1 2 -5 2 vhcurveto
          6 -4 4 -9 -9 -27 -14 -6 -5 vhcurveto
          -10 -13 -151 -104 -66 -19 120 165 148 160 16 30 rrcurveto
          2 4 -23 callgsubr
          3 -9 callsubr
          5 vhcurveto
          -2 7 -4 1 -4 5 rrcurveto
          4 -2 -2 3 -3 hhcurveto
          -4 -6 -2 -5 callgsubr
          -1 1 1 -4 hvcurveto
          -2 0 0 23 callgsubr
          -3 2 hvcurveto
          1 -1 -2 0 -2 hhcurveto
          -5 -6 -4 -11 -8 hvcurveto
          -28 -39 -138 -158 -52 -69 -113 -152 -141 -191 -7 -18 rrcurveto
          -1 -4 -1 15 callgsubr
          -5 1 -6 3 -2 vhcurveto
          -11 9 14 -14 15 hhcurveto
          4 6 1 9 6 hvcurveto
          28 43 74 100 57 78 rrcurveto
          -1 -6 1 -13 callgsubr
          -123 48 -99 62 64 164 150 24 -62 callgsubr
          -1 1 vhcurveto
          endchar
        </CharString>
        <CharString name="kcommaaccent">
          -4 438 152 rmoveto
          1 -4 -2 3 -5 hhcurveto
          -5 -8 -3 -7 -16 hvcurveto
          -14 -32 -72 -54 -58 hhcurveto
          -57 -21 80 56 -7 hvcurveto
          56 17 39 22 0 vvcurveto
          83 46 78 71 2 7 3 7 3 5 8 8 rrcurveto
          5 4 1 1 6 6 2 3 2 vvcurveto
          1 -1 2 -5 2 vhcurveto
          6 -4 4 -9 -9 -27 -14 -6 -5 vhcurveto
          -10 -13 -151 -104 -66 -19 120 165 148 160 16 30 rrcurveto
          2 4 -23 callgsubr
          3 -9 callsubr
          5 vhcurveto
          -2 7 -4 1 -4 5 rrcurveto
          4 -2 -2 3 -3 hhcurveto
          -4 -6 -2 -5 callgsubr
          -1 1 1 -4 hvcurveto
          -2 0 0 23 callgsubr
          -3 2 hvcurveto
          1 -1 -2 0 -2 hhcurveto
          -5 -6 -4 -11 -8 hvcurveto
          -28 -39 -138 -158 -52 -69 -113 -152 -141 -191 -7 -18 rrcurveto
          -1 -4 -1 15 callgsubr
          -5 1 -6 3 -2 vhcurveto
          -11 9 14 -14 15 hhcurveto
          4 6 1 9 6 hvcurveto
          28 43 74 100 57 78 rrcurveto
          -1 -6 1 -13 callgsubr
          -123 48 -99 62 64 164 150 24 -62 callgsubr
          -1 1 vhcurveto
          -365 -263 -102 callsubr
        </CharString>
        <CharString name="kgreenlandic">
          -4 421 139 rmoveto
          1 -4 -1 3 -5 hhcurveto
          -5 -7 -3 -6 -15 hvcurveto
          -12 -29 -66 -44 -53 hhcurveto
          -57 -21 80 56 -7 hvcurveto
          56 17 39 22 0 vvcurveto
          83 46 78 71 2 7 3 7 3 5 8 8 rrcurveto
          5 4 1 3 3 vvcurveto
          6 vlineto
          1 2 -23 callgsubr
          1 -1 2 -5 2 vhcurveto
          1 vlineto
          5 -4 4 -9 -9 -27 -14 -6 -5 vhcurveto
          -10 -14 -167 -114 -60 -11 46 64 40 53 6 11 rrcurveto
          2 4 -23 callgsubr
          3 -9 callsubr
          5 vhcurveto
          -2 7 -4 1 -4 5 rrcurveto
          4 -2 -2 3 -3 hhcurveto
          -4 -6 -2 -5 callgsubr
          -1 1 1 -4 hvcurveto
          -2 0 0 23 callgsubr
          -3 2 hvcurveto
          1 -1 -2 0 -2 hhcurveto
          -3 -3 -2 -7 -5 hvcurveto
          -16 -23 -90 -124 -30 -41 -64 -91 -81 -113 -4 -11 rrcurveto
          -1 -4 -1 15 callgsubr
          -5 1 -6 3 -2 vhcurveto
          -11 9 14 -14 15 hhcurveto
          4 6 1 9 6 hvcurveto
          18 30 52 72 32 48 58 85 rcurveline
          -1 -14 0 -9 -10 vvcurveto
          -123 48 -99 62 59 152 139 22 -62 callgsubr
          -1 1 vhcurveto
          endchar
        </CharString>
        <CharString name="l">
          -92 callgsubr
          endchar
        </CharString>
        <CharString name="lacute">
          -92 callgsubr
          201 204 -106 callsubr
        </CharString>
        <CharString name="lcaron">
          -207 -92 callgsubr
          153 -14 -102 callsubr
        </CharString>
        <CharString name="lcommaaccent">
          -92 callgsubr
          -493 -767 -102 callsubr
        </CharString>
        <CharString name="ldotaccent">
          -182 -92 callgsubr
          -72 -338 rmoveto
          -93 callsubr
          endchar
        </CharString>
        <CharString name="less">
          -43 284 157 rmoveto
          10 8 6 2 9 vvcurveto
          14 -19 13 -28 19 vhcurveto
          -63 41 -24 18 -20 13 63 25 76 32 112 45 rrcurveto
          20 8 11 3 7 23 12 21 4 vvcurveto
          7 -10 0 -4 -18 -37 -17 -17 -41 vhcurveto
          -145 -61 -48 -17 -35 -20 -7 -2 -21 -10 -3 -6 -3 -5 1 -5 -2 -4 rrcurveto
          -6 -11 -9 -3 -6 vvcurveto
          -9 113 -76 55 -38 vhcurveto
          -20 29 2 -5 12 hhcurveto
          11 10 9 11 hvcurveto
          endchar
        </CharString>
        <CharString name="lessequal">
          -43 306 167 rmoveto
          10 8 9 6 9 vvcurveto
          14 -19 13 -29 19 vhcurveto
          -45 30 -24 16 -16 8 -20 12 rlinecurve
          65 26 80 29 62 25 40 16 rcurveline
          20 8 11 4 6 vvcurveto
          1 19 5 14 3 vvcurveto
          9 -1 -13 2 -6 hhcurveto
          -18 -36 -15 -16 -42 hvcurveto
          -64 -25 -70 -28 -37 -16 -38 -18 rlinecurve
          -2 -27 -10 -7 -4 hvcurveto
          -1 -2 -1 -74 callsubr
          -4 -10 -11 -1 -6 vhcurveto
          -6 -8 0 0 -1 vvcurveto
          -9 113 -74 54 -38 vhcurveto
          21 -16 8 -6 9 -2 5 -1 rlinecurve
          9 1 4 7 4 hvcurveto
          -24 callsubr
          1 2 rrcurveto
          -8 -74 rmoveto
          4 3 -67 callgsubr
          endchar
        </CharString>
        <CharString name="logicalnot">
          -43 320 192 rmoveto
          22 3 18 23 13 hvcurveto
          41 71 18 32 12 23 8 3 5 4 5 7 1 1 3 10 10 9 rrcurveto
          -43 callsubr
          2 vvcurveto
          13 -42 3 -103 -80 -84 -3 -5 -24 vhcurveto
          -58 callsubr
          59 71 -1 -1 51 hvcurveto
          -37 -63 -5 -11 -33 -56 rrcurveto
          -3 -7 -2 -7 -7 vvcurveto
          -7 2 -5 6 -1 vhcurveto
          9 1 rlineto
          endchar
        </CharString>
        <CharString name="lslash">
          -221 458 656 rmoveto
          -6 9 4 0 -7 6 rrcurveto
          3 -3 -4 2 -4 hhcurveto
          -4 -2 callsubr
          hvcurveto
          -6 -8 -169 -196 -132 -161 rrcurveto
          -99 -32 -66 -29 0 vvcurveto
          -1 -9 16 -1 -1 -2 -1 -5 -12 -8 -27 callsubr
          -9 -3 -18 15 1 85 28 rcurveline
          -15 -19 -14 -17 -11 -15 -66 -85 -10 -49 -2 -7 rrcurveto
          -5 4 -2 -5 vvcurveto
          -3 vlineto
          -5 8 -3 6 -3 vhcurveto
          -2 8 -3 -11 10 hhcurveto
          10 21 6 7 1 hvcurveto
          1 hlineto
          -35 callsubr
          7 4 hvcurveto
          5 7 117 163 63 82 59 16 40 12 8 3 22 10 2 4 2 3 rrcurveto
          5 vlineto
          5 20 10 7 1 vvcurveto
          1 1 0 0 -1 2 rrcurveto
          -3 1 6 4 1 hvcurveto
          5 16 2 4 -48 -14 -40 -13 rlinecurve
          82 109 110 150 9 18 -62 callsubr
          endchar
        </CharString>
        <CharString name="m">
          170 407 342 rmoveto
          3 -2 12 -5 10 vhcurveto
          25 -2 -16 15 -25 hhcurveto
          -58 -111 -105 -73 -75 hvcurveto
          49 62 22 29 37 36 5 14 rlinecurve
          2 6 1 7 6 vvcurveto
          6 -1 6 -2 4 vhcurveto
          -4 7 2 4 -10 26 callsubr
          -3 -3 0 -2 hhcurveto
          -6 -5 -3 -3 -1 hvcurveto
          -4 -7 -9 6 -16 -18 -16 -18 -74 -86 -42 -53 -42 -53 -46 -60 -17 -24 rrcurveto
          -18 -24 -18 -19 -19 -10 -1 -13 callgsubr
          -7 1 -6 5 -6 vhcurveto
          -6 4 6 -3 8 hhcurveto
          14 17 20 30 22 hvcurveto
          17 19 24 28 36 38 rrcurveto
          145 139 141 101 30 hhcurveto
          5 4 -2 -2 3 hvcurveto
          -20 -16 -15 -25 -34 vhcurveto
          -32 -43 -152 -181 -7 -5 -7 -5 -4 -4 -4 -19 rrcurveto
          -1 -3 0 -20 callsubr
          -13 9 -4 5 -6 vhcurveto
          -8 7 10 -11 8 hhcurveto
          4 -2 5 6 4 hvcurveto
          -1 27 callgsubr
          2 hhcurveto
          4 2 5 4 31 47 135 123 rlinecurve
          125 115 89 69 35 4 rrcurveto
          1 6 4 0 5 hhcurveto
          -18 -58 -129 -119 -46 -69 rrcurveto
          -25 -37 -7 -29 -19 vvcurveto
          -9 1 -6 2 -5 vhcurveto
          -15 4 13 -8 3 hhcurveto
          0 -62 callgsubr
          vvcurveto
          3 1 3 4 -11 callgsubr
          -2 3 vhcurveto
          -2 2 2 -9 callgsubr
          0 6 4 2 hvcurveto
          2 -49 callsubr
          2 -1 1 hhcurveto
          1 2 1 6 1 hvcurveto
          2 8 0 13 16 27 20 34 132 162 15 23 rrcurveto
          15 22 18 35 24 vvcurveto
          10 -3 9 -5 8 vhcurveto
          11 -1 -15 13 -32 -4 -6 -1 -5 hhcurveto
          -51 -4 -121 -101 -54 -46 rrcurveto
          25 39 21 37 10 vvcurveto
          endchar
        </CharString>
        <CharString name="macron">
          -53 436 549 -92 callsubr
        </CharString>
        <CharString name="micro">
          -53 -38 63 rmoveto
          -6 -18 -2 -13 -11 vvcurveto
          -24 23 -9 11 46 63 58 82 71 vhcurveto
          -21 -40 -18 -20 -17 -31 rrcurveto
          -5 -8 -2 -5 callsubr
          -20 21 -11 7 18 21 11 6 4 vhcurveto
          24 44 35 65 47 67 53 76 56 74 41 59 rrcurveto
          1 1 3 6 1 vvcurveto
          8 -36 6 -16 -3 -3 -1 -2 -2 vhcurveto
          -308 -252 -86 -41 -18 hhcurveto
          -10 -5 6 11 17 13 30 20 27 hvcurveto
          66 95 114 135 9 11 4 5 2 -21 callsubr
          rrcurveto
          2 31 callgsubr
          1 vvcurveto
          -66 callgsubr
          -4 -10 -5 -20 -14 -17 4 -5 hhcurveto
          -23 -121 -165 -52 -37 hvcurveto
          -45 -65 -13 -29 -48 -68 -76 -107 rcurveline
          -33 -47 -12 -20 -3 -10 rrcurveto
          -2 -6 -1 -5 -4 vvcurveto
          -6 3 -2 4 6 7 3 5 8 vhcurveto
          9 15 13 4 13 hhcurveto
          14 1 11 11 8 hvcurveto
          34 56 51 82 33 61 rrcurveto
          endchar
        </CharString>
        <CharString name="minus">
          -43 400 313 rmoveto
          -43 callsubr
          2 vvcurveto
          13 -41 3 -73 -80 -85 -3 -5 -24 vhcurveto
          -7 -1 -9 -12 -6 -9 rrcurveto
          -3 -6 -4 -8 -41 callgsubr
          13 16 1 32 hhcurveto
          59 54 -1 -1 85 hvcurveto
          23 1 11 5 9 19 callsubr
          endchar
        </CharString>
        <CharString name="mu">
          -53 -38 63 rmoveto
          -6 -18 -2 -13 -11 vvcurveto
          -24 23 -9 11 46 63 58 82 71 vhcurveto
          -21 -40 -18 -20 -17 -31 rrcurveto
          -5 -8 -2 -5 callsubr
          -20 21 -11 7 18 21 11 6 4 vhcurveto
          24 44 35 65 47 67 53 76 56 74 41 59 rrcurveto
          1 1 3 6 1 vvcurveto
          8 -36 6 -16 -3 -3 -1 -2 -2 vhcurveto
          -308 -252 -86 -41 -18 hhcurveto
          -10 -5 6 11 17 13 30 20 27 hvcurveto
          66 95 114 135 9 11 4 5 2 -21 callsubr
          rrcurveto
          2 31 callgsubr
          1 vvcurveto
          -66 callgsubr
          -4 -10 -5 -20 -14 -17 4 -5 hhcurveto
          -23 -121 -165 -52 -37 hvcurveto
          -45 -65 -13 -29 -48 -68 -76 -107 rcurveline
          -33 -47 -12 -20 -3 -10 rrcurveto
          -2 -6 -1 -5 -4 vvcurveto
          -6 3 -2 4 6 7 3 5 8 vhcurveto
          9 15 13 4 13 hhcurveto
          14 1 11 11 8 hvcurveto
          34 56 51 82 33 61 rrcurveto
          endchar
        </CharString>
        <CharString name="multiply">
          -43 300 168 rmoveto
          8 5 4 6 8 vvcurveto
          15 -13 20 -10 26 vhcurveto
          -20 48 47 30 48 30 64 40 rlinecurve
          22 14 9 10 9 5 -7 6 3 vvcurveto
          2 9 0 0 1 vvcurveto
          3 -5 7 -3 -15 -47 -26 -32 -50 vhcurveto
          -89 -57 -22 49 -21 46 -9 10 rlinecurve
          1 -1 -1 0 -2 hhcurveto
          -6 -9 -3 -5 -7 hvcurveto
          -11 -7 -17 -13 -14 vvcurveto
          -74 callgsubr
          2 -3 vhcurveto
          4 -5 6 -11 9 -23 24 -58 rcurveline
          -78 -50 -82 -55 -17 -14 rrcurveto
          -4 -3 -3 -6 -12 vvcurveto
          -12 12 -15 10 5 5 1 4 7 vhcurveto
          13 9 17 12 36 23 23 14 39 25 38 24 13 -30 9 -22 17 -40 rrcurveto
          -9 5 7 -4 8 hhcurveto
          5 6 1 3 5 hvcurveto
          6 5 rlineto
          1 11 7 2 2 hvcurveto
          endchar
        </CharString>
        <CharString name="n">
          -46 237 -102 callgsubr
          endchar
        </CharString>
        <CharString name="nacute">
          -46 237 -102 callgsubr
          313 220 -106 callsubr
        </CharString>
        <CharString name="napostrophe">
          7 290 -102 callgsubr
          115 246 -102 callsubr
        </CharString>
        <CharString name="nbspace">
          -253 endchar
        </CharString>
        <CharString name="ncaron">
          -46 237 -102 callgsubr
          154 91 rmoveto
          39 27 124 92 6 16 rrcurveto
          1 1 -1 callgsubr
          vvcurveto
          6 -9 1 -8 vhcurveto
          -4 -5 -1 -4 -2 -4 -45 callsubr
          1 -4 -14 3 -5 hhcurveto
          -17 -58 -66 -33 -51 hvcurveto
          46 -17 12 54 -24 hhcurveto
          -1 -9 -10 -1 -11 hhcurveto
          -7 -21 26 callgsubr
          hvcurveto
          -1 -2 0 -59 callgsubr
          -11 9 -15 6 -33 vhcurveto
          16 -82 -4 6 8 -11 rrcurveto
          -2 1 10 0 1 2 12 -21 callsubr
          14 -41 callsubr
          10 7 4 7 hvcurveto
          endchar
        </CharString>
        <CharString name="ncommaaccent">
          -46 237 -102 callgsubr
          -170 -499 -102 callsubr
        </CharString>
        <CharString name="nine">
          16 678 645 rmoveto
          11 -5 8 -13 vhcurveto
          -5 -5 -1 -9 hhcurveto
          -3 0 -1 -12 -14 hvcurveto
          -14 -10 -2 10 -4 11 -8 11 rlinecurve
          8 -7 -35 20 -60 hhcurveto
          -52 -71 -15 -49 -89 hvcurveto
          -143 -79 -49 -105 -57 vvcurveto
          -8 1 -8 2 -6 vhcurveto
          2 -8 3 -7 4 -5 rrcurveto
          -37 16 36 -17 45 hhcurveto
          71 94 42 63 67 hvcurveto
          -68 -79 -77 -84 -43 -43 -76 -75 -46 -53 -11 -12 rrcurveto
          -13 -16 -5 -13 -10 vvcurveto
          -5 2 -4 23 callsubr
          7 -7 3 -28 6 -13 rrcurveto
          -5 2 3 -41 callsubr
          8 6 11 10 hvcurveto
          15 17 128 188 96 104 96 104 140 178 30 26 rrcurveto
          28 25 1 12 21 vvcurveto
          -534 -246 rmoveto
          50 76 75 72 52 vhcurveto
          49 68 82 21 62 hhcurveto
          43 34 -10 -17 11 hvcurveto
          -46 -50 -40 -35 -46 -36 rrcurveto
          -94 -120 -92 -29 -55 hhcurveto
          -21 -15 3 6 -11 hvcurveto
          -2 5 0 5 5 vvcurveto
          endchar
        </CharString>
        <CharString name="notequal">
          -43 489 523 rmoveto
          2 4 -47 callsubr
          11 -12 7 -4 vhcurveto
          -9 -1 -12 -4 -13 -12 -37 -34 -47 -45 -50 -49 rrcurveto
          -1 -76 -63 -5 -27 hhcurveto
          -7 -16 -18 callsubr
          68 hlineto
          -80 -79 -55 -1 -39 -3 -17 -3 rlinecurve
          -7 -1 -16 -13 -6 -3 3 -4 -3 -8 -5 -8 -5 vvcurveto
          -3 1 -1 5 vhcurveto
          1 13 16 1 32 hhcurveto
          8 hlineto
          -52 -52 -41 -43 -20 -21 rrcurveto
          -12 -10 -3 -6 -4 vvcurveto
          -5 6 0 0 vhcurveto
          -2 3 -8 -2 vvcurveto
          -1 0 0 0 vhcurveto
          -1 17 -4 3 vhcurveto
          7 1 14 15 0 vvcurveto
          141 143 rlineto
          -1 38 32 -1 67 hhcurveto
          23 1 11 1 9 12 rrcurveto
          4 5 -70 callsubr
          3 -1 2 -1 1 vhcurveto
          9 12 rlineto
          1 3 -23 callgsubr
          11 -20 1 -31 vhcurveto
          -10 -7 0 -64 hhcurveto
          78 77 rlineto
          -1 20 15 0 52 hhcurveto
          22 1 5 -1 8 12 1 1 12 18 1 1 6 5 rcurveline
          2 3 0 2 3 vvcurveto
          15 -31 3 -49 vhcurveto
          100 96 6 5 6 8 4 7 rlinecurve
          endchar
        </CharString>
        <CharString name="ntilde">
          -46 237 -102 callgsubr
          289 232 -96 callgsubr
        </CharString>
        <CharString name="numbersign">
          -19 529 434 rmoveto
          2 2 1 2 1 hvcurveto
          9 12 7 14 11 vvcurveto
          8 -5 7 -10 1 vhcurveto
          -65 3 120 157 rlineto
          4 6 5 7 7 vvcurveto
          4 -4 1 -5 vhcurveto
          -12 -7 -4 -9 -4 -4 1 -4 hhcurveto
          -1 1 0 -3 -4 hvcurveto
          -28 -33 -51 -67 -58 -75 rrcurveto
          -29 hlineto
          -18 -15 0 -1 -15 hvcurveto
          59 73 53 64 30 32 rrcurveto
          -1 -3 0 -1 -5 hvcurveto
          -1 -26 callsubr
          -5 hhcurveto
          -4 -3 1 2 hvcurveto
          1 2 6 3 vvcurveto
          7 -5 0 -7 1 vhcurveto
          -8 -8 -9 -4 -4 hvcurveto
          -28 -26 -57 -70 -64 -81 -131 -7 4 -21 -5 25 callsubr
          -74 callgsubr
          0 vvcurveto
          -1 0 0 1 vhcurveto
          2 -9 rlineto
          -4 -7 -9 -3 -3 vvcurveto
          -2 1 0 5 vhcurveto
          94 8 -29 -38 -29 -37 -28 -37 rlinecurve
          -77 -5 -33 -14 -22 -32 20 callgsubr
          vvcurveto
          -5 9 -2 7 vhcurveto
          5 47 20 3 10 hhcurveto
          -59 -79 -45 -62 -6 -10 -11 -16 rcurveline
          -7 -9 -10 -8 -4 vvcurveto
          -3 5 -1 15 7 9 -1 -1 5 vhcurveto
          3 3 -9 callgsubr
          16 21 0 hvcurveto
          8 14 54 71 67 88 rrcurveto
          28 28 0 -1 27 hvcurveto
          -66 -88 -46 -61 -15 -20 -8 -11 1 -6 rlinecurve
          -4 2 -1 6 vhcurveto
          9 4 2 4 hhcurveto
          26 24 32 0 hvcurveto
          4 7 49 65 64 83 28 -1 23 -2 10 -2 rrcurveto
          -1 1 1 0 2 hhcurveto
          12 16 10 23 16 hvcurveto
          4 6 -70 callsubr
          6 -6 3 -8 1 vhcurveto
          -20 2 -18 3 -20 1 90 118 rcurveline
          44 -2 36 -3 19 -2 rrcurveto
          -284 -108 rmoveto
          -16 -15 0 -1 -14 hvcurveto
          30 39 30 38 31 39 rrcurveto
          2 12 9 0 11 hhcurveto
          47 hlineto
          -30 -39 -31 -41 -28 -38 rrcurveto
          1 -12 -12 0 -12 hhcurveto
          endchar
        </CharString>
        <CharString name="o">
          -101 276 368 rmoveto
          3 -40 callsubr
          9 2 4 5 vvcurveto
          2 0 0 callgsubr
          vhcurveto
          6 -3 -7 2 -8 7 callgsubr
          -19 callsubr
          3 -11 vhcurveto
          5 -19 8 -16 11 -9 rrcurveto
          28 callgsubr
          -14 38 hhcurveto
          10 13 33 callgsubr
          hvcurveto
          155 31 119 205 80 vvcurveto
          9 -2 7 -2 5 vhcurveto
          -20 40 -13 10 -16 12 rrcurveto
          5 -7 -3 1 -1 -28 callgsubr
          hhcurveto
          -10 callsubr
          -23 callsubr
          -4 5 -6 vhcurveto
          3 -4 3 -8 -13 vvcurveto
          -30 -16 -57 -59 -77 vhcurveto
          36 callsubr
          -6 hvcurveto
          -8 7 -4 12 15 vvcurveto
          8 1 8 3 10 36 callgsubr
          12 6 13 -6 11 vvcurveto
          endchar
        </CharString>
        <CharString name="oacute">
          -101 276 368 rmoveto
          3 -40 callsubr
          9 2 4 5 vvcurveto
          2 0 0 callgsubr
          vhcurveto
          6 -3 -7 2 -8 7 callgsubr
          -19 callsubr
          3 -11 vhcurveto
          5 -19 8 -16 11 -9 rrcurveto
          28 callgsubr
          -14 38 hhcurveto
          10 13 33 callgsubr
          hvcurveto
          155 31 119 205 80 vvcurveto
          9 -2 7 -2 5 vhcurveto
          -20 40 -13 10 -16 12 rrcurveto
          5 -7 -3 1 -1 -28 callgsubr
          hhcurveto
          -10 callsubr
          -23 callsubr
          -4 5 -6 vhcurveto
          3 -4 3 -8 -13 vvcurveto
          -30 -16 -57 -59 -77 vhcurveto
          36 callsubr
          -6 hvcurveto
          -8 7 -4 12 15 vvcurveto
          8 1 8 3 10 36 callgsubr
          12 6 13 -6 11 vvcurveto
          211 234 -106 callsubr
        </CharString>
        <CharString name="obreve">
          -101 276 368 rmoveto
          3 -40 callsubr
          9 2 4 5 vvcurveto
          2 0 0 callgsubr
          vhcurveto
          6 -3 -7 2 -8 7 callgsubr
          -19 callsubr
          3 -11 vhcurveto
          5 -19 8 -16 11 -9 rrcurveto
          28 callgsubr
          -14 38 hhcurveto
          10 13 33 callgsubr
          hvcurveto
          155 31 119 205 80 vvcurveto
          9 -2 7 -2 5 vhcurveto
          -20 40 -13 10 -16 12 rrcurveto
          5 -7 -3 1 -1 -28 callgsubr
          hhcurveto
          -10 callsubr
          -23 callsubr
          -4 5 -6 vhcurveto
          3 -4 3 -8 -13 vvcurveto
          -30 -16 -57 -59 -77 vhcurveto
          36 callsubr
          -6 hvcurveto
          -8 7 -4 12 15 vvcurveto
          8 1 8 3 10 36 callgsubr
          12 6 13 -6 11 vvcurveto
          -59 244 -100 callsubr
        </CharString>
        <CharString name="ocircumflex">
          -101 276 368 rmoveto
          3 -40 callsubr
          9 2 4 5 vvcurveto
          2 0 0 callgsubr
          vhcurveto
          6 -3 -7 2 -8 7 callgsubr
          -19 callsubr
          3 -11 vhcurveto
          5 -19 8 -16 11 -9 rrcurveto
          28 callgsubr
          -14 38 hhcurveto
          10 13 33 callgsubr
          hvcurveto
          155 31 119 205 80 vvcurveto
          9 -2 7 -2 5 vhcurveto
          -20 40 -13 10 -16 12 rrcurveto
          5 -7 -3 1 -1 -28 callgsubr
          hhcurveto
          -10 callsubr
          -23 callsubr
          -4 5 -6 vhcurveto
          3 -4 3 -8 -13 vvcurveto
          -30 -16 -57 -59 -77 vhcurveto
          36 callsubr
          -6 hvcurveto
          -8 7 -4 12 15 vvcurveto
          8 1 8 3 10 36 callgsubr
          12 6 13 -6 11 vvcurveto
          64 245 -107 callgsubr
        </CharString>
        <CharString name="odieresis">
          -101 276 368 rmoveto
          3 -40 callsubr
          9 2 4 5 vvcurveto
          2 0 0 callgsubr
          vhcurveto
          6 -3 -7 2 -8 7 callgsubr
          -19 callsubr
          3 -11 vhcurveto
          5 -19 8 -16 11 -9 rrcurveto
          28 callgsubr
          -14 38 hhcurveto
          10 13 33 callgsubr
          hvcurveto
          155 31 119 205 80 vvcurveto
          9 -2 7 -2 5 vhcurveto
          -20 40 -13 10 -16 12 rrcurveto
          5 -7 -3 1 -1 -28 callgsubr
          hhcurveto
          -10 callsubr
          -23 callsubr
          -4 5 -6 vhcurveto
          3 -4 3 -8 -13 vvcurveto
          -30 -16 -57 -59 -77 vhcurveto
          36 callsubr
          -6 hvcurveto
          -8 7 -4 12 15 vvcurveto
          8 1 8 3 10 36 callgsubr
          12 6 13 -6 11 vvcurveto
          41 176 rmoveto
          -105 callgsubr
        </CharString>
        <CharString name="oe">
          154 573 25 callgsubr
          2 14 rlineto
          4 -1 2 -2 -4 -6 -5 -9 -9 vhcurveto
          -99 -102 -90 -38 -53 hhcurveto
          -14 29 callsubr
          -8 hvcurveto
          -3 7 -1 8 9 vvcurveto
          31 18 37 34 50 vhcurveto
          -7 13 25 -6 19 hhcurveto
          75 166 72 97 30 -26 21 -31 -3 -1 29 callgsubr
          hvcurveto
          24 callsubr
          1 -7 hhcurveto
          -52 -72 -28 -60 -72 hvcurveto
          0 -1 1 1 vvcurveto
          -20 40 -2 10 -16 12 rrcurveto
          5 -7 -3 1 -1 -28 callgsubr
          hhcurveto
          -10 callsubr
          -23 callsubr
          -4 5 -6 vhcurveto
          3 -4 3 -8 -13 vvcurveto
          -30 -16 -57 -59 -77 vhcurveto
          36 callsubr
          -6 hvcurveto
          -8 7 -4 12 15 vvcurveto
          8 1 8 3 10 36 callgsubr
          12 6 13 -6 11 3 -40 callsubr
          9 2 4 5 vvcurveto
          2 0 0 callgsubr
          vhcurveto
          6 -3 -7 2 -8 7 callgsubr
          -29 9 -32 20 -18 vhcurveto
          28 callgsubr
          -14 38 hhcurveto
          10 13 33 callgsubr
          hvcurveto
          49 10 44 27 38 36 14 -45 33 -27 25 -6 -32 callgsubr
          -69 106 -44 callgsubr
          endchar
        </CharString>
        <CharString name="ogonek">
          -53 176 hmoveto
          -75 -33 -93 -55 -72 -90 callsubr
          48 123 68 40 18 hvcurveto
          endchar
        </CharString>
        <CharString name="ograve">
          -101 276 368 rmoveto
          3 -40 callsubr
          9 2 4 5 vvcurveto
          2 0 0 callgsubr
          vhcurveto
          6 -3 -7 2 -8 7 callgsubr
          -19 callsubr
          3 -11 vhcurveto
          5 -19 8 -16 11 -9 rrcurveto
          28 callgsubr
          -14 38 hhcurveto
          10 13 33 callgsubr
          hvcurveto
          155 31 119 205 80 vvcurveto
          9 -2 7 -2 5 vhcurveto
          -20 40 -13 10 -16 12 rrcurveto
          5 -7 -3 1 -1 -28 callgsubr
          hhcurveto
          -10 callsubr
          -23 callsubr
          -4 5 -6 vhcurveto
          3 -4 3 -8 -13 vvcurveto
          -30 -16 -57 -59 -77 vhcurveto
          36 callsubr
          -6 hvcurveto
          -8 7 -4 12 15 vvcurveto
          8 1 8 3 10 36 callgsubr
          12 6 13 -6 11 vvcurveto
          -46 198 -101 callgsubr
        </CharString>
</ttFont>
